<svg xmlns="http://www.w3.org/2000/svg" xmlns:xlink="http://www.w3.org/1999/xlink" width="536" height="403.688" viewBox="0 0 536 403.688"><defs><linearGradient id="a" x1="-1.791" y1="1" x2="-1.791" gradientUnits="objectBoundingBox"><stop offset="0" stop-color="gray" stop-opacity="0.251"/><stop offset="0.54" stop-color="gray" stop-opacity="0.122"/><stop offset="1" stop-color="gray" stop-opacity="0.102"/></linearGradient></defs><g transform="translate(-0.002 -0.005)"><path d="M535.879,283.643q-.755.513-1.537.992a53.938,53.938,0,0,1-6.015,3.219c-10.935,5.055-24.4,7.524-37.515,9.2-29.427,3.764-59.468,4.5-89.379,5.213-80.825,1.943-161.86,3.89-242.471-.6-31.849-1.77-64.411-4.734-93.279-13.819q-6.206-1.952-12.169-4.3a103.762,103.762,0,0,1-22.191-11.648c-6.057-4.324-10.935-9.29-13.861-14.937-6.1-11.759-2.87-24.968,4.1-36.5a112.67,112.67,0,0,1,9.784-13.4c5.358-6.471,11.289-12.794,16.7-19.26,19.251-23.086,31.812-52.237,14.042-75.882C56.957,105.141,49.6,99.177,45.435,92.081c-5.316-9.067-4.9-19.139-3.215-28.923.219-1.235.466-2.469.694-3.69,2.907-14.508,8.335-30.116,25.042-39.2C85.331,10.86,110,11.335,131.576,14.681c33.545,5.237,64.491,16.172,95.743,26.053s63.978,18.9,98.348,19.889c30.344.853,65.735-5.558,85.871-22.238,19.568-16.19,56.328-17.425,82.838-7.641,18.17,6.709,31.756,18.809,37.477,32.413a38.2,38.2,0,0,1,2.5,8.442,34.288,34.288,0,0,1,.466,7.958,35.039,35.039,0,0,1-.466,3.9c-4.431,26.845-36.3,48.016-55.676,72-9.467,11.713-16.148,25.779-9.64,38.414,9.928,19.247,44.452,26.091,65.315,40.413a46.357,46.357,0,0,1,10.25,9.225C554.674,256.248,550.942,273.486,535.879,283.643Z" transform="translate(-14.238 -7.1)" fill="#e74c3c" opacity="0.1"/><path d="M151.638,158.45s-21.432-37.981-53.728-48.92A66.058,66.058,0,0,1,64.439,84.492a110.754,110.754,0,0,1-9.877-17.765" transform="translate(-14.238 -7.1)" fill="none" stroke="#535461" stroke-miterlimit="10" stroke-width="0.932"/><path d="M34.253,59.706c3.681,3.569,20.817,7.263,20.817,7.263s-4.193-17.02-7.883-20.588A9.285,9.285,0,1,0,34.253,59.706Z" transform="translate(-14.238 -7.1)" fill="#e74c3c"/><path d="M43.949,90.5c5.027,1,21.432-5.213,21.432-5.213s-12.775-12-17.807-13A9.284,9.284,0,1,0,43.962,90.5Z" transform="translate(-14.238 -7.1)" fill="#e74c3c"/><path d="M79.241,123.819c4.845-1.677,15.841-15.314,15.841-15.314s-17.089-3.909-21.93-2.232a9.285,9.285,0,1,0,6.057,17.546Z" transform="translate(-14.238 -7.1)" fill="#e74c3c"/><path d="M111.626,143.033c5.06-.834,18.217-12.412,18.217-12.412s-16.162-6.76-21.241-5.926a9.293,9.293,0,0,0,3.024,18.338Z" transform="translate(-14.238 -7.1)" fill="#e74c3c"/><path d="M79.67,71.987c0,5.125-9.272,20-9.272,20S61.108,77.121,61.1,72A9.285,9.285,0,1,1,79.67,72Z" transform="translate(-14.238 -7.1)" fill="#e74c3c"/><path d="M117.245,94.919c-1.533,4.892-14.834,16.307-14.834,16.307S97.994,94.262,99.522,89.37a9.285,9.285,0,0,1,17.7,5.549Z" transform="translate(-14.238 -7.1)" fill="#e74c3c"/><path d="M150.716,122.221c-.694,5.078-11.876,18.58-11.876,18.58s-7.222-15.971-6.523-21.054a9.285,9.285,0,1,1,18.4,2.474Z" transform="translate(-14.238 -7.1)" fill="#e74c3c"/><path d="M34.253,59.706c3.681,3.569,20.817,7.263,20.817,7.263s-4.193-17.02-7.883-20.588A9.285,9.285,0,1,0,34.253,59.706Z" transform="translate(-14.238 -7.1)" opacity="0.25"/><path d="M43.949,90.5c5.027,1,21.432-5.213,21.432-5.213s-12.775-12-17.807-13A9.284,9.284,0,1,0,43.962,90.5Z" transform="translate(-14.238 -7.1)" opacity="0.25"/><path d="M79.241,123.819c4.845-1.677,15.841-15.314,15.841-15.314s-17.089-3.909-21.93-2.232a9.285,9.285,0,1,0,6.057,17.546Z" transform="translate(-14.238 -7.1)" opacity="0.25"/><path d="M111.626,143.033c5.06-.834,18.217-12.412,18.217-12.412s-16.162-6.76-21.241-5.926a9.293,9.293,0,0,0,3.024,18.338Z" transform="translate(-14.238 -7.1)" opacity="0.25"/><path d="M79.67,71.987c0,5.125-9.272,20-9.272,20S61.108,77.121,61.1,72A9.285,9.285,0,1,1,79.67,72Z" transform="translate(-14.238 -7.1)" opacity="0.25"/><path d="M117.245,94.919c-1.533,4.892-14.834,16.307-14.834,16.307S97.994,94.262,99.522,89.37a9.285,9.285,0,0,1,17.7,5.549Z" transform="translate(-14.238 -7.1)" opacity="0.25"/><path d="M150.716,122.221c-.694,5.078-11.876,18.58-11.876,18.58s-7.222-15.971-6.523-21.054a9.285,9.285,0,1,1,18.4,2.474Z" transform="translate(-14.238 -7.1)" opacity="0.25"/><path d="M150.4,157.695s-4.193-43.408-29.3-66.5a66.117,66.117,0,0,1-20.453-36.452A110.992,110.992,0,0,1,98.828,34.5" transform="translate(-14.238 -7.1)" fill="none" stroke="#535461" stroke-miterlimit="10" stroke-width="0.932"/><path d="M83.1,19.857c1.92,4.752,16.088,15.086,16.088,15.086s3.052-17.238,1.137-22.014A9.292,9.292,0,0,0,83.09,19.871Z" transform="translate(-14.238 -7.1)" fill="#e74c3c"/><path d="M79.488,51.934c4.193,2.949,21.7,3.914,21.7,3.914S94.364,39.7,90.171,36.746A9.285,9.285,0,1,0,79.488,51.935Z" transform="translate(-14.238 -7.1)" fill="#e74c3c"/><path d="M98.255,96.7c5.125.429,20.7-7.576,20.7-7.576S104.922,78.626,99.811,78.2a9.285,9.285,0,1,0-1.556,18.5Z" transform="translate(-14.238 -7.1)" fill="#e74c3c"/><path d="M120.078,127.369c4.967,1.291,21.688-3.965,21.688-3.965S129.7,110.685,124.741,109.4a9.282,9.282,0,1,0-4.659,17.97Z" transform="translate(-14.238 -7.1)" fill="#e74c3c"/><path d="M119.635,49.479c-2.073,4.692-16.582,14.527-16.582,14.527s-2.469-17.355-.4-22.042a9.284,9.284,0,1,1,16.98,7.516Z" transform="translate(-14.238 -7.1)" fill="#e74c3c"/><path d="M144.705,85.675c-3.382,3.853-20.169,8.9-20.169,8.9s2.833-17.3,6.22-21.152a9.284,9.284,0,1,1,13.951,12.255Z" transform="translate(-14.238 -7.1)" fill="#e74c3c"/><path d="M164.246,124.2c-2.684,4.37-18.375,12.179-18.375,12.179s-.13-17.527,2.553-21.9a9.292,9.292,0,0,1,15.841,9.719Z" transform="translate(-14.238 -7.1)" fill="#e74c3c"/><ellipse cx="156.088" cy="7.841" rx="156.088" ry="7.841" transform="translate(142.087 388.01)" fill="#e74c3c" opacity="0.1"/><path d="M138.248,387.922s-19.7-1.188-17.378,12.612a3.362,3.362,0,0,0,1.752,3.55s.033-1.025,2.017-.676a9.317,9.317,0,0,0,2.143.1,4.454,4.454,0,0,0,2.614-1.081h0s5.54-2.288,7.692-11.34c0,0,1.593-1.971,1.528-2.479l-3.322,1.4a5.948,5.948,0,0,1,.242,4.389s-.107-4.3-.745-4.193c-.13.023-1.729.829-1.729.829s1.952,4.193.466,7.217c0,0,.559-5.148-1.09-6.914l-2.33,1.365s2.283,4.319.736,7.837c0,0,.4-5.4-1.23-7.5l-2.12,1.654s2.148,4.249.839,7.17c0,0-.172-6.285-1.3-6.76a12.055,12.055,0,0,0-2.134,2.329s1.468,3.084.554,4.715c0,0-.559-4.193-1.016-4.193,0,0-1.864,2.772-2.041,4.659a10.064,10.064,0,0,1,1.593-4.939,5.544,5.544,0,0,0-2.833,1.463s.289-1.961,3.289-2.134a13.084,13.084,0,0,1,1.934-2.232,12.076,12.076,0,0,0-4.79.554s1.593-1.864,5.339-1.011l2.092-1.71s-3.928-.536-5.591.056c0,0,1.915-1.635,6.155-.443l2.264-1.37a20.969,20.969,0,0,0-5.339-.466s2.1-1.132,6.01.1l1.626-.731s-2.451-.466-3.168-.559-.759-.275-.759-.275a8.508,8.508,0,0,1,4.608.513S138.3,388.136,138.248,387.922Z" transform="translate(-14.238 -7.1)" fill="#e74c3c"/><ellipse cx="13.94" cy="2.357" rx="13.94" ry="2.357" transform="translate(96.498 395.828)" fill="#e74c3c" opacity="0.1"/><path d="M103.734,388.658s-11.1-.671-9.784,7.11a1.9,1.9,0,0,0,.988,2s0-.573,1.137-.377a5.185,5.185,0,0,0,1.207.056,2.488,2.488,0,0,0,1.477-.61h0s3.122-1.286,4.333-6.392c0,0,.9-1.109.862-1.4l-1.864.8a3.363,3.363,0,0,1,.135,2.474s-.061-2.423-.419-2.367c-.075,0-.974.466-.974.466s1.1,2.357.27,4.067c0,0,.317-2.9-.615-3.895l-1.337.769s1.286,2.432.415,4.417c0,0,.224-3.042-.69-4.226l-1.2.932s1.211,2.395.466,4.039c0,0-.093-3.541-.731-3.811a7.2,7.2,0,0,0-1.2,1.3s.825,1.738.312,2.656c0,0-.312-2.357-.573-2.371a7.827,7.827,0,0,0-1.151,2.637,5.7,5.7,0,0,1,.9-2.8,3.154,3.154,0,0,0-1.6.825s.163-1.1,1.864-1.2a7.427,7.427,0,0,1,1.09-1.258,6.839,6.839,0,0,0-2.7.312s.895-1.044,3.005-.568l1.183-.964a9.737,9.737,0,0,0-3.154.033s1.081-.932,3.471-.252l1.286-.769a11.752,11.752,0,0,0-3.014-.261,4.631,4.631,0,0,1,3.392.056l.932-.415s-1.4-.27-1.789-.312-.424-.154-.424-.154a4.739,4.739,0,0,1,2.6.289A11.433,11.433,0,0,0,103.734,388.658Z" transform="translate(-14.238 -7.1)" fill="#e74c3c"/><ellipse cx="7.86" cy="1.328" rx="7.86" ry="1.328" transform="translate(73.986 390.018)" fill="#e74c3c" opacity="0.1"/><path d="M124.863,372.156s-13.409-.806-11.829,8.591a2.292,2.292,0,0,0,1.193,2.413s.023-.7,1.4-.466a6.119,6.119,0,0,0,1.458.07,3.01,3.01,0,0,0,1.77-.722h0s3.769-1.556,5.237-7.715c0,0,1.081-1.342,1.039-1.691l-2.26.969a4.069,4.069,0,0,1,.163,2.986s-.075-2.926-.508-2.861c-.089,0-1.174.568-1.174.568s1.328,2.842.326,4.911c0,0,.377-3.5-.745-4.706l-1.589.932s1.551,2.94.5,5.335c0,0,.27-3.676-.834-5.125l-1.444,1.127s1.458,2.893.568,4.878c0,0-.116-4.277-.881-4.6a8.935,8.935,0,0,0-1.458,1.57s1,2.1.382,3.21c0,0-.382-2.851-.694-2.865a9.647,9.647,0,0,0-1.4,3.182,6.882,6.882,0,0,1,1.086-3.364,3.8,3.8,0,0,0-1.929,1s.2-1.337,2.241-1.454a8.742,8.742,0,0,1,1.314-1.519,8.262,8.262,0,0,0-3.261.373s1.086-1.258,3.634-.685l1.426-1.165a11.858,11.858,0,0,0-3.806.037s1.3-1.114,4.193-.3l1.551-.932a15.284,15.284,0,0,0-3.634-.312s1.43-.773,4.091.065l1.109-.5s-1.668-.326-2.157-.377-.517-.191-.517-.191a5.791,5.791,0,0,1,3.136.349A13.39,13.39,0,0,0,124.863,372.156Z" transform="translate(-14.238 -7.1)" fill="#e74c3c"/><ellipse cx="9.49" cy="1.603" rx="9.49" ry="1.603" transform="translate(91.909 375.277)" fill="#e74c3c" opacity="0.1"/><path d="M329.646,392.315v3.643H221.9V393a35.409,35.409,0,0,0,2.437-65.4H328.929a35.44,35.44,0,0,0,.717,64.714Z" transform="translate(-14.238 -7.1)" fill="#c8cad7"/><path d="M328.929,327.6a35.451,35.451,0,0,0-19.568,23.477H243.915A35.451,35.451,0,0,0,224.347,327.6Z" transform="translate(-14.238 -7.1)" opacity="0.1"/><path d="M98.53,309.04v20.453c0,11.294,8.265,20.449,18.464,20.449H433.986c10.2,0,18.464-9.155,18.464-20.449V309.04Z" transform="translate(-14.238 -7.1)" fill="#c8cad7"/><path d="M329.646,392.315v3.643H221.9V393a35.461,35.461,0,0,0,8.312-4.426H323.04A35.441,35.441,0,0,0,329.646,392.315Z" transform="translate(-14.238 -7.1)" opacity="0.1"/><rect width="178.949" height="10.795" rx="4.426" transform="translate(172.059 382.611)" fill="#c8cad7"/><path d="M452.45,84.925a18.464,18.464,0,0,0-18.464-18.464H116.993A18.464,18.464,0,0,0,98.53,84.925V313.018H452.45Z" transform="translate(-14.238 -7.1)" fill="#474157"/><path d="M442.792,93.181V289.155a9.085,9.085,0,0,1-9.09,9.09H117.273a9.085,9.085,0,0,1-9.09-9.09V93.181a9.09,9.09,0,0,1,9.09-9.09H433.7A9.09,9.09,0,0,1,442.792,93.181Z" transform="translate(-14.238 -7.1)" fill="#f4f4f7"/><circle cx="4.263" cy="4.263" r="4.263" transform="translate(256.989 63.908)" fill="#fff"/><circle cx="10.511" cy="10.511" r="10.511" transform="translate(250.741 312.734)" fill="#fff"/><path d="M442.792,93.181h-334.6a9.085,9.085,0,0,1,9.085-9.09H433.7a9.085,9.085,0,0,1,9.09,9.09Z" transform="translate(-14.238 -7.1)" fill="#fff"/><circle cx="2.274" cy="2.274" r="2.274" transform="translate(100.761 79.246)" fill="#ededf4"/><circle cx="2.274" cy="2.274" r="2.274" transform="translate(107.577 79.246)" fill="#ededf4"/><circle cx="2.274" cy="2.274" r="2.274" transform="translate(114.398 79.246)" fill="#ededf4"/><rect width="270.048" height="157.811" transform="translate(125.45 111.24)" fill="#fff"/><path d="M185.826,251.7h9.956v1.864h-9.956Zm4.981-4.981a1.244,1.244,0,1,0-.345-2.441l-2.6-1.9-.154.14,1.9,2.59a1.319,1.319,0,0,0-.051.363,1.239,1.239,0,0,0,1.244,1.244Z" transform="translate(-14.238 -7.1)" fill="#65617d"/><path d="M190.807,237.379a8.093,8.093,0,0,0-6.378,13.073h2.288l.158-.158.857-.857-.9-.89-.857.853a6.178,6.178,0,0,1-1.37-3.3h1.211v-1.249H184.6a6.178,6.178,0,0,1,1.37-3.3l.857.853.89-.89-.853-.857a6.183,6.183,0,0,1,3.3-1.37v1.211h1.244V239.28a6.215,6.215,0,0,1,3.308,1.37l-.857.857.895.89.857-.853a6.215,6.215,0,0,1,1.37,3.3h-1.216V246.1h1.216a6.215,6.215,0,0,1-1.37,3.3l-.857-.853-.895.89.862.857.154.158h2.288a8.093,8.093,0,0,0-6.374-13.073Z" transform="translate(-14.238 -7.1)" fill="#65617d"/><path d="M190.8,203.442a4.193,4.193,0,0,1-1.668-.424.3.3,0,0,0-.424.294l.135,1.985a.154.154,0,0,0,.247.107l.564-.429a.154.154,0,0,1,.219.042l.8,1.249a.154.154,0,0,0,.256,0l.8-1.249a.154.154,0,0,1,.224-.019l.564.429a.154.154,0,0,0,.247-.107l.135-1.985a.3.3,0,0,0-.424-.294,4.226,4.226,0,0,1-1.668.424Z" transform="translate(-14.238 -7.1)" fill="#65617d"/><path d="M196.314,198.443l-1.864-1.91c0-6.145-3.625-8.852-3.625-8.852s-3.662,2.726-3.662,8.852l-1.864,1.91a.326.326,0,0,0-.088.275l.717,4.347a.3.3,0,0,0,.466.214l2.614-1.77a2.954,2.954,0,0,0,1.831.778,2.8,2.8,0,0,0,1.794-.778l2.609,1.77a.3.3,0,0,0,.466-.214l.722-4.352A.34.34,0,0,0,196.314,198.443Zm-5.493-3.932a1.249,1.249,0,1,1,1.193-1.244,1.221,1.221,0,0,1-1.193,1.244Z" transform="translate(-14.238 -7.1)" fill="#65617d"/><path d="M197.013,155.859h-.2c-.256,0-.466-.033-.494-.289h0c-.568-5.283-3.9-5.386-3.9-6.63s3.336-1.346,3.9-6.63h0c.028-.256.238-.289.494-.289h.2a.559.559,0,0,0,.564-.517.55.55,0,0,0-.545-.573H184.6a.559.559,0,0,0-.559.517.545.545,0,0,0,.545.573h.214c.252,0,.466.033.494.289h0c.568,5.283,3.9,5.386,3.9,6.63s-3.336,1.346-3.9,6.63h0c-.028.256-.242.289-.494.289h-.2a.559.559,0,0,0-.559.517.545.545,0,0,0,.545.573h12.449a.545.545,0,0,0,.545-.573.564.564,0,0,0-.564-.517Zm-9.812-1.328c1.118-3.108,3.094-2.73,3.094-3.956v-2.162c0-.755-1.43-1.281-2.33-2.507a.3.3,0,0,1,.252-.466h5.172a.3.3,0,0,1,.261.466c-.881,1.23-2.33,1.756-2.33,2.511v2.162c0,1.216,1.9.885,3.1,3.956.112.275.028.62-.266.62h-6.686C187.168,155.146,187.1,154.811,187.2,154.531Z" transform="translate(-14.238 -7.1)" fill="#65617d"/><path d="M366.714,148.936a5.186,5.186,0,0,1-5.172,5.195H228.41a5.195,5.195,0,1,1,0-10.385H361.542a5.19,5.19,0,0,1,5.172,5.19Z" transform="translate(-14.238 -7.1)" fill="#5a5773" opacity="0.2"/><path d="M366.714,197a5.186,5.186,0,0,1-5.172,5.2H228.41a5.195,5.195,0,0,1,0-10.385H361.542A5.2,5.2,0,0,1,366.714,197Z" transform="translate(-14.238 -7.1)" fill="#5a5773" opacity="0.2"/><path d="M366.714,245.471a5.186,5.186,0,0,1-5.172,5.186H228.41a5.195,5.195,0,1,1,0-10.385H361.542A5.19,5.19,0,0,1,366.714,245.471Z" transform="translate(-14.238 -7.1)" fill="#5a5773" opacity="0.2"/><path d="M339.994,143.746v10.385H228.41a5.195,5.195,0,1,1,0-10.385Z" transform="translate(-14.238 -7.1)" fill="#e74c3c"/><path d="M359.8,191.808V202.2H228.41a5.195,5.195,0,0,1,0-10.385Z" transform="translate(-14.238 -7.1)" fill="#e74c3c"/><path d="M311.108,240.281v10.376h-82.7a5.195,5.195,0,1,1,0-10.385Z" transform="translate(-14.238 -7.1)" fill="#e74c3c"/><path d="M497.857,225.88c.256-.694-1.654-4.557-1.654-4.748s-1.98-2.33-1.98-3.546-2.614-3.8-2.614-3.8-3.508-1.458-3.89-4.622-4.193-3.229-4.193-3.229h0v-.727a10.7,10.7,0,0,0-.466-3.7,3.727,3.727,0,0,0-2.171-1.836s-.382-2.474-1.146-3.233a3.634,3.634,0,0,1-.89-3.42c.382-1.2-.508-4.24-2.362-4.659s-3.951-1.141-3.951-1.141-.21.042-.512.084l-.256-.084a11.005,11.005,0,0,1-1.337.168,1.649,1.649,0,0,1-1.081-.359c-.652-.722-5.777-2.059-6.756-2.059a15.647,15.647,0,0,1-3.7-1.272l-2.74-2.087a17.566,17.566,0,0,1-2.395-3.308l-.028-.047h0a11.922,11.922,0,0,1-.578-1.668h0a15.18,15.18,0,0,0,2.371-3.261c.065-.121.121-.247.186-.373a1.345,1.345,0,0,0,.41-.065l.172-.065a2.8,2.8,0,0,0,1.351-1.617h0c.051-.14.089-.28.126-.419l.028-.14a1.515,1.515,0,0,1,.061-.289l.028-.163c0-.1.033-.191.042-.289a.854.854,0,0,0,0-.158c0-.051.028-.242.047-.359h0a12.751,12.751,0,0,1,.2-1.332h0a23.444,23.444,0,0,1,2.148-4.762h0c.1-.228.2-.466.294-.694s.177-.508.252-.769a1.114,1.114,0,0,1,.061-.238c.051-.191.093-.377.13-.573a1.591,1.591,0,0,1,.047-.252c.042-.261.079-.526.1-.792a9.784,9.784,0,0,0-.657-4.449c-.466-1.188-1.188-2.26-1.673-3.448-.731-1.8-.932-3.844-1.822-5.558a6.6,6.6,0,0,0-7.92-3.238c-1.4.517-2.586,1.519-3.993,1.966-1.864.6-3.9.149-5.852-.121s-4.109-.294-5.675.978c-1.808,1.468-2.3,4.221-4,5.833-.713.676-1.593,1.109-2.329,1.733a3.793,3.793,0,0,0-1.179,1.612,1.149,1.149,0,0,0-.042.135.936.936,0,0,0-.042.163,1.366,1.366,0,0,1-.033.191.6.6,0,0,0,0,.13,2.761,2.761,0,0,0,0,.34h0a2.356,2.356,0,0,0,.051.317v.089a1.777,1.777,0,0,0,.079.266v.051c.033.1.075.191.112.289a1.235,1.235,0,0,0,.065.144,1.271,1.271,0,0,0,.051.116,7.843,7.843,0,0,1,.592,1.472,1.626,1.626,0,0,1-.061.974,2.968,2.968,0,0,1-.7.932A13.158,13.158,0,0,0,423.3,165.5c-.075.2-.144.391-.2.592h0l.084.023a3.429,3.429,0,0,0,.559.121c.107,0,.214.028.321.033a4.9,4.9,0,0,0,1.3-.1l.326-.075a8.317,8.317,0,0,0,1.291-.466c0,.13,0,.256,0,.387v.219a15.063,15.063,0,0,0,8.386,13.469l.056.41.042.345-.172-.163s-1.151-.573-2.232,1.076a7.217,7.217,0,0,1-3.126,2.4s-11.606,1.836-12.053,3.359l-5.418.317s-1.915.252-2.106,4.24-1.211,4.37-1.211,4.37-2.232,3.928-2.041,5.954a3.3,3.3,0,0,1-1.766,3.028l-.256,3.611a2.449,2.449,0,0,0-2.679,2.152,8.664,8.664,0,0,1-1.593,3.611s-3.508,2.912-3.7,5.381l-2.166,1.332s-5.041-1.141-6.187-3.168l-.354-.331a.248.248,0,0,1-.028-.047h0a18.455,18.455,0,0,0-2.111-1.864,1.547,1.547,0,0,1,.1,1.02l-.373-.419-1-1.076s-7.5-8.615-12.267-9.22h0a3.033,3.033,0,0,0-2.143,2.078c-.606,2.059-1.239,5.47.335,7.147l7.538,8.055.2.144,1.64,2.106c-.275.662-.508,1.3-.7,1.887v.056c-.042.126-.079.252-.116.368l-.042.126c-.037.121-.07.238-.107.349s-.037.14-.061.21,0,.079-.033.121c-.182.634-.294,1.123-.354,1.4l-.424-.13.415.177a.412.412,0,0,0,0,.065.985.985,0,0,0-.028.135c.126.056.256.116.391.168,2.232.974,13.381,5.866,13.977,6.607.638.825,4.85,3.229,8.675,1.2a9.183,9.183,0,0,0,4.659-5.125s3.7-5.125,3.825-5.889,3-1.645,3-1.645.256,8.484-1.211,11.587-4.193,16.847-4.193,16.847a1.94,1.94,0,0,1,.545-.033l-.163.792a1.9,1.9,0,0,1,.676,0c-.2,1.561-1.4,8.815-1.4,8.815a18.354,18.354,0,0,1-1.02,4.435c-.634,1.141-.7,7.091-.7,7.091l-1.02,4.3s.135.3.387.745h0a11.019,11.019,0,0,0,2.94,3.792,7.775,7.775,0,0,1-.517,1.966,6.886,6.886,0,0,0-.508,3.042s-1.086,4.873-.955,6.271a22.821,22.821,0,0,1-.7,4.813l-1.146,11.019s-.764,9.56-.382,12.16a23.252,23.252,0,0,1-.256,6.141s.764,7.538.573,8.358-1.146,4.37-.573,6.332.256,7.347.256,7.347.382,7.1.825,9.374a16.266,16.266,0,0,1-.126,5.195,47.148,47.148,0,0,1-.638,4.873c-.172,0-1.864,3.355,1.528,6.648s1.281,2.8,1.281,2.8-2.679-1.328-2.362,1.4c.3,2.6.722,1.915.759,1.864l-.634,2.083.466.061c-.121.144-.242.294-.373.466a10.1,10.1,0,0,1-1.281,1.337,2.731,2.731,0,0,0-.834,1.831s-4.715,5.125-9.118,7.725A26.707,26.707,0,0,0,388.3,400.6c-.787.857-.657,1.551.974,2.092,3.443,1.141,9.5,1.71,13.837.256a16.2,16.2,0,0,0,6.76-4.37,9.654,9.654,0,0,1,5.418-.89c2.679.508,8.037-2.977,8.037-2.977l-.1-.895-.284-2.59a2.05,2.05,0,0,1-.466-1.579,8.107,8.107,0,0,0-.224-2.278c-.047-.252-.093-.5-.14-.736l.489-.089s-.638-3.229.512-3.867.825-8.927.825-8.927a10.118,10.118,0,0,0-2.232-2.218c-.769-.317-.065-4.244.065-4.748s1.095-10.366,1.095-10.366-.382-3.1.126-4.431-.638-6.457-.638-6.457a1.182,1.182,0,0,1,.321-1.4c.7-.764.443-7.534.443-7.534s-.061-3.42-.061-4.31a15.657,15.657,0,0,1,1.463-5.19c.7-1.076.256-4.431.256-4.431h0l.037-.256a2.821,2.821,0,0,1,.061-.354l.056-.34a48.645,48.645,0,0,1,1.244-5.5c.829-2.66,1.784-7.343,1.784-7.343l5.936-15.5.065-.182s2.74,5.064,2.74,9.756a55.936,55.936,0,0,1,.512,7.152,85.032,85.032,0,0,0,.578,8.675s.825,10.25.825,10.716,1.02,8.358,1.659,9.56-.638,4.878-1.02,5.255.126,9.691.126,9.691-.955,7.343-1.146,8.852-.955,7.347-.317,9.626.382,2.6.382,2.6,2.3,2.33.932,2.535a3.513,3.513,0,0,0-2.553,4.622,60.27,60.27,0,0,0,2.8,6.779l1.058-.224v.755l.075,3.774s.466,3.611.2,4.435a47.011,47.011,0,0,0-.522,4.925c-.047.54-.075.9-.075.9s0,3.355,7.082,2.33,8.368-3.788,8.368-3.788a1.571,1.571,0,0,1,.056-.349c.1-.638.331-2,.522-2.753.256-1.016-2.041-5.591-2.041-5.591s-.382-3.1-1.02-3.8a3.228,3.228,0,0,1-.512-1.328c-.061-.256-.112-.522-.154-.783q.252.037.466.084s-.387-2.213,1.086-2.912a2.1,2.1,0,0,0,.89-2.8,21.4,21.4,0,0,1,.573-4.193,2.069,2.069,0,0,1,.512-2.027c.895-.885,1.593-7.091,1.593-7.091l.126-23.938s.466-4.244-.061-5.954-1.02-5-.321-5.889.065-5,.065-5,0-8.675.955-10.828.638-15.766.638-15.766l.256-8.931s2.083-1.971,1.589-12.249c2.222-.14,4.729-.219,5.125.089.7.568,5.227,3.485,7.92,1.645a35.188,35.188,0,0,0,3.187-2.469L475.983,260.3c.7,1.058,1.127,1.761,1.127,1.761,0-2.66,7.524-11.27,7.524-11.27s7.012-9.057,8.545-10.133,4.524-6.779,4.524-6.779a27.608,27.608,0,0,1,1.533-3.163C499.916,229.617,497.587,226.579,497.857,225.88Zm-16.451,6.648c-1.91.191-5.931,4.561-5.992,5.512a3.993,3.993,0,0,1-.848,1.7c-.033-.382-.065-.769-.093-1.165-.466-5.591-.932-12.416-.717-13.078.382-1.137.252-6.266.252-6.266h0l.07-.1c1.286,3.974,5.279,8.661,5.279,8.661s.7,2.027,1.533,2.087.517,2.646.517,2.646Z" transform="translate(-14.238 -7.1)" fill="url(#a)"/><path d="M379.163,231.089s2.33-12.193,9.784-12.253l5.465,11.247-3.643,2.516S382.872,232.845,379.163,231.089Z" transform="translate(-14.238 -7.1)" fill="#65617d"/><path d="M394.435,230.078l-3.648,2.516a42.8,42.8,0,0,1-9.551-.806,10.8,10.8,0,0,1-2.073-.7.7.7,0,0,1,.042-.2.255.255,0,0,1,0-.047,27.583,27.583,0,0,1,1.4-4.477,17.221,17.221,0,0,1,.773-1.677,11.329,11.329,0,0,1,4.738-5.195,6.466,6.466,0,0,1,2.493-.652h.335l.116.247,1.864,3.8Z" transform="translate(-14.238 -7.1)" opacity="0.1"/><path d="M456.531,280.736s7.855-.755,8.545-.191,5.153,3.457,7.795,1.635.881-8.172.881-8.424-.252-9.239-.252-9.239l-4.715-6.346-5.908-11.126-12.067-1.193.312,17.658-.061,9.043Z" transform="translate(-14.238 -7.1)" fill="#65617d"/><path d="M456.531,280.736s7.855-.755,8.545-.191,5.153,3.457,7.795,1.635.881-8.172.881-8.424-.252-9.239-.252-9.239l-4.715-6.346-5.908-11.126-12.067-1.193.312,17.658-.061,9.043Z" transform="translate(-14.238 -7.1)" opacity="0.1"/><path d="M387.4,218.509s-.624,7.669-5.4,7.795c0,0-1.351-.815-3.173-2.176-4.193-3.145-10.856-9.178-9.015-14.8,2.637-8.042,15.459,6.788,15.459,6.788l.988,1.1Z" transform="translate(-14.238 -7.1)" fill="#fbbebe"/><path d="M387.4,218.509s-.624,7.669-5.4,7.795c0,0-1.351-.815-3.173-2.176l-.41-.526a6.192,6.192,0,0,0,2.618.7,3.527,3.527,0,0,0,3.415-2.152,26.737,26.737,0,0,0,1.328-3.038,8.852,8.852,0,0,0,.466-1.887Z" transform="translate(-14.238 -7.1)" opacity="0.1"/><path d="M385.3,232.4l-1.076-1.4-3.615-4.659-1.864-2.381a6.192,6.192,0,0,0,2.618.7,3.532,3.532,0,0,0,3.415-2.152,26.735,26.735,0,0,0,1.323-3.042c.6-1.7.587-2.567.373-2.861a19.588,19.588,0,0,1,2.078,1.84l.028.028.349.331.126.256,1.822,3.639v.154C391.076,224.03,391.691,231.364,385.3,232.4Z" transform="translate(-14.238 -7.1)" fill="#e7effd"/><path d="M422.972,394.156s-5.283,3.457-7.92,2.949a9.44,9.44,0,0,0-5.344.885,15.911,15.911,0,0,1-6.662,4.338c-4.272,1.444-10.25.876-13.637-.256-1.607-.536-1.733-1.225-.96-2.078a27.359,27.359,0,0,1,5.125-3.452c4.31-2.558,8.969-7.646,8.969-7.646a2.736,2.736,0,0,1,.82-1.822,10.505,10.505,0,0,0,1.267-1.323c.676-.8,1.309-1.635,1.309-1.635l15.524.508s.261,1.118.466,2.26a8.149,8.149,0,0,1,.219,2.264,2.036,2.036,0,0,0,.443,1.57l.275,2.567Z" transform="translate(-14.238 -7.1)" fill="#65617d"/><path d="M455.46,398.512c-.186.75-.41,2.1-.512,2.73-.033.214-.051.349-.051.349s-1.258,2.763-8.233,3.769-6.989-2.33-6.989-2.33.028-.359.075-.9a48.125,48.125,0,0,1,.559-4.883,22.554,22.554,0,0,0-.191-4.4l-.075-3.727-.051-2.6,11.573-1.211a21.549,21.549,0,0,0,.373,2.576,3.434,3.434,0,0,0,.5,1.318c.634.694,1.011,3.769,1.011,3.769S455.711,397.5,455.46,398.512Z" transform="translate(-14.238 -7.1)" fill="#65617d"/><path d="M421.462,384.623s.261,1.118.466,2.26c-1.677.312-9.011,1.579-10.842.69a28.6,28.6,0,0,0-6.523-1.57l.075-.252c.676-.8,1.309-1.635,1.309-1.635Z" transform="translate(-14.238 -7.1)" opacity="0.1"/><path d="M451.928,387.889c-2.931-.5-9.355.7-11.885,1.221l-.051-2.6,11.573-1.2A21.559,21.559,0,0,0,451.928,387.889Z" transform="translate(-14.238 -7.1)" opacity="0.1"/><path d="M458.474,292.612l-.247,8.852s.312,13.511-.629,15.65-.932,10.748-.932,10.748.629,4.081-.065,4.962-.191,4.147.317,5.842.061,5.912.061,5.912l-.126,23.761s-.69,6.155-1.57,7.04a2.055,2.055,0,0,0-.512,2,21.422,21.422,0,0,0-.568,4.147,2.09,2.09,0,0,1-.876,2.767c-1.444.69-1.072,2.889-1.072,2.889-3.452-.815-13.26,1.4-13.26,1.4a59.754,59.754,0,0,1-2.767-6.723,3.485,3.485,0,0,1,2.516-4.589c1.319-.186-.932-2.511-.932-2.511s.252-.317-.377-2.576.126-8.046.312-9.556,1.137-8.8,1.137-8.8-.5-9.239-.126-9.616,1.635-4.025,1.006-5.218-1.635-9.048-1.635-9.491-.815-10.623-.815-10.623-.759-7.1-.578-8.587a57.535,57.535,0,0,0-.508-7.105c0-4.659-2.7-9.677-2.7-9.677l-.07.182-5.842,15.342s-.932,4.659-1.756,7.287a47.839,47.839,0,0,0-1.23,5.46l-.056.335a2.02,2.02,0,0,1-.056.354l-.037.252h0s.438,3.331-.252,4.4a15.662,15.662,0,0,0-1.444,5.153c0,.881.061,4.272.061,4.272s.252,6.723-.438,7.454a1.174,1.174,0,0,0-.317,1.4s1.132,5.092.629,6.411-.121,4.4-.121,4.4-1.006,9.742-1.132,10.25-.82,4.4-.065,4.715a10.125,10.125,0,0,1,2.2,2.2s.317,8.233-.815,8.852-.5,3.834-.5,3.834-9.113,1.761-11.182.755a28.639,28.639,0,0,0-6.523-1.575l.624-2.069c-.037.075-.466.745-.75-1.826-.312-2.7,2.33-1.4,2.33-1.4s2.073.5-1.258-2.763-1.7-6.6-1.51-6.6a42.93,42.93,0,0,0,.629-4.836,16.031,16.031,0,0,0,.126-5.158c-.443-2.264-.829-9.3-.829-9.3s.312-5.339-.252-7.291.377-5.465.564-6.285-.564-8.3-.564-8.3a23.2,23.2,0,0,0,.252-6.089c-.377-2.572.377-12.067.377-12.067l1.132-10.939a23.085,23.085,0,0,0,.69-4.776,39.05,39.05,0,0,1,.932-6.22,6.9,6.9,0,0,1,.5-3.019c.629-1.253.885-5.4.885-5.4l6.029-13.828,2.963-12.169,39.909-.377s.144,1.053.387,2.977.582,4.766.96,8.279c.349,3.187.731,6.942,1.1,11.116C460.99,290.222,458.474,292.612,458.474,292.612Z" transform="translate(-14.238 -7.1)" fill="#3f3d56"/><path d="M454.77,182.565l-9.318,9.933s-11.936-4.78-10.683-6.411c.466-.634.41-2.628.13-4.831-.466-3.48-1.4-7.487-1.4-7.487s20.863-3.4,19.1.121a5.8,5.8,0,0,0-.13,4.193,15.664,15.664,0,0,0,2.3,4.482Z" transform="translate(-14.238 -7.1)" fill="#fbbebe"/><path d="M452.631,173.89c-.643,1.286-.932,1.4-.55,2.8-2.726,2.926-6.2,6.127-10.511,6.127a14.839,14.839,0,0,1-6.658-1.575c-.466-3.48-1.4-7.487-1.4-7.487S454.393,170.372,452.631,173.89Z" transform="translate(-14.238 -7.1)" opacity="0.1"/><path d="M456.531,167.479a14.96,14.96,0,1,1-29.92,0v-.214a14.959,14.959,0,1,1,29.918.214Z" transform="translate(-14.238 -7.1)" fill="#fbbebe"/><path d="M458.693,266.162c-1.98,0-8.577.07-15.948.186h-.093l-2.432.042h-.079c-8.745.14-17.36-1.57-20.817-1.244-7.352.69,2.637-6.788,2.637-6.788a61.419,61.419,0,0,0,16.773,1.691l2.115-.107c6.681-.377,13.395-1.006,16.9-2.059C457.985,259.826,458.316,262.649,458.693,266.162Z" transform="translate(-14.238 -7.1)" opacity="0.1"/><path d="M458.693,265.785c-1.98,0-8.577.07-15.948.186h-.093l-2.432.042h-.079c-8.745.14-17.36-1.57-20.817-1.244-7.352.69,2.637-6.788,2.637-6.788a61.528,61.528,0,0,0,16.773,1.7l2.115-.112c6.681-.377,13.395-1.006,16.9-2.059C457.985,259.449,458.316,262.272,458.693,265.785Z" transform="translate(-14.238 -7.1)" fill="#e3a79f"/><path d="M437.55,186.716l-11.564,5.4-8.927,69.005s5.279-2.39,8.3-.881,12.319.126,12.319.126,6.788-.377,7.79.377,12.822-3.145,12.822-3.145,2.139-4.776.5-5.53.5-8.167.5-8.167l-1.006-49.777-2.008-6.411-5.4-3.261-5.535,4.4-2.637.377Z" transform="translate(-14.238 -7.1)" opacity="0.1"/><path d="M437.55,185.961l-11.564,5.4-8.927,69.005s5.279-2.39,8.312-.862,12.319.126,12.319.126,6.788-.377,7.79.377,12.822-3.14,12.822-3.14,2.139-4.78.5-5.53.5-8.172.5-8.172L458.3,193.393l-2.008-6.411-5.4-3.261-5.535,4.4-2.637.377Z" transform="translate(-14.238 -7.1)" fill="#e7effd"/><path d="M437.359,189.157s3.331,3.956,3.261,4.776-.191,2.763-.191,2.763l-2.479,5.1s-1.4,6.346-1.4,7.669-2.208,12.77-2.208,12.77l-2.642,17.6L428.372,262.9l3.4,5.842,4.021-3.392,5.344-41.1,1.127-8.107s1.2-14.583,1.2-16.092a51.011,51.011,0,0,0-.694-5.465s.82-3.774,4.193-4.659-.252-.186-.252-.186l-1.947-1.57-1.682.68S438.365,187.406,437.359,189.157Z" transform="translate(-14.238 -7.1)" opacity="0.1"/><path d="M436.982,188.789s3.331,3.956,3.261,4.776-.191,2.763-.191,2.763l-2.511,5.092s-1.4,6.346-1.4,7.669-2.2,12.756-2.2,12.756l-2.642,17.6-3.331,23.067,3.42,5.852,4.021-3.392,5.335-41.111,1.132-8.107s1.193-14.583,1.193-16.092a51.011,51.011,0,0,0-.694-5.465s.82-3.774,4.193-4.659-.252-.191-.252-.191l-1.947-1.57-1.7.69S437.988,187.028,436.982,188.789Z" transform="translate(-14.238 -7.1)" fill="#3f3d56"/><path d="M434.783,182.169s-.5.377-.629,2.893-1.864,8.167-1.864,8.167,6.523-4.524,9.784-4.021Z" transform="translate(-14.238 -7.1)" opacity="0.1"/><path d="M434.783,181.433s-.5.377-.629,2.893-1.864,8.172-1.864,8.172,6.523-4.529,9.784-4.025Z" transform="translate(-14.238 -7.1)" fill="#e7effd"/><path d="M452.631,180.179l-10.306,9.048s8.675,5.153,9.784,6.411,2.264-12.319,2.264-12.319Z" transform="translate(-14.238 -7.1)" opacity="0.1"/><path d="M453.009,179.425,442.7,188.473s8.67,5.153,9.784,6.411,2.264-12.319,2.264-12.319Z" transform="translate(-14.238 -7.1)" fill="#e7effd"/><path d="M435.155,182.169s-1.132-.564-2.2,1.072a7.11,7.11,0,0,1-3.08,2.385s-11.438,1.822-11.876,3.331l-5.344.317s-1.887.252-2.073,4.193-1.193,4.338-1.193,4.338-2.19,3.932-2.008,5.94a3.32,3.32,0,0,1-1.7,3.019l7.855,20.425s.252,8.419-1.193,11.5S408.2,255.4,408.2,255.4s1.132-.252,1.072.5-1.4,8.987-1.4,8.987a18.133,18.133,0,0,1-1.006,4.4c-.629,1.137-.69,7.04-.69,7.04l-1.006,4.277s2.385,5.339,6.057,4.585,10.25-15.021,10.25-15.021L425.67,254.8l3.261-15.207.932-10.306,1.51-22.829,2.2-15.081S436.041,183.259,435.155,182.169Z" transform="translate(-14.238 -7.1)" opacity="0.1"/><path d="M434.783,181.433s-1.132-.564-2.2,1.072a7.109,7.109,0,0,1-3.08,2.385s-11.438,1.826-11.876,3.331l-5.344.317s-1.864.252-2.073,4.193-1.193,4.347-1.193,4.347-2.2,3.9-2.013,5.908a3.311,3.311,0,0,1-1.7,3.019l7.855,20.425s.252,8.419-1.193,11.5-4.151,16.717-4.151,16.717,1.132-.247,1.072.5-1.4,8.987-1.4,8.987a18.2,18.2,0,0,1-1.006,4.4c-.629,1.141-.69,7.035-.69,7.035l-1.006,4.277s2.385,5.339,6.033,4.585,10.25-15.021,10.25-15.021l4.193-15.375,3.261-15.212.932-10.306,1.51-22.829,2.2-15.081S435.663,182.5,434.783,181.433Z" transform="translate(-14.238 -7.1)" fill="#65617d"/><path d="M394.435,230.078l-3.648,2.516a42.8,42.8,0,0,1-9.551-.806l-2.031-.9-.405-.177.419.13a8.27,8.27,0,0,0,5.027.177c5.158-1.733,4.589-10.25,4.389-12.179a1.686,1.686,0,0,0-.042-.368h0a.247.247,0,0,0,.028.047,2.694,2.694,0,0,0,.238.331c.07.084.149.168.228.247h0l1.822,3.639v.154Z" transform="translate(-14.238 -7.1)" opacity="0.1"/><path d="M407.066,205.506l-1.756.5-.252,3.583a2.413,2.413,0,0,0-2.642,2.134,8.676,8.676,0,0,1-1.57,3.583s-3.457,2.893-3.643,5.344l-2.115,1.319s-4.967-1.132-6.094-3.14c0,0,2.26,16.214-9.784,12.253,0,0,13.511,5.908,14.14,6.723s4.776,3.205,8.549,1.2a9.06,9.06,0,0,0,4.589-5.092s3.643-5.092,3.769-5.847,2.954-1.631,2.954-1.631l5.358-13.05Z" transform="translate(-14.238 -7.1)" fill="#65617d"/><path d="M451.187,187.718l1.822-8.293s.82,2.7,1.635,3.331l2.7,2.073a15.7,15.7,0,0,0,3.643,1.258c.941,0,6.033,1.318,6.662,2.008s3.145.191,3.145.191,2.073.69,3.895,1.132,2.7,3.452,2.329,4.659a3.62,3.62,0,0,0,.88,3.392c.755.755,1.132,3.205,1.132,3.205a3.7,3.7,0,0,1,2.134,1.822,12.928,12.928,0,0,1,.466,4.4l-9.365,13.194s.126,5.092-.252,6.224,1.319,20.36,1.319,20.36l1.947,33.079a35.194,35.194,0,0,1-3.14,2.451c-.564.252-1.132-11.69-1.132-12.114s-14.546-21.767-14.546-21.767-1.947-3.14-1.947-3.834-1.822-7.04-1.822-7.04L449.929,225.2Z" transform="translate(-14.238 -7.1)" opacity="0.1"/><path d="M482.384,206.168v.717l-9.36,13.19h0s.126,5.092-.252,6.224c-.219.652.261,7.417.7,12.975.317,4.007.615,7.385.615,7.385l.829,14.024,1.118,19.037a35.2,35.2,0,0,1-3.14,2.451c-.564.252-1.132-11.69-1.132-12.114s-14.546-21.73-14.546-21.73-1.947-3.145-1.947-3.834-1.822-7.04-1.822-7.04L450.684,225.2l1.258-37.459,1.067-8.293a18,18,0,0,0,2.39,3.327c.82.624,2.7,2.078,2.7,2.078a15.7,15.7,0,0,0,3.643,1.258c.941,0,6.033,1.319,6.662,2.008s3.145.191,3.145.191,2.073.69,3.895,1.132,2.7,3.457,2.33,4.659a3.625,3.625,0,0,0,.881,3.4c.75.755,1.127,3.205,1.127,3.205a3.7,3.7,0,0,1,2.138,1.826A9.993,9.993,0,0,1,482.384,206.168Z" transform="translate(-14.238 -7.1)" fill="#65617d"/><path d="M405.561,373.623c.312,0,13.511.5,13.26,2.637S405.561,373.623,405.561,373.623Z" transform="translate(-14.238 -7.1)" opacity="0.1"/><path d="M408.515,377.206s8.852,1.444,6.523,2.763S408.515,377.206,408.515,377.206Z" transform="translate(-14.238 -7.1)" opacity="0.1"/><path d="M441.445,372.258s14.709,1.258,12.51,2.889-7.417,1.887-7.669,1.952S441.445,372.258,441.445,372.258Z" transform="translate(-14.238 -7.1)" opacity="0.1"/><path d="M439.684,378.711s8.172,1.4,8.424,2.954S439.684,378.711,439.684,378.711Z" transform="translate(-14.238 -7.1)" opacity="0.1"/><path d="M444.213,340.879s7.454,1.761,7.92,2.954Z" transform="translate(-14.238 -7.1)" opacity="0.1"/><path d="M415.364,346.284s-3.895,1.132-.126,3.392S415.364,346.284,415.364,346.284Z" transform="translate(-14.238 -7.1)" opacity="0.1"/><path d="M432.649,285.889c.438,0,7.287-2.264,9.677-1.258a15.958,15.958,0,0,0,5.344,1.006Z" transform="translate(-14.238 -7.1)" opacity="0.1"/><path d="M433.529,293.054l-.07.624-5.842,15.342s-.932,4.659-1.756,7.287a47.842,47.842,0,0,0-1.23,5.46l5.186-32.147Z" transform="translate(-14.238 -7.1)" opacity="0.1"/><path d="M442.652,265.971l-2.432.042h-.079l-1.426-6.336,2.115-.112Z" transform="translate(-14.238 -7.1)" fill="#3f3d56"/><path d="M472.3,258.3l-1.561,1.291-5.223,4.3s-14.145,7.543-18.04.377c-3.434-6.313,12.579-10.818,16.46-11.8l.825-.2Z" transform="translate(-14.238 -7.1)" fill="#fbbebe"/><path d="M411.907,196.519s2.767,1.258,3.4,3.014S411.907,196.519,411.907,196.519Z" transform="translate(-14.238 -7.1)" opacity="0.1"/><path d="M403.362,215.374s-4.025,4.9-2.39,6.784S403.362,215.374,403.362,215.374Z" transform="translate(-14.238 -7.1)" opacity="0.1"/><path d="M475.256,199.282s-3.769.377-3.895,3.648Z" transform="translate(-14.238 -7.1)" opacity="0.1"/><path d="M440.313,250.82c.377-.377,9.053-13.2,11.061-12.067Z" transform="translate(-14.238 -7.1)" opacity="0.1"/><path d="M456.531,167.479a14.909,14.909,0,0,1-1.77,7.063h-.112c-.932-.2-1.44-1.3-2.166-2a2.944,2.944,0,0,0-3.392-.466,3.448,3.448,0,0,0-1.668,3.224c-.466-2.013-.326-4.151-.8-6.169s-1.864-4.058-3.8-4.091c-.829,0-1.8.307-2.4-.317-.363-.373-.438-.964-.708-1.421-1.4-2.227-5.568-1.1-7.277.042s-3.7,2.968-5.828,3.946a14.959,14.959,0,1,1,29.918.214Z" transform="translate(-14.238 -7.1)" opacity="0.1"/><path d="M439.721,162.9c.27.466.345,1.048.708,1.421.6.624,1.565.3,2.4.317,1.924.033,3.331,2.073,3.8,4.091s.317,4.156.8,6.173a3.438,3.438,0,0,1,1.668-3.224,2.954,2.954,0,0,1,3.392.466c.727.694,1.221,1.8,2.167,1.994s1.864-.708,2.2-1.705a27.817,27.817,0,0,0,.545-3.131c.424-1.961,1.705-3.569,2.413-5.432a9.831,9.831,0,0,0-.065-7.021c-.466-1.179-1.174-2.241-1.649-3.42-.722-1.794-.932-3.816-1.794-5.521a6.509,6.509,0,0,0-7.827-3.21c-1.37.512-2.553,1.5-3.942,1.952-1.864.6-3.844.149-5.763-.121s-4.049-.294-5.591.974c-1.78,1.454-2.264,4.193-3.937,5.787-.7.671-1.575,1.1-2.33,1.719a3.068,3.068,0,0,0-1.291,2.553c.107,1.3,1.4,2.483.932,3.69a2.93,2.93,0,0,1-.7.932,13.133,13.133,0,0,0-3.042,5.176c3.364,1.053,6.989-2.656,9.635-4.407C434.154,161.8,438.342,160.672,439.721,162.9Z" transform="translate(-14.238 -7.1)" fill="#3f3d56"/><path d="M472.3,258.3l-1.561,1.291c-1.4-2.3-7.044-6.886-7.044-6.886l.242-.238.825-.2Z" transform="translate(-14.238 -7.1)" opacity="0.1"/><path d="M473.826,255.973s-.559,1.4-1.141,2.609-1.216,2.33-1.244,1.4c-.065-1.761-7.352-7.669-7.352-7.669l.988-.96,1.146-1.114Z" transform="translate(-14.238 -7.1)" fill="#e7effd"/><path d="M474.063,246.669l.829,14.024c-1.957-3.033-7.315-10.818-10.758-10.567l8.358-9.616a11.118,11.118,0,0,0,.955-1.225C473.765,243.291,474.063,246.669,474.063,246.669Z" transform="translate(-14.238 -7.1)" opacity="0.1"/><path d="M473.826,255.973s-.559,1.4-1.141,2.609c-2.19-3.005-5.2-6.555-7.608-7.217l1.146-1.114Z" transform="translate(-14.238 -7.1)" opacity="0.1"/><path d="M480.1,205.129l2.264,1.761s3.769.061,4.147,3.205,3.834,4.585,3.834,4.585,2.576,2.576,2.576,3.774,1.948,3.331,1.948,3.518,1.864,4.021,1.635,4.715,2.008,3.727,1.319,4.836a28.342,28.342,0,0,0-1.509,3.145s-2.954,5.656-4.459,6.723-8.424,10.059-8.424,10.059-7.417,8.545-7.417,11.182c0,0-7.226-12.067-11.5-11.755l8.382-9.612s1.444-1.57,1.51-2.511,4.021-5.279,5.908-5.47c0,0,.312-2.576-.5-2.637s-1.51-2.078-1.51-2.078-5.53-6.523-5.591-10.683S480.1,205.129,480.1,205.129Z" transform="translate(-14.238 -7.1)" fill="#65617d"/><path d="M483.428,211.1s-5.279,3.9-4.147,5.153S483.428,211.1,483.428,211.1Z" transform="translate(-14.238 -7.1)" opacity="0.1"/><path d="M483.679,227.189s9.784-3.145,10.809,0Z" transform="translate(-14.238 -7.1)" opacity="0.1"/><path d="M422.972,394.156s-5.283,3.457-7.92,2.949a9.44,9.44,0,0,0-5.344.885,15.911,15.911,0,0,1-6.662,4.338c-4.272,1.444-10.25.876-13.637-.256-1.607-.536-1.733-1.225-.96-2.078,3.685.736,11.932,2.2,14.159,1.137a60.866,60.866,0,0,0,7.035-4.4s5.409-.713,6.164-.713a67.587,67.587,0,0,0,7.063-2.712Z" transform="translate(-14.238 -7.1)" opacity="0.1"/><path d="M454.947,401.242c-.033.214-.051.349-.051.349s-1.258,2.763-8.233,3.769-6.989-2.33-6.989-2.33.028-.359.075-.9C441.962,402.975,446.8,403.912,454.947,401.242Z" transform="translate(-14.238 -7.1)" opacity="0.1"/><path d="M414.516,210.342s0,14.331-1.225,15.748S414.516,210.342,414.516,210.342Z" transform="translate(-14.238 -7.1)" opacity="0.1"/><path d="M471.174,214.964,473,220.089S473.718,215.057,471.174,214.964Z" transform="translate(-14.238 -7.1)" opacity="0.1"/><g opacity="0.1"><path d="M426.732,160.029c.466-1.179-.741-2.33-.9-3.6a2.329,2.329,0,0,0-.2,1.137c.079.955.783,1.84.969,2.721a1.649,1.649,0,0,0,.13-.256Z" transform="translate(-14.238 -7.1)"/><path d="M447.59,173.568c-.466-1.985-.317-4.081-.773-6.057s-1.864-4.058-3.8-4.091c-.829,0-1.8.307-2.4-.317-.363-.373-.433-.964-.708-1.421-1.4-2.227-5.563-1.1-7.277.042-2.572,1.71-6.1,5.283-9.4,4.473-.158.382-.307.764-.429,1.16,3.364,1.053,6.989-2.656,9.635-4.407,1.715-1.141,5.9-2.269,7.282-.042.27.466.345,1.048.708,1.421.6.624,1.565.3,2.4.317,1.924.033,3.331,2.073,3.8,4.091s.317,4.156.8,6.173a3.568,3.568,0,0,1,.168-1.342Z" transform="translate(-14.238 -7.1)"/><path d="M457.053,171.211c-.345,1-1.239,1.91-2.208,1.705s-1.44-1.3-2.162-1.994a2.954,2.954,0,0,0-3.392-.466,3.41,3.41,0,0,0-1.668,3.042,3.262,3.262,0,0,1,1.477-1.817,2.954,2.954,0,0,1,3.392.466c.727.694,1.221,1.8,2.166,1.994s1.864-.708,2.2-1.705a8.433,8.433,0,0,0,.345-1.808,5.114,5.114,0,0,1-.154.582Z" transform="translate(-14.238 -7.1)"/><path d="M460,162.647c-.708,1.864-1.985,3.471-2.413,5.432-.084.4-.135.8-.182,1.207.429-1.952,1.7-3.56,2.409-5.414a9.785,9.785,0,0,0,.582-2.609,10,10,0,0,1-.4,1.384Z" transform="translate(-14.238 -7.1)"/></g></g></svg>