<svg xmlns="http://www.w3.org/2000/svg" xmlns:xlink="http://www.w3.org/1999/xlink" width="480.786" height="366.694" viewBox="0 0 480.786 366.694"><defs><linearGradient id="a" x1="0.5" y1="1" x2="0.5" gradientUnits="objectBoundingBox"><stop offset="0" stop-color="gray" stop-opacity="0.251"/><stop offset="0.54" stop-color="gray" stop-opacity="0.122"/><stop offset="1" stop-color="gray" stop-opacity="0.102"/></linearGradient></defs><g transform="translate(-27.606 -2.788)"><path d="M158.8,40.755c16.311-14.693,41.919-17.685,65.225-16.515,73.206,3.674,139.288,39.36,196.449,79.726,20.693,14.614,41.066,30.376,54.51,50.486,27.347,40.966,19.232,97.719-18.787,131.465-12.937,11.485-28.62,20.285-44.719,28.091-28.624,13.873-59.5,25.008-92,28.179-23.169,2.259-46.6.416-69.656-2.73-64.351-8.813-127.516-28.3-180.462-61.642-23.231-14.622-45.119-32.8-54.689-56.47s-3.445-53.632,20.264-67.634c9.808-5.792,21.529-8.405,33.01-10.865,16.9-3.612,34.063-7.178,49.313-14.526,15.75-7.59,34.4-22.27,31.279-39.073C145.189,71.235,142.5,55.4,158.8,40.755Z" transform="translate(17.262 -5.684)" fill="#e74c3c" opacity="0.1"/><path d="M129.426,231.747s4.811-3.447,9.788-1.317c0,0-1.392,2.96-7.594,2.923Z" transform="translate(-10.345 -24.011)" fill="#e74c3c"/><path d="M128.828,231.947s-1.285,5.775,2.63,9.524c0,0,2.171-2.445-.3-8.132Z" transform="translate(-10.345 -24.011)" fill="#e74c3c"/><path d="M122.468,226.691s.176-4.876,11.217-3.683c0,0,.172,3.136-3.623,4.769S124.449,228.236,122.468,226.691Z" transform="translate(-10.345 -24.011)" fill="#e74c3c"/><path d="M121.786,226.682s-4.588,1.67-.051,11.811c0,0,3.034-.8,3.419-4.917S123.86,228.1,121.786,226.682Z" transform="translate(-10.345 -24.011)" fill="#e74c3c"/><path d="M115.305,220.025s-.928-7.979,10.317-7.589c0,0,1.072,7.214-8.262,9.436Z" transform="translate(-10.345 -24.011)" fill="#e74c3c"/><path d="M107.545,211.276s1.192-9.125,12.525-6.856c0,0,.343,7.84-10.6,8.949Z" transform="translate(-10.345 -24.011)" fill="#e74c3c"/><path d="M101.769,202.142s2.236-8.949,13.453-6.713c0,0-2.319,8.049-12.65,8.318Z" transform="translate(-10.345 -24.011)" fill="#e74c3c"/><path d="M96.272,193.221s2.166-9.278,12.989-6.921c0,0-3.247,8.846-12.233,8.457Z" transform="translate(-10.345 -24.011)" fill="#e74c3c"/><path d="M92.621,184.685s1.508-11.287,11.6-9.19c0,0-2.514,10.312-10.809,10.79Z" transform="translate(-10.345 -24.011)" fill="#e74c3c"/><path d="M89.109,174.336S91,162.947,101.24,165.847c0,0-3.563,10.832-11.365,10.025Z" transform="translate(-10.345 -24.011)" fill="#e74c3c"/><path d="M86.808,164.682s3.247-11.44,11.1-11.435c0,0-3.317,12.061-10.354,13.676Z" transform="translate(-10.345 -24.011)" fill="#e74c3c"/><path d="M85.222,155.21s3.493-13.759,9.9-12.952c0,0-2.38,10.5-9.6,15.063Z" transform="translate(-10.345 -24.011)" fill="#e74c3c"/><path d="M84.095,143.881s3.326-11.477,9.6-12.173c0,0-2.134,11.249-9.347,15.114Z" transform="translate(-10.345 -24.011)" fill="#e74c3c"/><path d="M82.926,133.342s4.259-11.528,8.406-11.945c0,0-1.61,11.249-7.919,13.792Z" transform="translate(-10.345 -24.011)" fill="#e74c3c"/><path d="M82.03,123.516s2.412-12.437,6.522-13.615c0,0-.181,10.1-6.072,14.52Z" transform="translate(-10.345 -24.011)" fill="#e74c3c"/><path d="M79.975,110.694s2.658-9.937,5.961-11.565c0,0-.223,11.6-5.1,13.917Z" transform="translate(-10.345 -24.011)" fill="#e74c3c"/><path d="M78.352,102.279,77.076,84.985s6.773,12.831,1.856,20.332Z" transform="translate(-10.345 -24.011)" fill="#e74c3c"/><path d="M72.831,85.254S67.826,72.78,66.713,72.117c0,0,9.185,7.886,8.721,18.454Z" transform="translate(-10.345 -24.011)" fill="#e74c3c"/><path d="M115,219.978s-8-.738-7.33,10.5c0,0,7.237.9,9.227-8.494Z" transform="translate(-10.345 -24.011)" fill="#e74c3c"/><path d="M107.159,210.988s-9.194.32-8.007,11.8c0,0,7.77,1.086,9.909-9.7Z" transform="translate(-10.345 -24.011)" fill="#e74c3c"/><path d="M101.709,202.893s-8.5-3.6-13.453,6.713c0,0,7.835,2.964,14.251-5.1Z" transform="translate(-10.345 -24.011)" fill="#e74c3c"/><path d="M96.086,193.314s-8.7-3.841-13.346,6.225c0,0,9.023,2.723,14.112-4.695Z" transform="translate(-10.345 -24.011)" fill="#e74c3c"/><path d="M92.737,184.922s-8.526-7.543-14.784.659c0,0,8.652,6.142,15.23,1.076Z" transform="translate(-10.345 -24.011)" fill="#e74c3c"/><path d="M89.564,174.048s-8.582-7.719-14.775.928c0,0,9.542,6.239,15.137.738Z" transform="translate(-10.345 -24.011)" fill="#e74c3c"/><path d="M87.643,164.316s-6.759-9.788-14.181-7.265c0,0,7.023,10.373,14.2,9.626Z" transform="translate(-10.345 -24.011)" fill="#e74c3c"/><path d="M85.412,155.14s-6.917-12.4-12.9-9.969c0,0,5,9.538,13.142,12.084Z" transform="translate(-10.345 -24.011)" fill="#e74c3c"/><path d="M84.508,143.218s-6.986-9.7-13.124-8.243c0,0,5.785,9.881,13.875,11.1Z" transform="translate(-10.345 -24.011)" fill="#e74c3c"/><path d="M83.617,133.091s-5.544-10.966-9.709-10.906c0,0,2.881,10.994,9.436,12.794Z" transform="translate(-10.345 -24.011)" fill="#e74c3c"/><path d="M82.225,123.266s-6.123-11.087-10.4-10.948c0,0,3.284,9.556,10.247,11.95Z" transform="translate(-10.345 -24.011)" fill="#e74c3c"/><path d="M80.912,111.335s-4.616-9.194-8.178-10.118c0,0,2.565,11.319,7.8,12.618Z" transform="translate(-10.345 -24.011)" fill="#e74c3c"/><path d="M77.832,101.973,67.77,87.852s2.983,14.2,11.556,16.83Z" transform="translate(-10.345 -24.011)" fill="#e74c3c"/><path d="M70.7,86.5s-11.324-7.2-11.788-8.424c0,0,6.031,10.475,16.542,11.959Z" transform="translate(-10.345 -24.011)" fill="#e74c3c"/><path d="M69.909,83.1S56.753,71.384,53.515,71.523c0,0,10.484.074,16.7,10.915Z" transform="translate(-10.345 -24.011)" fill="#e74c3c"/><path d="M80.857,113.19l-.464.079c-3.1-18.579-7-29.476-10.98-30.691l.135-.464C73.759,83.394,77.684,94.133,80.857,113.19Z" transform="translate(-10.345 -24.011)" fill="#444053"/><path d="M86.076,157.668l-.7.083c-.213-1.735-.4-3.516-.543-5.288C83.58,137.039,82,122.89,80.24,112.3l.385-.515c1.767,10.6,3.651,25.171,4.913,40.619C85.681,154.17,85.862,155.938,86.076,157.668Z" transform="translate(-10.345 -24.011)" fill="#444053"/><path d="M142.8,240.135c-.125-.051-12.632-5.07-25.9-17.679a101.426,101.426,0,0,1-19.409-25.375c-6.36-11.788-10.521-26.419-12.279-40.716l.742.315c3.943,32.092,19.446,53.543,31.545,65.07,13.137,12.5,25.514,17.466,25.63,17.512Z" transform="translate(-10.345 -24.011)" fill="#444053"/><g opacity="0.7"><path d="M148.836,202.355s5.618-1.856,9.742,1.656c0,0-2.213,2.412-8.123.529Z" transform="translate(-10.345 -24.011)" fill="#e74c3c"/><path d="M148.2,202.364s-2.941,5.135-.32,9.872c0,0,2.783-1.684,2.139-7.849Z" transform="translate(-10.345 -24.011)" fill="#e74c3c"/><path d="M143.691,195.457s1.624-4.6,11.806-.181c0,0-.765,3.048-4.88,3.475S145.129,197.512,143.691,195.457Z" transform="translate(-10.345 -24.011)" fill="#e74c3c"/><path d="M143.046,195.248s-4.871.232-3.563,11.259c0,0,3.141.139,4.732-3.679S144.605,197.215,143.046,195.248Z" transform="translate(-10.345 -24.011)" fill="#e74c3c"/><path d="M138.843,186.949s1.48-7.886,12.1-4.175c0,0-1.118,7.2-10.693,6.55Z" transform="translate(-10.345 -24.011)" fill="#e74c3c"/><path d="M134.038,176.28s3.85-8.35,13.982-2.82c0,0-2,7.585-12.78,5.39Z" transform="translate(-10.345 -24.011)" fill="#e74c3c"/><path d="M131.236,165.865s4.8-7.886,14.845-2.408c0,0-4.639,6.986-14.552,4.175Z" transform="translate(-10.345 -24.011)" fill="#e74c3c"/><path d="M128.642,155.711s4.824-8.2,14.469-2.742c0,0-5.729,7.478-14.191,4.435Z" transform="translate(-10.345 -24.011)" fill="#e74c3c"/><path d="M127.7,146.475s4.8-10.326,13.815-5.316c0,0-5.469,9.092-13.527,7.084Z" transform="translate(-10.345 -24.011)" fill="#e74c3c"/><path d="M127.427,135.55s5.191-10.312,14.1-4.5c0,0-6.62,9.278-13.829,6.188Z" transform="translate(-10.345 -24.011)" fill="#e74c3c"/><path d="M128.109,125.636s6.495-9.955,13.991-7.617c0,0-6.759,10.544-13.954,9.978Z" transform="translate(-10.345 -24.011)" fill="#e74c3c"/><path d="M129.426,116.131s7.422-12.094,13.309-9.417c0,0-5.4,9.32-13.643,11.523Z" transform="translate(-10.345 -24.011)" fill="#e74c3c"/><path d="M131.695,104.984s6.6-9.969,12.785-8.768c0,0-5.381,10.108-13.416,11.648Z" transform="translate(-10.345 -24.011)" fill="#e74c3c"/><path d="M133.722,94.569s7.492-9.742,11.574-8.9c0,0-4.885,10.261-11.662,10.8Z" transform="translate(-10.345 -24.011)" fill="#e74c3c"/><path d="M135.786,84.925s6-11.133,10.28-11.059c0,0-3.182,9.589-10.118,12.061Z" transform="translate(-10.345 -24.011)" fill="#e74c3c"/><path d="M137.637,72.071s5.5-8.693,9.134-9.278c0,0-3.665,11.013-9.009,11.788Z" transform="translate(-10.345 -24.011)" fill="#e74c3c"/><path d="M138.593,63.553l3.929-16.9s2.649,14.265-4.282,19.947Z" transform="translate(-10.345 -24.011)" fill="#e74c3c"/><path d="M138.4,45.661s-1.072-13.4-1.934-14.381c0,0,6.43,10.243,2.839,20.216Z" transform="translate(-10.345 -24.011)" fill="#e74c3c"/><path d="M138.56,186.824s-7.422-3.08-10.118,7.849c0,0,6.638,3.006,11.333-5.367Z" transform="translate(-10.345 -24.011)" fill="#e74c3c"/><path d="M133.75,175.909s-8.874-2.426-11.157,8.888c0,0,7.1,3.349,12.349-6.314Z" transform="translate(-10.345 -24.011)" fill="#e74c3c"/><path d="M130.957,166.561s-7.042-5.961-14.845,2.408c0,0,6.6,5.163,15.128-.64Z" transform="translate(-10.345 -24.011)" fill="#e74c3c"/><path d="M128.443,155.743s-7.172-6.253-14.594,1.972c0,0,7.8,5.288,14.868-.278Z" transform="translate(-10.345 -24.011)" fill="#e74c3c"/><path d="M127.742,146.739s-5.9-9.742-14.316-3.776c0,0,6.434,8.443,14.223,5.567Z" transform="translate(-10.345 -24.011)" fill="#e74c3c"/><path d="M127.947,135.411s-5.9-9.923-14.381-3.5c0,0,7.255,8.814,14.228,5.21Z" transform="translate(-10.345 -24.011)" fill="#e74c3c"/><path d="M129,125.544s-3.54-11.351-11.375-11.133c0,0,3.618,12,10.693,13.416Z" transform="translate(-10.345 -24.011)" fill="#e74c3c"/><path d="M129.6,116.122s-2.913-13.894-9.347-13.356c0,0,1.939,10.6,8.953,15.452Z" transform="translate(-10.345 -24.011)" fill="#e74c3c"/><path d="M132.293,104.474s-3.785-11.338-10.08-11.778c0,0,2.584,11.157,9.946,14.729Z" transform="translate(-10.345 -24.011)" fill="#e74c3c"/><path d="M134.455,94.537s-2.032-12.117-6.031-13.3c0,0-.515,11.351,5.2,15.026Z" transform="translate(-10.345 -24.011)" fill="#e74c3c"/><path d="M136.046,84.744S133.5,72.335,129.375,71.2c0,0,.292,10.1,6.23,14.455Z" transform="translate(-10.345 -24.011)" fill="#e74c3c"/><path d="M138.338,72.98s-1.67-10.15-4.8-12.094c0,0-.928,11.57,3.711,14.381Z" transform="translate(-10.345 -24.011)" fill="#e74c3c"/><path d="M138.189,63.09,132.78,46.612s-1.392,14.446,6.031,19.507Z" transform="translate(-10.345 -24.011)" fill="#e74c3c"/><path d="M135.986,46.218s-8.689-10.257-8.754-11.551c0,0,2.658,11.8,12.233,16.338Z" transform="translate(-10.345 -24.011)" fill="#e74c3c"/><path d="M136.241,42.734s-9.078-15.1-12.21-15.935c0,0,9.983,3.2,12.674,15.383Z" transform="translate(-10.345 -24.011)" fill="#e74c3c"/><path d="M137.744,74.687l-.464-.065c2.565-18.653,2.088-30.223-1.355-32.565l.264-.385C139.841,44.163,140.374,55.579,137.744,74.687Z" transform="translate(-10.345 -24.011)" fill="#444053"/><path d="M129.487,118.757l-.691-.125c.315-1.721.668-3.475,1.058-5.214,3.391-15.1,6.1-29.072,7.557-39.7l.524-.38c-1.466,10.67-4,25.12-7.394,40.243C130.15,115.278,129.8,117.022,129.487,118.757Z" transform="translate(-10.345 -24.011)" fill="#444053"/><path d="M159.116,214.342c-.1-.083-10.549-8.6-19.484-24.586a101.347,101.347,0,0,1-10.976-30c-2.565-13.147-2.19-28.353.39-42.525l.612.52c-5.775,31.814,2.644,56.91,10.781,71.519,8.814,15.837,19.15,24.262,19.256,24.345Z" transform="translate(-10.345 -24.011)" fill="#444053"/></g><path d="M480.9,373.838s-19.613-1.183-17.3,12.562a3.344,3.344,0,0,0,1.74,3.53s.037-1.021,2.013-.673a8.981,8.981,0,0,0,2.129.1,4.463,4.463,0,0,0,2.607-1.076h0s5.511-2.278,7.654-11.287c0,0,1.587-1.967,1.526-2.473l-3.312,1.392a5.927,5.927,0,0,1,.241,4.37s-.107-4.282-.742-4.175c-.13.023-1.721.83-1.721.83s1.948,4.175.464,7.181c0,0,.557-5.126-1.085-6.884l-2.319,1.364s2.273,4.3.733,7.8c0,0,.394-5.377-1.225-7.469l-2.111,1.647s2.139,4.235.835,7.139c0,0-.172-6.258-1.29-6.731a12.146,12.146,0,0,0-2.129,2.319s1.461,3.071.557,4.695c0,0-.557-4.175-1.016-4.175,0,0-1.856,2.76-2.032,4.639a10.021,10.021,0,0,1,1.587-4.917A5.516,5.516,0,0,0,463.885,385s.288-1.953,3.247-2.125a12.875,12.875,0,0,1,1.93-2.222,12.137,12.137,0,0,0-4.773.552s1.587-1.856,5.316-1.007l2.083-1.7s-3.911-.534-5.567.056c0,0,1.907-1.628,6.128-.441l2.268-1.355a20.655,20.655,0,0,0-5.316-.464s2.1-1.132,5.984.093l1.624-.728s-2.445-.464-3.159-.557-.752-.274-.752-.274a8.452,8.452,0,0,1,4.583.51S480.956,374.056,480.9,373.838Z" transform="translate(-10.345 -24.011)" fill="#e74c3c"/><ellipse cx="13.88" cy="2.347" rx="13.88" ry="2.347" transform="translate(443.162 364.769)" fill="#e74c3c" opacity="0.1"/><path d="M518.517,337.622s-11.055-.663-9.742,7.084a1.888,1.888,0,0,0,.979,1.99s.023-.575,1.137-.38a4.927,4.927,0,0,0,1.2.06,2.482,2.482,0,0,0,1.466-.608h0s3.108-1.285,4.319-6.365c0,0,.9-1.109.858-1.392l-1.856.8a3.349,3.349,0,0,1,.135,2.463s-.06-2.417-.418-2.357c-.074,0-.97.464-.97.464s1.095,2.347.269,4.05c0,0,.315-2.89-.612-3.878l-1.313.765s1.28,2.422.413,4.4c0,0,.223-3.029-.691-4.212l-1.188.928s1.2,2.389.464,4.027c0,0-.1-3.526-.728-3.795a7.419,7.419,0,0,0-1.2,1.294s.826,1.735.315,2.649c0,0-.315-2.352-.571-2.361a7.793,7.793,0,0,0-1.146,2.626,5.668,5.668,0,0,1,.9-2.783,3.127,3.127,0,0,0-1.591.821s.162-1.1,1.856-1.2a7.221,7.221,0,0,1,1.085-1.253,6.835,6.835,0,0,0-2.691.311s.9-1.039,3-.571l1.178-.956a9.7,9.7,0,0,0-3.141.032s1.076-.928,3.456-.25l1.28-.765a11.7,11.7,0,0,0-3-.26,4.6,4.6,0,0,1,3.372.056l.928-.413s-1.392-.269-1.781-.311-.427-.158-.427-.158a4.787,4.787,0,0,1,2.589.288A11.039,11.039,0,0,0,518.517,337.622Z" transform="translate(-10.345 -24.011)" fill="#e74c3c"/><ellipse cx="7.826" cy="1.322" rx="7.826" ry="1.322" transform="translate(492.734 322.04)" fill="#e74c3c" opacity="0.1"/><path d="M453.252,344.348s-13.351-.807-11.774,8.55a2.278,2.278,0,0,0,1.183,2.4s0-.691,1.368-.464a6.366,6.366,0,0,0,1.452.074,3.053,3.053,0,0,0,1.772-.733h0s3.753-1.549,5.214-7.687c0,0,1.081-1.336,1.034-1.679l-2.25.96a4.04,4.04,0,0,1,.162,2.978s-.07-2.918-.506-2.848c-.088,0-1.169.561-1.169.561s1.322,2.834.325,4.889c0,0,.38-3.488-.738-4.685l-1.587.928s1.545,2.923.5,5.312c0,0,.269-3.66-.83-5.1l-1.438,1.118s1.457,2.881.571,4.862c0,0-.116-4.259-.881-4.583a8.733,8.733,0,0,0-1.447,1.563s.993,2.092.376,3.2c0,0-.376-2.834-.687-2.848a9.555,9.555,0,0,0-1.392,3.168,6.852,6.852,0,0,1,1.081-3.349,3.771,3.771,0,0,0-1.916.993s.195-1.331,2.227-1.447a8.723,8.723,0,0,1,1.313-1.512,8.26,8.26,0,0,0-3.247.376s1.076-1.257,3.614-.687L447,347.5a11.666,11.666,0,0,0-3.79.037s1.3-1.109,4.175-.3l1.545-.928a13.966,13.966,0,0,0-3.623-.315s1.429-.765,4.073.065l1.109-.455s-1.661-.325-2.148-.376-.51-.186-.51-.186a5.766,5.766,0,0,1,3.122.348A13.96,13.96,0,0,0,453.252,344.348Z" transform="translate(-10.345 -24.011)" fill="#e74c3c"/><ellipse cx="9.45" cy="1.596" rx="9.45" ry="1.596" transform="translate(424.263 330.51)" fill="#e74c3c" opacity="0.1"/><path d="M341.6,349.2l-46.533,18-68.016,26.289c-2.565-4.764-6.351-11.282-11.036-19.02-16.106-26.7-42.762-68.22-66.485-104.71-26.739-41.115-49.748-75.833-49.748-75.833l16.658-4.829,136.069-39.463Z" transform="translate(-10.345 -24.011)" opacity="0.1"/><path d="M342.525,345.954l-46.533,18-68.016,26.289c-2.565-4.764-6.351-11.282-11.036-19.02-16.106-26.7-42.762-68.22-66.485-104.71-26.739-41.115-49.748-75.833-49.748-75.833l16.658-4.829,136.069-39.463Z" transform="translate(-10.345 -24.011)" fill="#fff"/><path d="M342.525,345.954l-46.533,18a349.963,349.963,0,0,1-79.052,7.269c-16.106-26.7-42.762-68.22-66.485-104.71l-33.09-80.662,136.069-39.463Z" transform="translate(-10.345 -24.011)" opacity="0.1"/><path d="M377.146,334.755s-72.293,42.762-180.223,33.113L110.871,158.1l41.236-7.084,142.545-24.48L375.531,330.7Z" transform="translate(-10.345 -24.011)" fill="#e74c3c"/><path d="M375.531,330.7A342.251,342.251,0,0,1,319,329.1c-21.441-2.514-42.984-7.719-61.494-17.248-15.457-7.965-28.673-16.617-40.2-27-29.972-26.962-48.523-65.53-65.182-133.829l142.545-24.48Z" transform="translate(-10.345 -24.011)" opacity="0.1"/><path d="M428.559,318.973s-53.311,10.447-107.521,4.013c-21.441-2.528-43.008-7.719-61.494-17.248-15.457-7.965-28.673-16.617-40.2-27-37.112-33.4-56.692-84.531-76.89-187.835,0,0,88.6,21.381,176.145-25.454C318.6,65.446,348.125,249.737,428.559,318.973Z" transform="translate(-10.345 -24.011)" fill="#fff"/><path d="M321.038,322.986c-21.441-2.528-43.008-7.719-61.494-17.248-15.457-7.965-28.673-16.617-40.2-27,31.587-2.565,36.128-19.836,36.128-19.836C278.888,296.066,321.038,322.986,321.038,322.986Z" transform="translate(-10.345 -24.011)" opacity="0.1"/><path d="M188.271,128.828s47.6,5.432,92.143-19.6l3.052,9.8s-42.618,21.251-95.2,21.251Z" transform="translate(-10.345 -24.011)" fill="#e74c3c" opacity="0.3"/><path d="M188.271,177.207s47.317-3.818,99.992-29.276L290.045,152s-19.386,24.4-101.774,30.77Z" transform="translate(-10.345 -24.011)" opacity="0.3"/><path d="M193.88,196.079s47.317-3.818,99.992-29.272l1.781,4.073s-19.382,24.419-101.774,30.8Z" transform="translate(-10.345 -24.011)" opacity="0.3"/><path d="M199.01,216.42S246.328,212.6,299,187.149l1.781,4.073s-19.409,24.405-101.774,30.8Z" transform="translate(-10.345 -24.011)" opacity="0.3"/><path d="M205.1,233.854s47.317-3.818,99.992-29.272l1.781,4.073s-19.382,24.41-101.774,30.8Z" transform="translate(-10.345 -24.011)" opacity="0.3"/><path d="M210.715,252.743s47.317-3.818,99.992-29.272l1.781,4.073s-19.386,24.41-101.774,30.8Z" transform="translate(-10.345 -24.011)" opacity="0.1"/><rect width="13.986" height="13.986" transform="translate(285.736 115.723) rotate(-18.8)" fill="#e74c3c" opacity="0.3"/><rect width="13.986" height="13.986" transform="translate(293.268 135.42) rotate(-18.8)" fill="#e74c3c" opacity="0.3"/><rect width="13.986" height="13.986" transform="translate(305.343 173.32) rotate(-18.8)" fill="#e74c3c" opacity="0.3"/><rect width="13.986" height="13.986" transform="translate(312.272 193.662) rotate(-18.8)" fill="#e74c3c" opacity="0.3"/><rect width="13.986" height="13.986" transform="translate(299.41 155.883) rotate(-18.8)" fill="#e74c3c" opacity="0.3"/><path d="M461.435,232.564l-.5-.464c1.28-.26,2.486-.376,2.486-.376s-4.393-15.893-11.8-21.2c-3.665-2.621-6.717-6.986-8.874-10.73a162.229,162.229,0,0,0-13.216-19.377l-1.336-1.684-.575-.733c.8-1.215,1.786-2.37,1.675-3.781a.061.061,0,0,1,0-.028,1.772,1.772,0,0,0,0-.223,2.59,2.59,0,0,0-.093-.515l-.051.079c-.626-1.818-3.034-2.621-4.82-3.623-4.175-2.352-5.961-7.492-6.852-12.27-.7-3.711-1.271-7.886-4.175-10.275-1.856-1.535-4.379-2.041-6.249-3.567-1.772-1.447-2.76-3.642-3.873-5.66a22.668,22.668,0,0,0-7.538-8.5,12.573,12.573,0,0,0-10.888-1.438c-1.359.52-2.593,1.327-3.938,1.888-3.34,1.392-7.167,1.206-10.475,2.677-4.073,1.809-6.722,5.808-9.143,9.6a45.688,45.688,0,0,0-4.337,7.724v-.3a11.05,11.05,0,0,0-.863,4.017,6.032,6.032,0,0,0,.19,1.744c.5,1.856,1.995,2.881,3.767,3.6a15.7,15.7,0,0,0,.408,1.749,17.164,17.164,0,0,0,11.087,11.324c.153.056.311.093.464.139a3.684,3.684,0,0,0,.552,1.021c1.48,1.856,4.449,1.327,6.379-.023.079-.051.153-.116.227-.172a6.944,6.944,0,0,0,.084.784c.042.223.074.464.121.663,1.74,9.375,6.193,14.436,6.193,14.436s.413.622,1.086,1.651c-.353,5.172,2.009,9.886,4.736,13.527-2.352,1.359-7.422,4.022-10.558,3.8,0,0-11.523,1.489-12.859.742-.186-.1-.362.037-.529.353-3.173-1.934-13.318-7.51-14.186-.353-.784,6.495,8.461,7.325,12.864,7.357-.2,1.9-.311,3.424-.311,3.424l18.931-1.294,9.858-1.452a11.862,11.862,0,0,1-3.521,3.354s-8.911,7.214-10.452,7.278c-.218,0-.288.218-.255.566-3.748,0-15.406.543-12.173,7.037,2.936,5.887,11.2,1.814,14.942-.436.881,1.712,1.633,3.052,1.633,3.052L399.955,226.8l3.308-2.783a11.773,11.773,0,0,0,3.289-.636.383.383,0,0,0,.046.121,6.275,6.275,0,0,1,.264,1.048c.928,5.33-2.19,17.762-2.19,17.762s-6.856,17.484-3.563,19.869.858,12.446.858,12.446a18.6,18.6,0,0,0,1.976,2.728h0a8.29,8.29,0,0,0,1.155,1.1,10.733,10.733,0,0,0-.38,1.276,10.4,10.4,0,0,0,.543,6.42c2.264,5.493.886,13.453.886,13.453L401.7,329.624c-2.134-.325-4.889-.594-5.915,0-1.573.886-1.058,5.353,2.593,7.274a9.4,9.4,0,0,1-3.758,1.73c-3.247.742-5.53,1.215-7.033,1.5-.1,0-7.793-1.7-9.77-.575s-1.025,7.348,4.6,8.874c5.5,1.489,26.02,3.674,31.93,2.783l.376-.065c5.024-.993.612-7.594.056-8.4-.037-.269-.07-.552-.107-.858-.079-.687-.148-1.475-.2-2.319,5.6.515,11.133.765,13.671.385a1.473,1.473,0,0,0,.334-.06c4.449-.881.552-6.717.051-7.422q-.033-.269-.07-.571v-.051c0-.135-.032-.278-.046-.418a1.8,1.8,0,0,0-.037-.362c-.037-.125,0-.223-.032-.339q-.028-.343-.056-.71v-.3c0-.186-.023-.371-.032-.561v-.311c0-.278,0-.566-.028-.854v-2.268c0-.311.028-.631.046-.951l.028-.343c0-.237.037-.464.06-.705a1.113,1.113,0,0,1,.037-.348c.037-.325.079-.649.125-.979a2.132,2.132,0,0,1,.046-.292c.042-.246.083-.5.13-.747a1.813,1.813,0,0,1,.074-.371q.083-.4.181-.807a.965.965,0,0,1,.051-.223c.083-.325.176-.645.274-.965.032-.111.07-.223.107-.334.079-.241.162-.464.25-.714l.111-.3c.125-.315.26-.626.4-.928.037-.079.079-.158.121-.237.116-.241.241-.464.371-.714l.158-.274c.176-.3.357-.594.557-.877,5.1-7.274,6.448-21.3,6.323-24.354s.608-9.385,1.522-10.322a80.564,80.564,0,0,0,6.3-9.324c.385-.687.719-1.331.983-1.907,1.512-.524,2.514-.928,2.514-.928h0a21.509,21.509,0,0,1-.761-5.98,18.125,18.125,0,0,1,5.6-13.369c6.615-6.235,7.538-12.414,7.626-14.789v-.441C461.458,232.777,461.435,232.564,461.435,232.564Z" transform="translate(-10.345 -24.011)" fill="url(#a)"/><path d="M443.807,271.471a79.731,79.731,0,0,1-6.031,9.218c-.872.928-1.573,7.195-1.452,10.206s-1.155,16.89-6.031,24.081-2.371,19.618-2.371,19.618l-7.779,2.728H410.8l-6.439-1.925-1.7-4.685s2.264-.348,7.886-1.684a7.3,7.3,0,0,0,5.822-6.62l3.948-27.569s1.164-6.958-.756-11.774a9.584,9.584,0,0,1,.631-8.4l.125-.195a78.616,78.616,0,0,1,12.3-7.821c5.5-2.653,11.073-3.915,12.655.793C445.473,268.052,444.8,269.615,443.807,271.471Z" transform="translate(-10.345 -24.011)" fill="#a5636d"/><path d="M443.807,271.471a79.731,79.731,0,0,1-6.031,9.218c-.872.928-1.573,7.195-1.452,10.206s-1.155,16.89-6.031,24.081c-3.433,5.07-3.206,12.734-2.783,16.821.181,1.712.4,2.783.4,2.783l-7.78,2.728H410.8l-6.439-1.911-1.7-4.685s.566-.088,1.856-.339,3.247-.677,6.058-1.345a7.3,7.3,0,0,0,5.794-6.62l3.948-27.569s1.164-6.958-.756-11.774a9.584,9.584,0,0,1,.631-8.4l.125-.195a78.616,78.616,0,0,1,12.3-7.821c5.5-2.653,11.073-3.915,12.655.793C445.473,268.052,444.8,269.615,443.807,271.471Z" transform="translate(-10.345 -24.011)" opacity="0.05"/><path d="M427.924,334.6l-7.779,2.728H410.8l-6.439-1.93-1.7-4.685s.566-.088,1.856-.339a3.5,3.5,0,0,0,2.7,3.785l3.656.125c.515,0,1.034.028,1.545.028a46.612,46.612,0,0,0,15.114-2.51C427.71,333.512,427.924,334.6,427.924,334.6Z" transform="translate(-10.345 -24.011)" opacity="0.1"/><path d="M410.862,335.071l-3.66-.125a3.57,3.57,0,0,1-2.579-4.6s-6.587-1.494-8.271-.506-.872,6.439,3.887,7.775c4.639,1.3,22.016,3.219,27.013,2.435l.32-.056c4.528-.928,0-7.422,0-7.422h0a46.8,46.8,0,0,1-16.709,2.5Z" transform="translate(-10.345 -24.011)" fill="#bebed0"/><path d="M433.4,272.538c-.246.492-.51,1-.812,1.535a86.421,86.421,0,0,1-6.624,10.113c-.983,1.048-1.767,8.118-1.642,11.532s-1.3,19.057-6.805,27.175c-2.816,4.175-3.451,9.858-3.4,14.432q.021,2.325.274,4.639c.2,1.888.464,3.066.464,3.066l-8.777,3.076H395.511l-7.269-2.162-1.9-5.307s.636-.1,2.064-.385,3.655-.756,6.838-1.508a8.248,8.248,0,0,0,6.555-7.469l4.449-31.113s1.313-7.863-.849-13.291a10.669,10.669,0,0,1-.52-6.351,10.131,10.131,0,0,1,1.392-3.349s1.7-1.336,4.259-3.1c1.132-.779,2.445-1.642,3.855-2.514,6.2-3.836,14.348-7.752,18.254-4.9a5.052,5.052,0,0,1,1.8,2.593C434.594,269.787,434.154,271.007,433.4,272.538Z" transform="translate(-10.345 -24.011)" fill="#a5636d"/><path d="M414.828,345.035l-8.777,3.076h-10.54l-7.269-2.162-1.9-5.307s.636-.1,2.064-.385a3.874,3.874,0,0,0,1.234,3.428,4.133,4.133,0,0,0,2.616.983l3.326.107c.58,0,1.164.032,1.744.032a52.768,52.768,0,0,0,17.062-2.839C414.591,343.857,414.828,345.035,414.828,345.035Z" transform="translate(-10.345 -24.011)" opacity="0.1"/><path d="M395.576,345.564l-3.321-.111a4.175,4.175,0,0,1-2.621-.983,4.1,4.1,0,0,1-1.1-4.235s-7.422-1.684-9.338-.571-.979,7.269,4.388,8.777c5.256,1.471,24.851,3.632,30.492,2.751l.357-.065c5.1-1.048,0-8.387,0-8.387h0A52.633,52.633,0,0,1,395.576,345.564Z" transform="translate(-10.345 -24.011)" fill="#bebed0"/><path d="M443.807,271.471c-3.178,1.109-7.844,2.579-10.405,2.64a4.664,4.664,0,0,1-.793-.037h0c-1.791-.246-7.325.148-12.4.6-2.036.181-3.994.371-5.613.538-2.412.251-4.073.431-4.073.431v-1.573c1.132-.779,2.445-1.642,3.855-2.514,6.2-3.836,14.348-7.752,18.254-4.9,5.5-2.653,11.073-3.915,12.655.793C445.473,268.052,444.8,269.615,443.807,271.471Z" transform="translate(-10.345 -24.011)" opacity="0.1"/><path d="M459.055,234.883c-.088,2.352-.97,8.457-7.288,14.627-8.053,7.863-4.639,19.154-4.639,19.154s-9.6,3.771-13.745,3.874a4.667,4.667,0,0,1-.793-.037c-2.486-.348-12.358.566-18.032,1.141-2.412.25-4.073.431-4.073.431v-33.4l44.5-10.8,4.031,4.013A7.424,7.424,0,0,1,459.055,234.883Z" transform="translate(-10.345 -24.011)" fill="#5c5c8e"/><path d="M443.251,267.616" transform="translate(-10.345 -24.011)" fill="none"/><g opacity="0.1"><path d="M411.237,273.66l-.733.079v.353s1.661-.181,4.073-.431c4.073-.413,10.294-.993,14.409-1.164C426.138,272.236,416.73,273.1,411.237,273.66Z" transform="translate(-10.345 -24.011)"/><path d="M459.037,233.9l-4.031-4.017-2.686.673,3.377,3.363a7.427,7.427,0,0,1,0,1.007c-.088,2.347-.97,8.457-7.288,14.627-8.053,7.858-4.639,19.154-4.639,19.154s-7.947,3.117-12.5,3.762a11.479,11.479,0,0,1,1.3.07,4.637,4.637,0,0,0,.793.042c4.143-.1,13.745-3.874,13.745-3.874s-3.433-11.3,4.639-19.154c6.318-6.17,7.2-12.279,7.288-14.627A7.416,7.416,0,0,0,459.037,233.9Z" transform="translate(-10.345 -24.011)"/></g><path d="M370.127,211.29s-13.453-9.334-14.441-.928,14.441,7.2,14.441,7.2Z" transform="translate(-10.345 -24.011)" fill="#a5636d"/><path d="M393.322,205.1s-7.279,4.815-11.305,4.518c0,0-11,1.475-12.284.738s-2.06,10.67-2.06,10.67l18.092-1.276,11.6-1.772s5.8-3.535,5.8-6.583S393.322,205.1,393.322,205.1Z" transform="translate(-10.345 -24.011)" fill="#f7cddd"/><path d="M393.322,205.1s-7.279,4.815-11.305,4.518c0,0-11,1.475-12.284.738s-2.06,10.67-2.06,10.67l18.092-1.276,11.6-1.772s5.8-3.535,5.8-6.583S393.322,205.1,393.322,205.1Z" transform="translate(-10.345 -24.011)" opacity="0.05"/><path d="M382.648,229.391s-16.362-.677-12.7,6.958,16.065-1.633,16.065-1.633Z" transform="translate(-10.345 -24.011)" fill="#a5636d"/><path d="M399.106,213.159s-13.263-9.923-11.393-22.007,11.393,9.25,11.393,9.25Z" transform="translate(-10.345 -24.011)" fill="#5c5c8e"/><path d="M395.442,158.373a16.784,16.784,0,0,1-4.718,11.648,15.774,15.774,0,0,1-2.421,2.064,17.3,17.3,0,0,1-5.5,2.542,17.481,17.481,0,0,1-2.38.422c-.575.056-1.155.088-1.744.088a16.356,16.356,0,0,1-5.525-.928,16.765,16.765,0,1,1,22.29-15.819Z" transform="translate(-10.345 -24.011)" fill="#a5636d"/><path d="M459.055,234.883c-1.5.278-3.359.779-3.359,1.559,0,1.313-20.959,8.387-20.959,8.387s.784,1.828-1.308,4.973S414.3,271.021,414.3,271.021l.056.538.218,2.083,1.039,9.955s-6.55-2.357-8.647-2.1a2.875,2.875,0,0,1-2.092-.974,10.131,10.131,0,0,1,1.392-3.349s1.7-1.336,4.259-3.1v-33.4l44.5-10.8,4.031,4.013A7.419,7.419,0,0,1,459.055,234.883Z" transform="translate(-10.345 -24.011)" opacity="0.1"/><path d="M460.939,233.037s-5.242.52-5.242,1.832-20.959,8.387-20.959,8.387.784,1.828-1.308,4.973S414.3,269.453,414.3,269.453l1.313,12.572s-6.55-2.357-8.647-2.1c-.928.116-1.972-.747-2.83-1.754a18.246,18.246,0,0,1-1.888-2.7s2.361-9.96-.784-12.316,3.4-19.646,3.4-19.646,2.96-12.293,2.088-17.568a6.33,6.33,0,0,0-.251-1.039.373.373,0,0,0-.037-.116c-1.856-5.038-21.97-47.317-21.97-47.317a30.377,30.377,0,0,1,.25-3.586c.042-.329.1-.673.158-1.021a17.29,17.29,0,0,1,.408-1.856,11.589,11.589,0,0,1,.38-1.155c.622-1.6,1.573-2.825,2.992-2.853a8.792,8.792,0,0,1,5.261-2.213c2.7-.353,6.555,0,11.774,2.213,12.307,5.233,15.193,5.5,15.193,5.5l6.184,8.118,1.271,1.665A160.458,160.458,0,0,1,441.2,201.451c2.06,3.711,4.978,8.021,8.475,10.614C456.745,217.32,460.939,233.037,460.939,233.037Z" transform="translate(-10.345 -24.011)" fill="#f7cddd"/><path d="M415.023,202.745s17.489,4.324,24.266,15.225Z" transform="translate(-10.345 -24.011)" opacity="0.1"/><path d="M420.427,221.9s3.308,22.207,2.389,23.877S420.427,221.9,420.427,221.9Z" transform="translate(-10.345 -24.011)" opacity="0.1"/><path d="M419.244,233.3c-1.271,1.665-6.434,14.538-6.434,14.538l1.489,21.617,1.313,12.572s-6.546-2.357-8.642-2.1c-.928.116-1.976-.747-2.83-1.754,1.359-7.362,4.268-22.768,4.792-23.065.691-.394,4.231-12.771,4.416-16.236s5.1-11.189,5.1-11.189S420.524,231.632,419.244,233.3Z" transform="translate(-10.345 -24.011)" opacity="0.1"/><path d="M414.3,212.078c-.325.979-.826,6.68-.826,6.68-.362,5.019-4.175,6.662-6.518,7.19a6.323,6.323,0,0,0-.25-1.039C405.137,220.461,384.7,177.5,384.7,177.5a28.229,28.229,0,0,1,.816-6.467c4.449-1.308,11.491.705,11.491.705,2.036-.269,8.679,12.938,8.679,12.938s4.426,10.113,4.913,11.491,0,3.637.195,4.426,2.264,1.466,2.556,2.551.1,3.247.3,3.632S414.633,211.095,414.3,212.078Z" transform="translate(-10.345 -24.011)" opacity="0.1"/><path d="M412.731,211.29c-.325.983-.826,6.68-.826,6.68a7.42,7.42,0,0,1-5.233,6.824,10.968,10.968,0,0,1-3.145.626l-3.159,2.746-14.589,10.739s-5.437-10.053-3.962-10.108,9.983-7.2,9.983-7.2c2.6-1.392,5.21-6.031,6.42-8.415a7.355,7.355,0,0,1-.158-.863c-.524-4.449-11.528-21.483-11.528-21.483s-4.254-5.005-5.91-14.279c-.046-.213-.079-.431-.121-.654a6.652,6.652,0,0,1-.083-.872c-.2-3.567,2.4-4.866,5.479-5.172h0a21.987,21.987,0,0,1,4.824.148,34.925,34.925,0,0,1,4.718.928c1.317-.176,4.565,5.3,6.694,9.185h0c1.146,2.106,1.972,3.748,1.972,3.748s4.426,10.118,4.913,11.491,0,3.642.195,4.426,2.264,1.471,2.556,2.556.1,3.247.3,3.632S413.06,210.306,412.731,211.29Z" transform="translate(-10.345 -24.011)" fill="#f7cddd"/><path d="M429.654,188.624c-2.783,2.844-7.278,2.853-10.888,1.392s-6.666-4.078-10.011-6.114c-2.171-1.327-4.472-2.412-6.61-3.781h0c-.315-.2-.622-.408-.928-.622-2.468-1.744-4.606-3.985-7.163-5.567a11.133,11.133,0,0,0-5.752-1.856,6.541,6.541,0,0,0-2.742.575,3.706,3.706,0,0,0-.464.227,11.83,11.83,0,0,0-2.319,1.74c-.724.649-1.415,1.341-2.176,1.948-.046-.213-.079-.431-.121-.654a6.652,6.652,0,0,1-.083-.872c-.575.056-1.155.088-1.744.088a16.357,16.357,0,0,1-5.525-.928.377.377,0,0,0-.042-.209c-.626-3.3-1.758-6.8-4.416-8.656-1.54-1.076-4-1.517-6.133-2.319a16.765,16.765,0,1,1,31.591,1.814c2.7-.353,6.555,0,11.774,2.213,12.307,5.233,15.193,5.5,15.193,5.5l6.184,8.118a6.939,6.939,0,0,0-1.494,3.219C425.669,186.068,427.8,187.594,429.654,188.624Z" transform="translate(-10.345 -24.011)" opacity="0.1"/><path d="M368.689,163.755c2.658,1.856,3.79,5.349,4.421,8.647a6.743,6.743,0,0,0,1.011,2.932c1.392,1.828,4.249,1.313,6.091,0s3.294-3.3,5.349-4.231c2.728-1.234,5.938-.334,8.494,1.266s4.695,3.841,7.163,5.567c2.389,1.684,5.052,2.885,7.538,4.4,3.345,2.036,6.4,4.667,10.011,6.114s8.118,1.443,10.883-1.392c-1.856-1.03-3.985-2.551-3.841-4.76s2.714-3.855,2.542-6.119-2.834-3.15-4.746-4.263c-3.989-2.319-5.692-7.422-6.546-12.131-.663-3.683-1.211-7.8-3.962-10.164-1.777-1.522-4.175-2.018-5.966-3.526-1.693-1.433-2.635-3.6-3.711-5.6a22.271,22.271,0,0,0-7.2-8.41,11.538,11.538,0,0,0-10.4-1.42c-1.3.515-2.482,1.313-3.762,1.856-3.192,1.392-6.842,1.192-10,2.644-3.892,1.791-6.42,5.743-8.735,9.5-1.958,3.215-5.841,8.884-4.741,13.059C359.685,161.969,365.8,161.741,368.689,163.755Z" transform="translate(-10.345 -24.011)" fill="#4c3e42"/><g opacity="0.1"><path d="M428.346,175.927a2.933,2.933,0,0,0-.088-.51c-.705,1.109-1.582,2.185-1.665,3.484a3.162,3.162,0,0,0,.074.9C427.45,178.548,428.457,177.374,428.346,175.927Z" transform="translate(-10.345 -24.011)"/><path d="M419.55,185.066c-3.609-1.447-6.661-4.078-10.006-6.114-2.491-1.517-5.154-2.718-7.543-4.4-2.468-1.744-4.606-3.985-7.163-5.567s-5.762-2.5-8.494-1.271c-2.055.928-3.5,2.9-5.349,4.235s-4.676,1.856-6.091,0a6.743,6.743,0,0,1-1.011-2.932c-.626-3.3-1.763-6.791-4.416-8.647-2.89-2.018-9.009-1.791-10.118-6.031a6.588,6.588,0,0,1-.144-2.319,9.269,9.269,0,0,0-.645,5.451c1.113,4.259,7.232,4.031,10.118,6.031,2.658,1.856,3.79,5.353,4.421,8.652a6.8,6.8,0,0,0,1.007,2.932c1.392,1.828,4.249,1.313,6.1-.023s3.289-3.3,5.349-4.231c2.728-1.229,5.938-.329,8.494,1.271s4.695,3.841,7.163,5.567c2.389,1.689,5.052,2.885,7.538,4.4,3.345,2.041,6.4,4.671,10.011,6.119s8.118,1.438,10.883-1.392a13.329,13.329,0,0,1-2.027-1.341A11.56,11.56,0,0,1,419.55,185.066Z" transform="translate(-10.345 -24.011)"/></g><path d="M337.446,216.8l37.112-13.861A3.526,3.526,0,0,1,379.1,205h0a3.53,3.53,0,0,1-2.074,4.542l-37.112,13.866-7.951-.8Z" transform="translate(-10.345 -24.011)" fill="#5c5c8e"/><path d="M377.971,203.891h0a3.535,3.535,0,0,1-2.074,4.546L338.786,222.3l-5.975-.6-.858.928,7.951.8,37.112-13.866a3.53,3.53,0,0,0,2.074-4.542h0a3.516,3.516,0,0,0-1.443-1.763,3.84,3.84,0,0,1,.325.636Z" transform="translate(-10.345 -24.011)" fill="#fff" opacity="0.1"/><path d="M327.1,192.785l2.473,6.615-6.527-.654-1.429-.144,1.953-2.069Z" fill="#efc8c4"/><path d="M333.911,220.544a1.414,1.414,0,0,1,.38.417.6.6,0,0,1,0,.645,1.453,1.453,0,0,1-.362.255,1.183,1.183,0,0,0-.529.9l-1.429-.144Z" transform="translate(-10.345 -24.011)" fill="#727a9c"/><path d="M305.052,145.12l-6.258-3.052a.756.756,0,0,1-.348-1.011l.663-1.364a.751.751,0,0,1,1.011-.348l4.217,2.055,4.4-9.027a.761.761,0,0,1,1.011-.353l1.364.668a.751.751,0,0,1,.348,1.011l-5.4,11.073a.756.756,0,0,1-1.011.348Z" transform="translate(-10.345 -24.011)" fill="#3acc6c"/><path d="M318.723,184.166l-6.258-3.052a.756.756,0,0,1-.348-1.011l.663-1.364a.761.761,0,0,1,1.016-.348l4.212,2.055,4.4-9.037a.761.761,0,0,1,1.011-.353l1.359.668a.756.756,0,0,1,.353,1.011l-5.4,11.073a.765.765,0,0,1-1.016.348Z" transform="translate(-10.345 -24.011)" fill="#3acc6c"/><path d="M312.586,164.919l-6.258-3.052a.761.761,0,0,1-.353-1.011l.668-1.364a.751.751,0,0,1,1.011-.348l4.217,2.055,4.4-9.041a.756.756,0,0,1,1.011-.348l1.364.663a.765.765,0,0,1,.348,1.016l-5.4,11.082a.756.756,0,0,1-1.011.348Z" transform="translate(-10.345 -24.011)" fill="#3acc6c"/><path d="M324.661,201.794l-6.258-3.052a.756.756,0,0,1-.348-1.011l.663-1.364a.756.756,0,0,1,1.011-.348l4.217,2.055,4.4-9.027a.765.765,0,0,1,1.016-.353l1.359.668a.752.752,0,0,1,.348,1.011l-5.4,11.073a.765.765,0,0,1-1.016.348Z" transform="translate(-10.345 -24.011)" fill="#3acc6c"/><path d="M90.7,321.645s2.76,3.609-1.271,9.055-7.362,10.048-6.031,13.453c0,0,6.086-10.118,11.036-10.257S96.147,327.732,90.7,321.645Z" transform="translate(-10.345 -24.011)" fill="#3acc6c"/><path d="M90.7,321.645a4.448,4.448,0,0,1,.566,1.132c4.829,5.678,7.422,10.976,2.76,11.133-4.328.121-9.519,7.858-10.758,9.811a3.562,3.562,0,0,0,.144.464s6.086-10.118,11.036-10.257S96.147,327.732,90.7,321.645Z" transform="translate(-10.345 -24.011)" opacity="0.1"/><path d="M95.831,326.247c0,1.266-.144,2.319-.32,2.319s-.315-1.03-.315-2.319.176-.673.353-.673S95.831,324.976,95.831,326.247Z" transform="translate(-10.345 -24.011)" fill="#ffd037"/><path d="M97.589,327.76c-1.113.608-2.088.979-2.171.821s.752-.77,1.856-1.392.673-.167.756,0S98.707,327.152,97.589,327.76Z" transform="translate(-10.345 -24.011)" fill="#ffd037"/><path d="M76.125,321.645s-2.756,3.609,1.276,9.055,7.357,10.048,6.031,13.453c0,0-6.082-10.118-11.036-10.257S70.679,327.732,76.125,321.645Z" transform="translate(-10.345 -24.011)" fill="#3acc6c"/><path d="M76.125,321.645a4.55,4.55,0,0,0-.561,1.132c-4.834,5.678-7.422,10.976-2.76,11.133,4.324.121,9.514,7.858,10.758,9.811a3.581,3.581,0,0,1-.148.464s-6.082-10.159-11.045-10.3S70.679,327.732,76.125,321.645Z" transform="translate(-10.345 -24.011)" opacity="0.1"/><path d="M71,326.247c0,1.266.139,2.319.315,2.319s.32-1.03.32-2.319-.176-.673-.353-.673S71,324.976,71,326.247Z" transform="translate(-10.345 -24.011)" fill="#ffd037"/><path d="M69.236,327.76c1.118.608,2.088.979,2.171.821s-.752-.77-1.856-1.392-.677-.167-.761,0S68.123,327.152,69.236,327.76Z" transform="translate(-10.345 -24.011)" fill="#ffd037"/><ellipse cx="28.85" cy="4.426" rx="28.85" ry="4.426" transform="translate(44.223 338.884)" fill="#e74c3c" opacity="0.1"/><path d="M98.262,339.283l-.139,1.127L97.933,342l-.083.663-.19,1.591-.088.663-.19,1.591L95.172,364.6c-.2,1.614-2.839,2.876-6.031,2.876H77.679c-3.187,0-5.822-1.262-6.031-2.876L69.44,346.51l-.195-1.591-.079-.663-.2-1.591L68.888,342l-.195-1.591-.139-1.127c-.107-.928,1.317-1.689,3.122-1.689H95.145C96.954,337.594,98.378,338.369,98.262,339.283Z" transform="translate(-10.345 -24.011)" fill="#65617d"/><path d="M87.783,316.4l-.195,1.591H58.553l-.19-1.591Z" fill="#9d9cb5"/><path d="M87.509,318.653l-.195,1.591H58.831l-.195-1.591Z" fill="#9d9cb5"/><path d="M87.231,320.908l-.195,1.591H59.1l-.195-1.591Z" fill="#9d9cb5"/></g></svg>