<svg xmlns="http://www.w3.org/2000/svg" xmlns:xlink="http://www.w3.org/1999/xlink" width="867.129" height="654.633" viewBox="0 0 867.129 654.633"><defs><linearGradient id="a" x1="0.5" y1="1" x2="0.5" gradientUnits="objectBoundingBox"><stop offset="0" stop-color="gray" stop-opacity="0.251"/><stop offset="0.54" stop-color="gray" stop-opacity="0.122"/><stop offset="1" stop-color="gray" stop-opacity="0.102"/></linearGradient><linearGradient id="b" x1="0.5" y1="1" x2="0.5" y2="0" xlink:href="#a"/><linearGradient id="c" x1="3.499" y1="1.031" x2="3.499" y2="0.019" xlink:href="#a"/></defs><g transform="translate(0 0.077)"><ellipse cx="75.939" cy="18.759" rx="75.939" ry="18.759" transform="translate(700.634 613.912)" fill="#e74c3c" opacity="0.1"/><ellipse cx="75.939" cy="18.759" rx="75.939" ry="18.759" transform="translate(30.289 617.037)" fill="#e74c3c" opacity="0.1"/><path d="M648.838,197.576s-10.673-4.331-44.611,11.242-38.2,13.586-46.97,11.2-13.654-2.943-23.106-15.93c0,0-6.645-36.016-13.07-41.6s-33.756,3.178-33.756,3.178-32.762,7.517-39.005-36.267c0,0,4.43-33-1.6-43.132,0,0,12.137,5.257,32.269-3.224s36.176,9.1,36.176,9.1,5.067,13.123,4.551,20.944,2.678,10.756,12.266,6.979c0,0,4.7-6.7-1.965-17.765s-11.424-19.32-9.558-27.915,7.206-20.481,24.4-26.474S585.392,40.8,596.6,36.139s13.919-7.7,13.919-7.7-6.91,6.933,9.361,36.221,5.894,42.009,5.894,42.009-8.648,20.6-46.8,18.964c0,0-36.767,1.343-16.688,16.939,0,0,12.842-2.617,32.034-8.716s33.05,19.078,36.487,36.6S648.838,197.576,648.838,197.576Z" transform="translate(-129.423 -20.949)" fill="#e74c3c"/><path d="M638.779,57.733l.2-.053c1.472,5.591-14.966,28.067-29.007,45.915l-.167-.129C629.631,78.275,639.925,62.034,638.779,57.733Z" transform="translate(-168.8 -28.009)" fill="#444053"/><path d="M597.457,117.55l.083.228c-11.219,14.268-25.328,31.29-36.623,43.9-1.077,1.206-2.147,2.465-3.178,3.755l-.319-.266c1.032-1.29,2.109-2.556,3.186-3.793C571.893,148.8,586.245,131.811,597.457,117.55Z" transform="translate(-156.151 -42.464)" fill="#444053"/><path d="M549.467,179.88l.22.379c-20.557,25.662-21.915,65.509-22,65.858l-4.339-5.006C523.441,240.762,528.766,205.716,549.467,179.88Z" transform="translate(-147.925 -57.513)" fill="#444053"/><path d="M630.82,206.289s-24.274-12.6-43.124-8.079-61.443-15.975-61.443-15.975-18.061-7.343-21.687-15.7c0,0-12.387-13.093-13.093-19.874S478.706,122.84,470.84,122.18" transform="translate(-135.247 -43.582)" fill="none" stroke="#444053" stroke-miterlimit="10" stroke-width="1"/><path d="M673.649,243.383s-12.228-8.223-10.787-17.8" transform="translate(-181.581 -68.547)" fill="none" stroke="#444053" stroke-miterlimit="10" stroke-width="1"/><path d="M646.317,253.134s-17.447-6.342-19.207-31.184" transform="translate(-172.977 -67.67)" fill="none" stroke="#444053" stroke-miterlimit="10" stroke-width="1"/><path d="M611.394,259.436s-16.688-13.844-11.143-38.026" transform="translate(-166.219 -67.54)" fill="none" stroke="#444053" stroke-miterlimit="10" stroke-width="1"/><path d="M568.985,250.381s-11.113-23.3-1.229-38.451" transform="translate(-157.658 -65.251)" fill="none" stroke="#444053" stroke-miterlimit="10" stroke-width="1"/><path d="M678.841,212.82s-12.63,4.005-9.922,10.62" transform="translate(-182.979 -65.466)" fill="none" stroke="#444053" stroke-miterlimit="10" stroke-width="1"/><path d="M656.5,182.61s-16.893,5.363-17.3,29.258" transform="translate(-175.896 -58.172)" fill="none" stroke="#444053" stroke-miterlimit="10" stroke-width="1"/><path d="M626.449,175.34s-15.368,18.964-14.238,36.221" transform="translate(-169.365 -56.417)" fill="none" stroke="#444053" stroke-miterlimit="10" stroke-width="1"/><path d="M591.185,185.15s-15.27,14.595-13.32,22.719" transform="translate(-161.046 -58.785)" fill="none" stroke="#444053" stroke-miterlimit="10" stroke-width="1"/><path d="M578.144,177.672s-14.322,2.572-16.324-2.132" transform="translate(-157.213 -56.465)" fill="none" stroke="#444053" stroke-miterlimit="10" stroke-width="1"/><path d="M558.81,155.56s7.237,9.581,9.1,7.434" transform="translate(-156.486 -51.641)" fill="none" stroke="#444053" stroke-miterlimit="10" stroke-width="1"/><path d="M639.269,144.941s-36.092,2.6-44.269-8.261" transform="translate(-165.224 -47.083)" fill="none" stroke="#444053" stroke-miterlimit="10" stroke-width="1"/><path d="M548.8,91.91s16.939,36.358,29.235,40.962" transform="translate(-154.07 -36.273)" fill="none" stroke="#444053" stroke-miterlimit="10" stroke-width="1"/><path d="M572.22,69.08s10.407,33.445,23.3,43.883" transform="translate(-159.724 -30.761)" fill="none" stroke="#444053" stroke-miterlimit="10" stroke-width="1"/><path d="M659.406,111.147s-27.452,11.78-43.936-.137" transform="translate(-170.167 -40.885)" fill="none" stroke="#444053" stroke-miterlimit="10" stroke-width="0.75"/><path d="M604.46,59.68s6.273,24.585,14.724,30.524" transform="translate(-167.508 -28.492)" fill="none" stroke="#444053" stroke-miterlimit="10" stroke-width="0.75"/><path d="M661.176,74.89s-15.421,5.841-21.186,1.365" transform="translate(-176.087 -32.164)" fill="none" stroke="#444053" stroke-miterlimit="10" stroke-width="0.75"/><path d="M539.533,166.15s0,21.429-5.833,22.954" transform="translate(-150.424 -54.198)" fill="none" stroke="#444053" stroke-miterlimit="10" stroke-width="1"/><path d="M478.52,199.577s23.166,1.987,33.854-9.967" transform="translate(-137.101 -59.862)" fill="none" stroke="#444053" stroke-miterlimit="10" stroke-width="1"/><path d="M526.8,132.78s-5.606,21.733-21.073,27.589" transform="translate(-143.671 -46.141)" fill="none" stroke="#444053" stroke-miterlimit="10" stroke-width="1"/><path d="M460.2,169.764s16.4,5.7,30.5-8.814" transform="translate(-132.678 -52.942)" fill="none" stroke="#444053" stroke-miterlimit="10" stroke-width="1"/><path d="M505.783,108.15s-1.517,18.456-11.583,27.1" transform="translate(-140.887 -40.194)" fill="none" stroke="#444053" stroke-miterlimit="10" stroke-width="1"/><path d="M461,134.109s13.609.1,16.794-4.339" transform="translate(-132.871 -45.414)" fill="none" stroke="#444053" stroke-miterlimit="10" stroke-width="1"/><path d="M479.266,122.793c-54.161,9.034-108.405,4.172-160.625-2.564S214.325,104.891,160.05,106.575c-34.894,1.092-73.709,7.95-97.854,28.992-23.227,20.246-26.55,47.926-26.33,72.958.167,18.827,1.934,38.33,14.686,53.471C59.4,272.5,72.938,280.133,83.171,289.85c35.652,33.816,25.541,86.2,2.966,130.563-10.62,20.815-23.6,41.243-30.722,62.581S47.587,527.316,61,544.983C74.3,562.5,99.753,572.587,126.234,578c53.774,10.976,113.457,5.31,171.184-2.571,127.771-17.53,254.117-45.885,380.1-74.187,46.628-10.468,93.462-21,138.323-36.411,24.911-8.541,50.254-19.29,66.207-36.289,20.246-21.581,20.428-51.369.425-69.438-33.559-30.342-108.633-24.638-134.72-59.167-14.367-18.964-8.519-44.467,2.458-66.882,23.515-48.093,69.6-95.313,62.96-143.64-4.551-33.194-36.7-60.988-79.406-68.672-44.755-8.048-101.958,5.393-127.271,38.4C580.428,93.209,527.086,114.828,479.266,122.793Z" transform="translate(-30.223 -18.54)" fill="#e74c3c" opacity="0.1"/><rect width="720.88" height="408.354" rx="12.49" transform="translate(57.87 113.848)" fill="url(#a)"/><rect width="718.672" height="401.254" rx="12.49" transform="translate(59.016 119.591)" fill="#fff"/><rect width="718.672" height="401.254" rx="12.49" transform="translate(59.016 119.591)" fill="#fff"/><rect width="718.672" height="401.254" rx="12.49" transform="translate(59.016 119.591)" fill="#5a5773" opacity="0.04"/><path d="M821.244,170.15H109.839a3.649,3.649,0,0,0-3.649,3.649v15.429H824.862v-15.4a3.649,3.649,0,0,0-3.618-3.679Z" transform="translate(-47.205 -55.164)" fill="#5a5773"/><g transform="translate(68.437 119.591)"><circle cx="4.931" cy="4.931" r="4.931" fill="#fff"/><circle cx="4.931" cy="4.931" r="4.931" transform="translate(13.275)" fill="#fff"/><circle cx="4.931" cy="4.931" r="4.931" transform="translate(26.55)" fill="#fff"/></g><rect width="599.26" height="297.946" rx="10.19" transform="translate(107.123 222.891)" fill="#fff"/><rect width="172.375" height="18.092" rx="3.86" transform="translate(81.712 154.31)" fill="#5a5773" opacity="0.2"/><rect width="172.375" height="18.092" rx="3.86" transform="translate(406.754 257.474)" fill="#e74c3c" opacity="0.2"/><rect width="269.159" height="18.092" rx="3.86" transform="translate(406.754 308.13)" fill="#e74c3c" opacity="0.2"/><rect width="269.159" height="18.092" rx="3.86" transform="translate(406.754 337.714)" fill="#e74c3c" opacity="0.2"/><rect width="269.159" height="18.092" rx="3.86" transform="translate(406.754 367.298)" fill="#e74c3c" opacity="0.2"/><rect width="269.159" height="18.092" rx="3.86" transform="translate(406.754 396.881)" fill="#e74c3c" opacity="0.2"/><rect width="536.3" height="18.092" rx="3.86" transform="translate(139.612 429.499)" fill="#e74c3c" opacity="0.2"/><rect width="536.3" height="18.092" rx="3.86" transform="translate(139.612 459.083)" fill="#e74c3c" opacity="0.2"/><rect width="536.3" height="18.092" rx="3.86" transform="translate(139.612 488.667)" fill="#e74c3c" opacity="0.2"/><path d="M753.791,678.54s4.5,5.879-2.078,14.762-11.993,16.377-9.8,21.915c0,0,9.914-16.491,17.993-16.688S762.674,688.454,753.791,678.54Z" transform="translate(-200.576 -177.911)" fill="#e74c3c"/><path d="M753.872,678.54a7.282,7.282,0,0,1,.918,1.843c7.881,9.254,12.076,17.894,4.506,18.107-7.055.2-15.52,12.82-17.545,16a5.837,5.837,0,0,0,.243.759s9.914-16.491,17.993-16.688S762.754,688.454,753.872,678.54Z" transform="translate(-200.656 -177.911)" opacity="0.1"/><path d="M768.422,688c0,2.071-.228,3.747-.516,3.747s-.516-1.677-.516-3.747.288-1.092.577-1.092S768.422,685.928,768.422,688Z" transform="translate(-206.846 -179.875)" fill="#ffd037"/><path d="M771.409,691.215c-1.821.986-3.406,1.585-3.542,1.335s1.229-1.259,3.034-2.276,1.1-.273,1.236,0S773.222,690.222,771.409,691.215Z" transform="translate(-206.959 -180.619)" fill="#ffd037"/><path d="M723.2,678.54s-4.5,5.879,2.071,14.762,12,16.377,9.808,21.915c0,0-9.922-16.491-17.993-16.688S714.314,688.454,723.2,678.54Z" transform="translate(-193.739 -177.911)" fill="#e74c3c"/><path d="M723.2,678.54a7.12,7.12,0,0,0-.925,1.843c-7.874,9.254-12.069,17.894-4.5,18.107,7.055.2,15.512,12.82,17.538,16a5.818,5.818,0,0,1-.235.759s-9.922-16.491-17.993-16.688S714.314,688.454,723.2,678.54Z" transform="translate(-193.739 -177.911)" opacity="0.1"/><path d="M715.38,688c0,2.071.235,3.747.523,3.747s.516-1.676.516-3.747-.288-1.077-.569-1.077S715.38,685.93,715.38,688Z" transform="translate(-194.289 -179.878)" fill="#ffd037"/><path d="M711.25,691.215c1.821.986,3.406,1.585,3.542,1.335s-1.229-1.259-3.034-2.276-1.1-.273-1.236,0S709.429,690.222,711.25,691.215Z" transform="translate(-193.026 -180.619)" fill="#ffd037"/><ellipse cx="47.031" cy="7.214" rx="47.031" ry="7.214" transform="translate(494.306 567.868)" fill="#e74c3c" opacity="0.1"/><path d="M758.581,715.573l-.228,1.836L758.042,720l-.137,1.085-.311,2.594-.137,1.085-.319,2.587-3.6,29.508c-.326,2.632-4.627,4.688-9.861,4.688H725.007c-5.2,0-9.49-2.056-9.808-4.688l-3.611-29.485-.311-2.587-.137-1.085-.319-2.594-.129-1.085-.319-2.594-.228-1.836c-.174-1.517,2.154-2.746,5.09-2.746h38.246C756.419,712.827,758.748,714.079,758.581,715.573Z" transform="translate(-193.023 -186.195)" fill="#65617d"/><path d="M729.984,700.32l-.311,2.594H682.339l-.319-2.594Z" transform="translate(-164.669 -169.106)" fill="#9d9cb5"/><path d="M729.678,705.16l-.311,2.594H682.929l-.319-2.594Z" transform="translate(-164.811 -170.274)" fill="#9d9cb5"/><path d="M729.376,710.01l-.319,2.594H683.521l-.311-2.594Z" transform="translate(-164.956 -171.445)" fill="#9d9cb5"/><rect width="229.084" height="168.051" rx="8.5" transform="translate(139.612 247.438)" fill="#e74c3c" opacity="0.2"/><path d="M1107.533,561.667c.288-.759-1.851-5.1-1.851-5.31s-2.207-2.617-2.207-3.96-2.92-4.248-2.92-4.248-3.922-1.623-4.347-5.166-4.7-3.6-4.7-3.6h0v-.812a11.167,11.167,0,0,0-.523-4.134,4.164,4.164,0,0,0-2.42-2.056s-.432-2.761-1.282-3.611a4.058,4.058,0,0,1-1-3.793c.432-1.335-.569-4.733-2.632-5.234s-4.422-1.274-4.422-1.274l-.569.1-.281-.1a11.833,11.833,0,0,1-1.517.19,1.874,1.874,0,0,1-1.206-.394c-.713-.759-6.486-2.276-7.586-2.276a17.341,17.341,0,0,1-4.134-1.419s-2.139-1.623-3.034-2.336a19.907,19.907,0,0,1-2.685-3.694v-.053h0a13.084,13.084,0,0,1-.645-1.858h0a16.728,16.728,0,0,0,2.647-3.649c.076-.137.144-.273.212-.417a1.593,1.593,0,0,0,.463-.068l.19-.076a3.08,3.08,0,0,0,1.517-1.805h0a4.838,4.838,0,0,0,.137-.47v-.159l.068-.319a1.461,1.461,0,0,1,0-.182l.046-.319v-.182a1.051,1.051,0,0,1,.053-.4h0a14.156,14.156,0,0,1,.22-1.517h0c.425-1.919,1.585-3.542,2.4-5.31h0c.114-.25.228-.508.326-.759s.2-.569.281-.857l.068-.266c.053-.212.1-.425.144-.637s0-.19.053-.288q.068-.432.114-.888a10.97,10.97,0,0,0-.759-4.969c-.531-1.328-1.327-2.526-1.866-3.854-.819-2.01-1.039-4.293-2.033-6.213a7.4,7.4,0,0,0-8.875-3.611c-1.517.577-2.9,1.692-4.468,2.192-2.109.675-4.354.167-6.539-.129s-4.551-.334-6.341,1.092c-2.018,1.638-2.564,4.718-4.46,6.516-.759.759-1.783,1.236-2.625,1.934a4.285,4.285,0,0,0-1.32,1.805l-.046.144a1.367,1.367,0,0,0-.046.19,1.739,1.739,0,0,0-.038.212.848.848,0,0,0,0,.144,1.6,1.6,0,0,0,0,.379h0a2.879,2.879,0,0,0,.053.357v.1a.887.887,0,0,0,.091.3c.038.1,0,.038,0,.053s.083.22.129.326l.068.159a.126.126,0,0,0,.061.129,9.425,9.425,0,0,1,.66,1.646,1.828,1.828,0,0,1-.068,1.085,3.2,3.2,0,0,1-.759,1.039,14.676,14.676,0,0,0-3.216,5.151q-.129.334-.228.66h.1a4.3,4.3,0,0,0,.622.129,3.037,3.037,0,0,0,.357,0,5.554,5.554,0,0,0,1.456-.106l.364-.091a8.251,8.251,0,0,0,1.441-.523v.675a16.825,16.825,0,0,0,9.353,15.05,3.143,3.143,0,0,0,.061.455l.046.387-.19-.182s-1.282-.637-2.5,1.2a8.057,8.057,0,0,1-3.49,2.693s-12.971,2.048-13.472,3.747l-6.068.357s-2.139.281-2.352,4.741-1.35,4.878-1.35,4.878-2.5,4.392-2.276,6.653a3.709,3.709,0,0,1-1.927,3.4l-.281,4.036a2.783,2.783,0,0,0-3.034,2.4,9.6,9.6,0,0,1-1.775,4.028s-3.922,3.262-4.134,6.015l-2.427,1.517s-5.628-1.274-6.91-3.535c0,0-.152-.152-.394-.372v-.053h0a22.827,22.827,0,0,0-2.352-2.071,1.706,1.706,0,0,1,.114,1.138l-.417-.463-1.123-1.244s-9.1-8.526-14.413-9.2h0c-.068-.137-.417-1.517-1.327-.645a7.434,7.434,0,0,0-.053,10.9l8.526,7.957.22.159,1.828,2.351a21.363,21.363,0,0,0-.759,2.109v.068l-.137.41a.905.905,0,0,0-.038.136c-.045.137-.083.266-.121.394l-.068.228v.136c-.2.713-.334,1.259-.394,1.563l-.478-.152.463.2v.22l.44.19c2.5,1.085,14.951,6.554,15.588,7.381s5.416,3.611,9.694,1.343a10.208,10.208,0,0,0,5.2-5.727s4.134-5.735,4.278-6.584,3.345-1.836,3.345-1.836.288,9.474-1.35,12.949-4.7,18.82-4.7,18.82a2.168,2.168,0,0,1,.607,0l-.182.888a2.061,2.061,0,0,1,.759,0c-.228,1.745-1.517,9.861-1.517,9.861s-.425,3.679-1.138,4.953-.759,7.927-.759,7.927l-1.145,4.809s.152.334.432.827h0a12.311,12.311,0,0,0,3.277,4.24,8.391,8.391,0,0,1-.576,2.2,7.735,7.735,0,0,0-.569,3.4s-1.206,5.446-1.07,7a26.744,26.744,0,0,1-.759,5.378l-1.282,12.311s-.85,10.681-.425,13.586a26.075,26.075,0,0,1-.288,6.827s.857,8.42.645,9.338-1.282,4.885-.645,7.077.288,8.208.288,8.208.425,7.927.925,10.476a17.929,17.929,0,0,1-.144,5.8s-.5,5.446-.713,5.446-2.063,3.747,1.707,7.426,1.434,3.11,1.434,3.11-3.034-1.517-2.64,1.563c.334,2.89.8,2.139.85,2.056l-.713,2.329.5.068-.41.493a10.661,10.661,0,0,1-1.441,1.517,3.087,3.087,0,0,0-.925,2.048s-5.272,5.735-10.188,8.632c-2.587,1.517-4.817,2.814-5.788,3.891-.88.956-.759,1.73,1.085,2.336,3.846,1.274,10.62,1.912,15.459.281a18.084,18.084,0,0,0,7.586-4.878,10.735,10.735,0,0,1,6.068-.994c3.034.569,8.981-3.323,8.981-3.323l-.114-1-.311-2.9a2.276,2.276,0,0,1-.5-1.76,9.1,9.1,0,0,0-.25-2.549c-.053-.281-.106-.561-.159-.819l.546-.106s-.706-3.6.576-4.316.918-9.975.918-9.975a11.186,11.186,0,0,0-2.488-2.473c-.857-.349-.076-4.749.076-5.31s1.282-11.538,1.282-11.538-.432-3.459.137-4.946-.713-7.221-.713-7.221a1.32,1.32,0,0,1,.356-1.555c.759-.85.5-8.42.5-8.42s-.068-3.793-.068-4.817a17.086,17.086,0,0,1,1.638-5.8c.789-1.2.281-4.953.281-4.953h0l.046-.281a1.055,1.055,0,0,1,.061-.4l.061-.379a55.159,55.159,0,0,1,1.4-6.144c.925-2.966,1.995-8.2,1.995-8.2l6.622-17.28.076-.2s3.034,5.659,3.034,10.9a68.828,68.828,0,0,1,.577,8c-.182,1.7.493,9.687.493,9.687s.925,11.462.925,11.955,1.146,9.338,1.859,10.688-.713,5.446-1.146,5.871.144,10.825.144,10.825-1.07,8.208-1.282,9.907-1.07,8.208-.356,10.756.425,2.9.425,2.9,2.572,2.625,1.07,2.837a3.922,3.922,0,0,0-2.852,5.158,68,68,0,0,0,3.14,7.586l1.183-.25v.842l.083,4.218s.5,4.028.212,4.953c-.2.668-.493,3.838-.63,5.5-.053.607-.083,1.009-.083,1.009s0,3.747,7.912,2.617,9.33-4.248,9.33-4.248l.061-.387c.114-.713.372-2.23.584-3.08.281-1.13-2.276-6.228-2.276-6.228s-.425-3.467-1.138-4.24a3.792,3.792,0,0,1-.577-1.517c-.061-.288-.121-.584-.167-.872a5.16,5.16,0,0,1,.531.091s-.432-2.473,1.214-3.254,1.206-2.4.994-3.11.637-4.673.637-4.673a2.276,2.276,0,0,1,.569-2.276c1-.994,1.783-7.927,1.783-7.927l.144-26.747s.5-4.741-.068-6.653-1.138-5.591-.357-6.584.068-5.583.068-5.583,0-9.694,1.07-12.137.713-17.621.713-17.621l.281-9.975s2.329-2.2,1.783-13.654c2.481-.159,5.31-.25,5.7.1.759.637,5.841,3.891,8.837,1.836a39.661,39.661,0,0,0,3.558-2.754l-1.259-21.24,1.259,1.965c0-2.966,8.412-12.592,8.412-12.592s7.836-10.119,9.543-11.318,5.06-7.586,5.06-7.586a30.787,30.787,0,0,1,1.714-3.535C1109.817,565.839,1107.253,562.441,1107.533,561.667Zm-18.38,7.426c-2.139.212-6.63,5.1-6.7,6.159a4.369,4.369,0,0,1-.948,1.9c0-.425-.068-.857-.106-1.3-.5-6.258-1.047-13.874-.759-14.61.425-1.274.281-7.009.281-7.009h0l.083-.114c1.434,4.445,5.894,9.679,5.894,9.679s.759,2.276,1.714,2.329S1089.153,569.094,1089.153,569.094Z" transform="translate(-254.118 -127.328)" fill="url(#b)"/><path d="M978.65,594.464s2.6-13.654,10.954-13.654l6.114,12.569-4.073,2.807S982.792,596.429,978.65,594.464Z" transform="translate(-257.854 -154.315)" fill="#65617d"/><path d="M995.718,593.334l-4.073,2.807a48.234,48.234,0,0,1-10.68-.9,12.318,12.318,0,0,1-2.314-.759l.046-.22v-.046a30.351,30.351,0,0,1,1.578-5.006c.258-.614.546-1.244.865-1.874a12.7,12.7,0,0,1,5.31-5.8,7.2,7.2,0,0,1,2.784-.759h.372l.136.281,2.063,4.248Z" transform="translate(-257.854 -154.307)" opacity="0.1"/><path d="M1090.575,659.537s8.776-.842,9.55-.2,5.758,3.861,8.7,1.821.986-9.1.986-9.406-.281-10.324-.281-10.324l-5.264-7.092-6.6-12.425-13.487-1.335.349,19.722-.068,10.112Z" transform="translate(-283.333 -163.914)" fill="#65617d"/><path d="M1090.575,659.537s8.776-.842,9.55-.2,5.758,3.861,8.7,1.821.986-9.1.986-9.406-.281-10.324-.281-10.324l-5.264-7.092-6.6-12.425-13.487-1.335.349,19.722-.068,10.112Z" transform="translate(-283.333 -163.914)" opacity="0.1"/><path d="M984.4,576.185s-.705,8.564-6.068,8.708c0,0-1.517-.91-3.55-2.435-4.688-3.512-12.137-10.256-10.074-16.529,2.951-8.989,17.272,7.586,17.272,7.586l1.108,1.236Z" transform="translate(-254.402 -150.077)" fill="#fbbebe"/><path d="M987.574,579.834s-.705,8.564-6.068,8.708c0,0-1.517-.91-3.55-2.435l-.455-.584a6.987,6.987,0,0,0,2.928.759,3.952,3.952,0,0,0,3.793-2.4,30.345,30.345,0,0,0,1.517-3.406,10.6,10.6,0,0,0,.539-2.1Z" transform="translate(-257.576 -153.725)" opacity="0.1"/><path d="M985.4,595.135l-1.2-1.517-4.043-5.2-2.056-2.663a6.926,6.926,0,0,0,2.92.759,3.929,3.929,0,0,0,3.793-2.4,29.735,29.735,0,0,0,1.479-3.4c.668-1.9.652-2.867.417-3.2a18.739,18.739,0,0,1,2.321,2.063h0l.387.364.144.288,2.116,4.1a1.1,1.1,0,0,1,0,.174C991.83,585.782,992.513,593.966,985.4,595.135Z" transform="translate(-257.721 -153.506)" fill="#e7effd"/><path d="M1030.739,835.412s-5.9,3.869-8.852,3.3a10.62,10.62,0,0,0-5.97.986,17.72,17.72,0,0,1-7.442,4.847c-4.779,1.616-11.447.979-15.239-.281-1.79-.6-1.934-1.373-1.07-2.321a32.384,32.384,0,0,1,5.7-3.861c4.847-2.883,10.043-8.564,10.043-8.564a3.034,3.034,0,0,1,.91-2.041,10.464,10.464,0,0,0,1.418-1.517c.759-.888,1.464-1.821,1.464-1.821l17.379.652s.3,1.252.531,2.534a9.165,9.165,0,0,1,.243,2.526,2.275,2.275,0,0,0,.493,1.752l.311,2.867Z" transform="translate(-260.993 -213.065)" fill="#65617d"/><path d="M1085.391,840.719c-.2.842-.463,2.344-.577,3.034a1.283,1.283,0,0,1-.053.387s-1.4,3.087-9.2,4.21-7.79-2.594-7.79-2.594l.076-1.009c.137-1.638.417-4.786.622-5.454.281-.91-.2-4.915-.2-4.915l-.083-4.187-.061-2.905,12.9-1.335a24.891,24.891,0,0,0,.417,2.875,3.7,3.7,0,0,0,.569,1.517c.7.759,1.123,4.21,1.123,4.21S1085.695,839.6,1085.391,840.719Z" transform="translate(-279.371 -213.502)" fill="#65617d"/><path d="M1034.981,824.819s.3,1.252.531,2.534c-1.874.341-10.066,1.76-12.137.759-2.321-1.123-7.3-1.752-7.3-1.752l.083-.288c.759-.887,1.464-1.821,1.464-1.821Z" transform="translate(-266.888 -213.091)" opacity="0.1"/><path d="M1081.6,828.855c-3.27-.554-10.453.759-13.275,1.365l-.061-2.905,12.9-1.335A24.893,24.893,0,0,0,1081.6,828.855Z" transform="translate(-279.489 -213.509)" opacity="0.1"/><path d="M1075.887,675.876l-.273,9.861s.349,15.1-.706,17.447-1.054,12.008-1.054,12.008.705,4.551-.068,5.545-.212,4.635.349,6.531.068,6.6.068,6.6l-.137,26.549s-.759,6.88-1.76,7.866a2.314,2.314,0,0,0-.561,2.276s-.842,3.929-.63,4.635a2.331,2.331,0,0,1-.979,3.087c-1.608.774-1.2,3.231-1.2,3.231-3.861-.918-14.815,1.517-14.815,1.517a67.187,67.187,0,0,1-3.095-7.517,3.891,3.891,0,0,1,2.814-5.128c1.471-.2-1.055-2.807-1.055-2.807s.281-.349-.425-2.883.144-8.989.356-10.673,1.259-9.861,1.259-9.861-.561-10.324-.137-10.741,1.821-4.5,1.123-5.826-1.828-10.112-1.828-10.62-.91-11.871-.91-11.871-.842-7.935-.63-9.618-.569-7.935-.569-7.935c0-5.2-3.034-10.817-3.034-10.817l-.076.2L1041.4,694.2s-1.054,5.2-1.965,8.147a53.521,53.521,0,0,0-1.373,6.069l-.061.379-.061.394-.046.281h0s.485,3.717-.288,4.915a17.529,17.529,0,0,0-1.608,5.757c0,.986.068,4.779.068,4.779s.281,7.51-.493,8.344a1.312,1.312,0,0,0-.349,1.517s1.259,5.689.7,7.161-.137,4.915-.137,4.915-1.123,10.885-1.267,11.447-.91,4.915-.068,5.264a11.24,11.24,0,0,1,2.458,2.458s.349,9.2-.91,9.9-.569,4.286-.569,4.286-10.18,1.965-12.493.842-7.3-1.752-7.3-1.752l.7-2.276c-.045.083-.508.834-.834-2.041-.357-3.034,2.594-1.517,2.594-1.517s2.321.561-1.4-3.087-1.9-7.373-1.684-7.373.7-5.409.7-5.409a17.878,17.878,0,0,0,.144-5.758c-.493-2.526-.91-10.392-.91-10.392s.349-5.97-.288-8.147.425-6.068.637-7.024-.637-9.27-.637-9.27a26,26,0,0,0,.288-6.827c-.425-2.883.417-13.487.417-13.487l1.267-12.213a25.24,25.24,0,0,0,.759-5.31c-.152-1.517,1.054-6.948,1.054-6.948a7.706,7.706,0,0,1,.561-3.376c.706-1.4.986-6.068.986-6.068l6.744-15.444,3.3-13.654,44.588-.425s.159,1.183.432,3.33.652,5.31,1.077,9.247c.387,3.565.812,7.76,1.229,12.425C1078.7,673.206,1075.887,675.876,1075.887,675.876Z" transform="translate(-266.476 -166.978)" fill="#3f3d56"/><path d="M1082.46,523.709l-10.385,11.113s-13.335-5.31-11.932-7.168c.538-.705.455-2.936.144-5.393-.493-3.891-1.517-8.344-1.517-8.344s23.31-3.793,21.338.136a6.463,6.463,0,0,0-.144,4.665,17.668,17.668,0,0,0,2.5,4.991Z" transform="translate(-277.198 -137.766)" fill="#fbbebe"/><path d="M1080.078,514c-.713,1.441-1.054,1.578-.607,3.125-3.034,3.269-6.926,6.827-11.75,6.827a16.628,16.628,0,0,1-7.434-1.745c-.493-3.891-1.517-8.344-1.517-8.344S1082.05,510.073,1080.078,514Z" transform="translate(-277.198 -137.754)" opacity="0.1"/><path d="M1081.97,499.772a16.715,16.715,0,1,1-33.43,0v-.243a16.712,16.712,0,0,1,33.422.243Z" transform="translate(-274.728 -130.684)" fill="#fbbebe"/><path d="M1080.836,647.542c-2.215,0-9.588.076-17.826.212h-.1l-2.723.046h-.083c-9.77.152-19.4-1.752-23.265-1.4-8.215.759,2.951-7.586,2.951-7.586a68.9,68.9,0,0,0,18.714,1.889l2.367-.121c7.464-.425,14.966-1.123,18.888-2.276C1080.032,640.464,1080.411,643.62,1080.836,647.542Z" transform="translate(-271.175 -168.198)" opacity="0.1"/><path d="M1080.836,646.984c-2.215,0-9.588.083-17.826.212h-.1l-2.723.045h-.083c-9.77.159-19.4-1.752-23.265-1.388-8.215.759,2.951-7.586,2.951-7.586a68.548,68.548,0,0,0,18.714,1.889l2.367-.121c7.464-.417,14.966-1.123,18.888-2.276C1080.032,639.907,1080.411,643.062,1080.836,646.984Z" transform="translate(-271.175 -168.065)" fill="#5f5d7e"/><path d="M1057.37,532.67l-12.9,6.068-9.975,77.1s5.9-2.67,9.27-.986,13.76.144,13.76.144,7.586-.425,8.708.425,14.329-3.512,14.329-3.512,2.39-5.31.561-6.182.561-9.1.561-9.1l-1.123-55.617-2.276-7.161-6.068-3.656-6.175,4.915-2.951.425Z" transform="translate(-271.338 -142.093)" opacity="0.1"/><path d="M1057.363,531.563l-12.9,6.068-10,77.107s5.9-2.67,9.27-.986,13.76.144,13.76.144,7.586-.425,8.708.417,14.329-3.5,14.329-3.5,2.39-5.31.561-6.182.561-9.1.561-9.1l-1.123-55.617-2.276-7.161-6.068-3.656-6.175,4.915-2.951.425Z" transform="translate(-271.331 -141.827)" fill="#e7effd"/><path d="M1061.164,536.72s3.725,4.422,3.656,5.31-.212,3.095-.212,3.095l-2.807,5.682s-1.517,7.092-1.517,8.572-2.458,14.253-2.458,14.253l-3.011,19.685-3.724,25.791,3.793,6.531,4.5-3.793,5.97-45.923,1.259-9.057s1.335-16.294,1.335-17.978a57.171,57.171,0,0,0-.759-6.106s.918-4.218,4.711-5.2-.288-.212-.288-.212l-2.169-1.752-1.9.759S1062.286,534.755,1061.164,536.72Z" transform="translate(-275.344 -143.404)" opacity="0.1"/><path d="M1060.633,536.148s3.717,4.422,3.649,5.31-.212,3.087-.212,3.087l-2.807,5.689s-1.517,7.092-1.517,8.564-2.458,14.253-2.458,14.253l-2.943,19.662L1050.62,618.5l3.793,6.531,4.491-3.793,5.97-45.923,1.267-9.057s1.335-16.294,1.335-17.978a57.47,57.47,0,0,0-.759-6.114s.91-4.21,4.7-5.2-.281-.2-.281-.2l-2.177-1.76-1.9.759S1061.756,534.183,1060.633,536.148Z" transform="translate(-275.23 -143.257)" fill="#e74c3c"/><path d="M1059.684,526.79s-.561.425-.706,3.231-2.109,9.1-2.109,9.1,7.3-5.052,10.953-4.491Z" transform="translate(-276.739 -141.272)" opacity="0.1"/><path d="M1059.684,525.68s-.561.425-.706,3.231-2.109,9.1-2.109,9.1,7.3-5.052,10.953-4.491Z" transform="translate(-276.739 -141.004)" fill="#e7effd"/><path d="M1083.2,523.83l-11.515,10.112s9.687,5.758,10.953,7.161,2.526-13.76,2.526-13.76Z" transform="translate(-280.317 -140.557)" opacity="0.1"/><path d="M1083.755,522.72l-11.515,10.112s9.694,5.757,10.953,7.161,2.526-13.76,2.526-13.76Z" transform="translate(-280.45 -140.289)" fill="#e7effd"/><path d="M1050.485,526.757s-1.259-.63-2.458,1.2a7.926,7.926,0,0,1-3.436,2.663s-12.782,2.041-13.275,3.725l-5.97.349s-2.109.281-2.276,4.711-1.335,4.84-1.335,4.84-2.458,4.354-2.276,6.6a3.694,3.694,0,0,1-1.9,3.376l8.776,22.817s.281,9.414-1.335,12.85-4.635,18.683-4.635,18.683,1.267-.281,1.191.561-1.517,10.043-1.517,10.043a20.447,20.447,0,0,1-1.123,4.915c-.7,1.267-.759,7.859-.759,7.859l-1.123,4.779s2.663,5.97,6.736,5.128,11.439-16.787,11.439-16.787l4.7-17.2,3.656-16.992,1.054-11.515,1.684-25.5,2.458-16.848S1051.471,527.955,1050.485,526.757Z" transform="translate(-267.123 -141.239)" opacity="0.1"/><path d="M1049.932,525.647s-1.267-.63-2.458,1.2a7.973,7.973,0,0,1-3.444,2.662s-12.782,2.041-13.275,3.725l-5.962.349s-2.109.281-2.321,4.7-1.335,4.847-1.335,4.847-2.458,4.354-2.276,6.6a3.679,3.679,0,0,1-1.9,3.376l8.807,22.848s.281,9.414-1.335,12.85-4.635,18.683-4.635,18.683,1.267-.281,1.2.561-1.517,10.036-1.517,10.036-.417,3.656-1.123,4.915-.759,7.866-.759,7.866l-1.123,4.779s2.67,5.97,6.744,5.12,11.447-16.779,11.447-16.779l4.7-17.2,3.649-16.992,1.009-11.56,1.684-25.5,2.458-16.848S1050.911,526.845,1049.932,525.647Z" transform="translate(-266.987 -140.97)" fill="#65617d"/><path d="M995.585,593.2l-4.073,2.807a48.233,48.233,0,0,1-10.68-.9l-2.276-1.009-.455-.2.47.152a9.3,9.3,0,0,0,5.621.2c5.765-1.942,5.128-11.454,4.9-13.608a1.992,1.992,0,0,0-.045-.41h0v.053a3.8,3.8,0,0,0,.265.372l.258.273h0l2.109,4.051a1.094,1.094,0,0,1,0,.174Z" transform="translate(-257.721 -154.177)" opacity="0.1"/><path d="M1009.822,561.14l-1.965.561-.281,4s-2.276-.349-2.951,2.39a9.641,9.641,0,0,1-1.752,4.005s-3.861,3.232-4.073,5.97l-2.389,1.472s-5.545-1.267-6.827-3.512c0,0,2.534,18.114-10.954,13.654,0,0,15.1,6.6,15.8,7.517s5.31,3.58,9.55,1.335a10.016,10.016,0,0,0,5.128-5.689s4.073-5.689,4.21-6.531,3.3-1.828,3.3-1.828l6.068-14.6Z" transform="translate(-257.849 -149.565)" fill="#65617d"/><path d="M1084.3,531.99l2.033-9.27s.918,3.034,1.828,3.724l3.034,2.276a17.813,17.813,0,0,0,4.073,1.4c1.039,0,6.744,1.517,7.442,2.276s3.512.212,3.512.212,2.314.759,4.354,1.267,3.034,3.861,2.594,5.2a4.058,4.058,0,0,0,.986,3.793c.842.842,1.267,3.58,1.267,3.58a4.112,4.112,0,0,1,2.382,2.033c.706,1.517.493,4.915.493,4.915l-10.461,14.746s.137,5.689-.281,6.956,1.472,22.757,1.472,22.757l2.177,36.934a38.317,38.317,0,0,1-3.512,2.738c-.63.281-1.259-13.062-1.259-13.548s-16.225-24.274-16.225-24.274-2.177-3.512-2.177-4.286-2.033-7.866-2.033-7.866L1082.91,573.9Z" transform="translate(-283.026 -140.289)" opacity="0.1"/><path d="M1119.419,552.6v.8l-10.453,14.731h0s.144,5.689-.281,6.956c-.243.759.288,8.291.759,14.5.356,4.476.683,8.253.683,8.253l.925,15.664,1.252,21.24a38.307,38.307,0,0,1-3.512,2.739c-.63.281-1.259-13.062-1.259-13.556s-16.226-24.274-16.226-24.274-2.177-3.512-2.177-4.286-2.033-7.866-2.033-7.866l-3.087-13.654,1.4-41.85,1.191-9.27a19.9,19.9,0,0,0,2.67,3.717l3.034,2.321a17.812,17.812,0,0,0,4.073,1.4c1.039,0,6.744,1.517,7.442,2.276s3.512.212,3.512.212,2.321.759,4.354,1.267,3.034,3.861,2.594,5.2a4.066,4.066,0,0,0,.986,3.793c.842.842,1.267,3.58,1.267,3.58a4.112,4.112,0,0,1,2.382,2.033,11.38,11.38,0,0,1,.5,4.074Z" transform="translate(-283.292 -140.292)" fill="#65617d"/><path d="M1017.53,808.76c.349,0,15.1.561,14.815,2.951S1017.53,808.76,1017.53,808.76Z" transform="translate(-267.241 -209.351)" opacity="0.1"/><path d="M1021.88,814s9.9,1.616,7.3,3.087S1021.88,814,1021.88,814Z" transform="translate(-268.291 -210.617)" opacity="0.1"/><path d="M1070.39,806.73s16.43,1.4,13.973,3.224-8.284,2.109-8.564,2.177S1070.39,806.73,1070.39,806.73Z" transform="translate(-280.004 -208.861)" opacity="0.1"/><path d="M1067.8,816.26s9.1,1.517,9.406,3.3S1067.8,816.26,1067.8,816.26Z" transform="translate(-279.378 -211.162)" opacity="0.1"/><path d="M1074.46,760.53s8.344,1.965,8.852,3.3Z" transform="translate(-280.986 -197.707)" opacity="0.1"/><path d="M1031.371,768.49s-4.354,1.267-.137,3.793S1031.371,768.49,1031.371,768.49Z" transform="translate(-270.106 -199.629)" opacity="0.1"/><path d="M1057.43,678.992c.493,0,8.147-2.526,10.817-1.4a17.787,17.787,0,0,0,5.962,1.123Z" transform="translate(-276.875 -177.612)" opacity="0.1"/><path d="M1055.56,688.846l-.076.7-6.546,17.143s-1.054,5.2-1.965,8.147a53.521,53.521,0,0,0-1.373,6.069l5.8-35.933Z" transform="translate(-274.018 -179.463)" opacity="0.1"/><path d="M1070.767,647.921l-2.723.046h-.083l-1.6-7.077,2.367-.129Z" transform="translate(-279.031 -168.789)" fill="#3f3d56"/><path d="M1106.842,636.754l-1.745,1.441-5.841,4.8s-15.793,8.428-20.147.425c-3.838-7.055,14.071-12.091,18.387-13.191l.918-.22Z" transform="translate(-281.98 -166.194)" fill="#fbbebe"/><path d="M1026.88,547.9s3.087,1.4,3.793,3.368S1026.88,547.9,1026.88,547.9Z" transform="translate(-269.498 -146.369)" opacity="0.1"/><path d="M1013.3,575.67s-4.491,5.477-2.67,7.586S1013.3,575.67,1013.3,575.67Z" transform="translate(-265.47 -153.074)" opacity="0.1"/><path d="M1118.8,552s-4.21.425-4.354,4.073Z" transform="translate(-290.642 -147.359)" opacity="0.1"/><path d="M1068.72,623.564c.425-.425,10.112-14.746,12.365-13.48Z" transform="translate(-279.6 -161.364)" opacity="0.1"/><path d="M1081.982,499.784a16.687,16.687,0,0,1-1.98,7.889h-.122c-1.062-.228-1.616-1.456-2.42-2.23a3.284,3.284,0,0,0-3.793-.531,3.853,3.853,0,0,0-1.866,3.6c-.531-2.276-.364-4.642-.888-6.9s-2.094-4.551-4.248-4.551c-.926,0-2.01.341-2.678-.357a6.637,6.637,0,0,1-.759-1.585c-1.517-2.5-6.22-1.236-8.132.046s-4.134,3.315-6.508,4.407a16.712,16.712,0,0,1,33.422.243Z" transform="translate(-274.74 -130.697)" opacity="0.1"/><path d="M1061.831,491.794a10.657,10.657,0,0,0,.759,1.593c.667.69,1.752.334,2.678.349,2.154.038,3.732,2.321,4.248,4.551s.357,4.642.9,6.888a3.793,3.793,0,0,1,1.858-3.6,3.3,3.3,0,0,1,3.793.523c.8.759,1.358,2.01,2.42,2.23s2.078-.8,2.458-1.912a29.27,29.27,0,0,0,.607-3.5c.478-2.185,1.912-3.982,2.7-6.068a11.006,11.006,0,0,0-.068-7.843c-.531-1.32-1.312-2.5-1.843-3.793-.812-1.995-1.024-4.255-2.01-6.159a7.282,7.282,0,0,0-8.746-3.6c-1.517.576-2.852,1.684-4.4,2.185-2.078.668-4.293.167-6.44-.137s-4.551-.326-6.25,1.085c-1.987,1.631-2.534,4.688-4.4,6.47-.759.759-1.76,1.229-2.587,1.919a3.565,3.565,0,0,0-1.449,2.852c.129,1.456,1.517,2.776,1.024,4.127a3.2,3.2,0,0,1-.759,1.024,14.7,14.7,0,0,0-3.4,5.788c3.793,1.168,7.828-2.974,10.764-4.931C1055.611,490.565,1060.291,489.306,1061.831,491.794Z" transform="translate(-273.371 -127.826)" fill="#7c5c5c"/><path d="M1112.778,636.754l-1.745,1.441c-1.517-2.572-7.874-7.7-7.874-7.7l.273-.265.918-.22Z" transform="translate(-287.916 -166.194)" opacity="0.1"/><path d="M1114.6,633.435s-.622,1.563-1.275,2.913-1.358,2.579-1.388,1.585c-.076-1.972-8.215-8.572-8.215-8.572l1.1-1.077,1.282-1.244Z" transform="translate(-288.051 -165.476)" fill="#e7effd"/><path d="M1114.9,619.143l.925,15.664c-2.185-3.391-8.17-12.084-12.016-11.8l9.338-10.741a12.511,12.511,0,0,0,1.07-1.373C1114.574,615.365,1114.9,619.143,1114.9,619.143Z" transform="translate(-288.073 -161.577)" opacity="0.1"/><path d="M1114.948,633.435s-.622,1.563-1.275,2.913c-2.45-3.353-5.811-7.32-8.5-8.063l1.282-1.244Z" transform="translate(-288.401 -165.476)" opacity="0.1"/><path d="M1121.776,560.58l2.526,1.965s4.218.076,4.635,3.58,4.286,5.128,4.286,5.128,2.875,2.882,2.875,4.218,2.177,3.717,2.177,3.929,2.109,4.491,1.828,5.264,2.276,4.142,1.472,5.409a32.51,32.51,0,0,0-1.684,3.512s-3.3,6.319-4.984,7.51-9.406,11.242-9.406,11.242-8.291,9.543-8.291,12.493c0,0-8.071-13.48-12.85-13.131l9.338-10.741s1.616-1.76,1.692-2.807,4.491-5.9,6.6-6.114c0,0,.349-2.875-.561-2.951s-1.684-2.276-1.684-2.276-6.182-7.3-6.25-11.94S1121.776,560.58,1121.776,560.58Z" transform="translate(-288.205 -149.43)" fill="#65617d"/><path d="M1130.7,569.37s-5.9,4.354-4.635,5.765S1130.7,569.37,1130.7,569.37Z" transform="translate(-293.402 -151.552)" opacity="0.1"/><path d="M1132.6,592.573s10.953-3.512,12.076,0Z" transform="translate(-295.024 -156.778)" opacity="0.1"/><path d="M1030.739,838.684s-5.9,3.869-8.852,3.3a10.62,10.62,0,0,0-5.97.986,17.72,17.72,0,0,1-7.442,4.847c-4.779,1.616-11.447.979-15.239-.281-1.79-.6-1.934-1.373-1.07-2.321,4.119.819,13.335,2.45,15.816,1.267a65.829,65.829,0,0,0,7.866-4.915s6.069-.842,6.88-.842a75.131,75.131,0,0,0,7.9-3.034Z" transform="translate(-260.993 -216.336)" opacity="0.1"/><path d="M1084.845,849.45a1.283,1.283,0,0,1-.053.387s-1.4,3.087-9.2,4.21-7.79-2.594-7.79-2.594l.076-1.009C1070.341,851.384,1075.727,852.424,1084.845,849.45Z" transform="translate(-279.378 -219.176)" opacity="0.1"/><path d="M1030.164,568.26s0,16.013-1.365,17.591S1030.164,568.26,1030.164,568.26Z" transform="translate(-269.869 -151.284)" opacity="0.1"/><path d="M1114.17,575.07l2.04,5.719S1117.015,575.176,1114.17,575.07Z" transform="translate(-290.574 -152.929)" opacity="0.1"/><g transform="translate(769.587 356.738)" opacity="0.1"><path d="M1048.324,492.87c.516-1.312-.834-2.609-1.009-4.02a2.586,2.586,0,0,0-.228,1.267c.091,1.07.88,2.063,1.085,3.034A1.739,1.739,0,0,0,1048.324,492.87Z" transform="translate(-1043.962 -488.85)"/><path d="M1070.635,509.411c-.5-2.215-.349-4.551-.865-6.774s-2.094-4.551-4.248-4.551c-.925,0-2.01.334-2.678-.357-.41-.417-.485-1.077-.759-1.593-1.517-2.488-6.22-1.221-8.139.053-2.867,1.9-6.827,5.9-10.5,4.991-.174.425-.341.857-.478,1.3,3.793,1.168,7.828-2.974,10.764-4.931,1.919-1.274,6.6-2.534,8.139-.046a10.644,10.644,0,0,0,.759,1.593c.668.69,1.752.334,2.678.349,2.154.038,3.732,2.321,4.248,4.551s.356,4.642.9,6.888a3.792,3.792,0,0,1,.182-1.479Z" transform="translate(-1042.97 -490.265)"/><path d="M1090.006,510.231c-.379,1.115-1.381,2.139-2.465,1.912s-1.608-1.456-2.412-2.23a3.307,3.307,0,0,0-3.793-.531,3.838,3.838,0,0,0-1.866,3.406,3.664,3.664,0,0,1,1.654-2.033,3.3,3.3,0,0,1,3.793.523c.8.759,1.358,2.01,2.42,2.23s2.078-.8,2.458-1.912a8.963,8.963,0,0,0,.387-2.018,4.823,4.823,0,0,1-.174.652Z" transform="translate(-1051.782 -493.718)"/><path d="M1096.8,497.5c-.759,2.078-2.223,3.876-2.7,6.068-.091.44-.152.9-.2,1.35.485-2.185,1.9-3.975,2.693-6.068a10.534,10.534,0,0,0,.645-2.913A10.626,10.626,0,0,1,1096.8,497.5Z" transform="translate(-1055.264 -490.562)"/></g><circle cx="0.174" cy="0.174" r="0.174" transform="translate(709.464 414.176)" fill="#e6e8ec"/><rect width="137.435" height="157.947" rx="6.61" transform="translate(644.106 418.265)" fill="#fff"/><rect width="137.435" height="157.947" rx="6.61" transform="translate(644.106 418.265)" fill="#5a5773" opacity="0.1"/><rect width="123.417" height="141.835" rx="6.61" transform="translate(651.115 426.321)" fill="#fff"/><rect width="84.67" height="29.22" rx="6.03" transform="translate(669.07 454.767)" fill="#e74c3c"/><rect width="78.458" height="5.962" transform="translate(672.18 494.675)" fill="#e74c3c"/><rect width="107.958" height="5.962" transform="translate(658.845 507.259)" fill="#e74c3c"/><rect width="107.958" height="5.962" transform="translate(658.845 520.503)" fill="#e74c3c"/><rect width="107.958" height="5.962" transform="translate(658.845 533.748)" fill="#e74c3c"/><rect width="323.608" height="157.947" rx="6.61" transform="translate(0 366.054)" fill="#fff"/><rect width="323.608" height="157.947" rx="6.61" transform="translate(0 366.054)" fill="#5a5773" opacity="0.1"/><rect width="290.588" height="141.835" rx="6.61" transform="translate(16.506 374.109)" fill="#fff"/><rect width="199.356" height="29.22" rx="6.03" transform="translate(58.796 402.563)" fill="#e74c3c"/><rect width="184.731" height="5.962" transform="translate(66.108 442.463)" fill="#e74c3c"/><rect width="254.193" height="5.962" transform="translate(34.704 455.047)" fill="#e74c3c"/><rect width="254.193" height="5.962" transform="translate(34.704 468.292)" fill="#e74c3c"/><rect width="254.193" height="5.962" transform="translate(34.704 481.536)" fill="#e74c3c"/><path d="M132.687,769.923c.9-3.292,1.517-6.19,1.517-6.19a12.9,12.9,0,0,1,1.684-6.273v-.91h0l.258-6.683a22.248,22.248,0,0,0-1.517-3.565c-1.123-2.147.379-9.8.379-9.8s4.878-10.673,4.058-17.6S149.4,688.689,149.4,688.689a29.948,29.948,0,0,0-.7-6.827,5.235,5.235,0,0,1-.076-1.419,1.344,1.344,0,0,1,0-.174v.053c.326-4.551,4.24-12.9,4.24-12.9l.144-16.233s-1.927-9.649,2.276-22.34c1.479-4.43,2.45-7.98,3.087-10.726.076-.311.144-.607.2-.9-7.646-1.472-13.487-2.67-13.487-2.67s5.181-18.494,8.344-21.642,5.939-13.328,5.939-13.328,2.078-13.123-.3-17.068-2.488-10.62-2.488-10.62-5.628-4.422-6.281-6.311a30.945,30.945,0,0,1-1.608-8.344c.083-2.2.888-4.172.69-5.348s1.9-5.53,1.016-7.669a5.872,5.872,0,0,1-.3-2.041v-.061h0a28.386,28.386,0,0,1,.721-5.454,15.474,15.474,0,0,1,5.841-2.837l.144-.5.379-1.3a6.324,6.324,0,0,1,.576-.319l.038-.478.121-1.889-.728-4.309c-1.517-7.479,8.435-8.2,8.435-8.2a5.211,5.211,0,0,1,2.89-2.351c2.018-.622-.091,11.158-1.054,11.879-.759.539-3.034,4.172-4.134,5.955h0l-.182.3a4.094,4.094,0,0,1,.44.493l-.478,2.556-.076.387a10.62,10.62,0,0,1,1.479,2.754,5.719,5.719,0,0,0-1.608,4.142,13.344,13.344,0,0,1-.759,5.105c.106-.114,1.434-1.441,2.693-1.062s4.764,1.585,4.764,1.585,2.632.569,2.367,1.145,1.692,3.216,1.692,3.216l7.381-6.471c.083-.2.159-.4.235-.607a16.95,16.95,0,0,0,.759-2.936,15.862,15.862,0,0,1-2.276-.812,4.953,4.953,0,0,1-1.927-1.335,7.964,7.964,0,0,1-1.024-3.118c-.485-2.094-1.623-3.99-2.42-6a19.183,19.183,0,0,1-1.016-10.62,7.07,7.07,0,0,1,1.214-3.034c1.229-1.555,3.36-2.124,4.946-3.338s2.647-3.133,4.468-4.02a8.61,8.61,0,0,1,5.431-.258,29.023,29.023,0,0,1,9.9,4.028c1.016.66,2.132,1.418,3.338,1.244a4.6,4.6,0,0,0,2.5-1.692.561.561,0,0,1,0-.106l.083-.083a12.509,12.509,0,0,1,.9,5.371,4.007,4.007,0,0,1-.061.85v.3a1.377,1.377,0,0,0,0,.25h0a1.251,1.251,0,0,0,.046.372,2.662,2.662,0,0,0,.63.994,5.425,5.425,0,0,1,.546.812,1.084,1.084,0,0,0-.083-.3,4.233,4.233,0,0,1,.652,2.276,2.222,2.222,0,0,1-.6,1.585,7.052,7.052,0,0,1-1.2.9,13.616,13.616,0,0,1-7.039,13.874c-.091.2-.182.4-.266.607a16.961,16.961,0,0,0-1.593,7.714,1.819,1.819,0,0,0,.061.569c.061.19.174.2.25.311h0s11.758.569,14.625-1.836,6.751,6.395,6.751,6.395,4.187.979,5.06.2,5.8.106,5.8.106a10.62,10.62,0,0,1,7.449-2.4,21.764,21.764,0,0,1,5.515-2.792h0l.137-.046h0a5.947,5.947,0,0,1,2.663-.235s5.97-4.551,7.752-7.062,10.15-11.712,10.15-11.758l.053-.455.144-1.381a4.642,4.642,0,0,0,.713.091l.182-.478a26.041,26.041,0,0,1,1.858-3.853s.068-1.752-.425-2.207.478-6.827.478-6.827,5.682-11.985,10-2.708c0,0,8.6,6.228.925,12.8,0,0-3.034,1.32-3.467,2.435-.3.759-1.388,2.746-2.116,4.089l-.326.6.083.076-.152,1.138-.061.448c1.358.842,2.276,1.661,2.025,2.276a12.9,12.9,0,0,0-.963,3.118s-10.726,12.365-12.258,17.818c0,0-28.112,15.277-37.169,16.1l1.252,8.223a65.548,65.548,0,0,1,.106,6.668c-.19,1.745.713,9.717.713,9.717s1.115,11.727,2.382,13.411.759,8.678.759,8.678a59.093,59.093,0,0,0,1.426,9.983c1.153,4.483,0,9.93,0,9.93s4.18,10.673-6.516,3.133c0,0-5.371-.539-11.56-.986v.614c0,.8-.038,1.669-.061,2.579-.152,6.015-.432,14.3-.948,20.557-.91,11.067-5.128,32.868-5.128,32.868l-.425,11.014a14.6,14.6,0,0,1,.2,3.163,20.481,20.481,0,0,1-3.391,10.916l-1.13,7.32s-2.162,4.764-2.314,7.654a3.443,3.443,0,0,0,.061.705,5.628,5.628,0,0,1,.053,1.13c0,3.338-2.336,11.242-2.336,11.242s-.432,8.048-1.654,8.466c-1.047.364,1.2,4.7,1.866,5.94a1.237,1.237,0,0,0,.053-.228l.144.243a5.719,5.719,0,0,1,.3,2.056,2.936,2.936,0,0,1-1.449,2.776c-2.344,1.312-3.618,2.427-1.692,2.974a21.438,21.438,0,0,1,2.109.523l.114-.266a1.3,1.3,0,0,1,.759,1.441,5.894,5.894,0,0,1-.827,2.7,29.4,29.4,0,0,1-3.489,5.826l-.925-.136a4.626,4.626,0,0,0,.5,1.009,3.853,3.853,0,0,0,1.32,1.267,4.219,4.219,0,0,0,1.623.622,4.68,4.68,0,0,1,3.353,1.8c1.138,1.6,1.813,3.747-.637,5.515l-8.731,2.64s-14.9,1.358-13.988-1.934,1.517-6.19,1.517-6.19a13.161,13.161,0,0,1,1.426-5.856,7.837,7.837,0,0,1,.561-.85l-.523-.076s-.865-7.4-2.291-8.83c-.319-.341-.387-.592-.3-.759-.129-.4.25-.622.759-.759a1.181,1.181,0,0,0,.1.288,7.316,7.316,0,0,1,1.441-.1s.63-3.831-.88-5.31a1.441,1.441,0,0,1-.258-1.153,5.909,5.909,0,0,1,.22-1.563.568.568,0,0,0,.053.091,57.407,57.407,0,0,1,3.793-8.905s.25-3.5-.66-4.938.857-19.009.857-19.009-.038-8.526,1.2-12.448-.994-8.685-.994-8.685a1.2,1.2,0,0,1,.038-.25.314.314,0,0,0,0-.068s.076-.523.2-1.335v.083c.334-2.276.948-6.3,1.358-8.185.584-2.663.478-15.52.478-15.52l-1.965-5.537-4.225,9.3-4.551,12.44a10.7,10.7,0,0,0-2.276,5.31v.4a6.314,6.314,0,0,1,0,.842,7.525,7.525,0,0,1-1.426,4.438s-1.312,5.909-3.034,7.358-1.858,4.369-1.858,4.369-2.382,8.557-3.406,10.036c-.857,1.244-1.039,4.756-1.07,5.833h0v.311s-.4,3.08-.493,5.674v.918a.166.166,0,0,1,0-.061,8.791,8.791,0,0,0,.167,2.1s0,.083,0,.129v-.44a22.066,22.066,0,0,1,.417,5.4c-.068,3.1-.683,6.759-2.647,8.845-3.4,3.611-5.424,3.034-5.424,3.034s1.388,4.726,3.277,5.735a1.2,1.2,0,0,1,.2.136.466.466,0,0,1,.053-.265,2.276,2.276,0,0,1,.5,1.76,12.577,12.577,0,0,1-2.655,6.827,3.793,3.793,0,0,1-1.661.9,2.848,2.848,0,0,0,.3.2,5.941,5.941,0,0,0,.652.334,3.224,3.224,0,0,0,.971.3,4.612,4.612,0,0,1,3.353,1.8c1.138,1.593,1.813,3.74-.637,5.507l-8.731,2.64S131.769,773.215,132.687,769.923Z" transform="translate(-53.592 -132.268)" fill="url(#c)"/><path d="M202.735,864.028l8.458-2.647c2.374-1.775,1.722-3.922.622-5.522a4.43,4.43,0,0,0-3.239-1.782,3.96,3.96,0,0,1-1.578-.63,3.792,3.792,0,0,1-1.267-1.259,6.221,6.221,0,0,1-.827-3.262s-9.057-3.034-11.667-.448a6.828,6.828,0,0,0-1.161,1.585,13.654,13.654,0,0,0-1.4,5.856s-.576,2.89-1.464,6.19S202.735,864.028,202.735,864.028Z" transform="translate(-67.241 -218.689)" fill="#2d293d"/><path d="M149.12,856.528l8.458-2.647c2.374-1.775,1.722-3.922.622-5.515a4.43,4.43,0,0,0-3.247-1.79,2.983,2.983,0,0,1-.941-.288,5.967,5.967,0,0,1-.63-.341c-2.276-1.373-2.1-4.551-2.1-4.551s-9.057-3.034-11.667-.448a6.708,6.708,0,0,0-.925,1.153,13.237,13.237,0,0,0-1.638,6.288s-.584,2.9-1.464,6.19S149.12,856.528,149.12,856.528Z" transform="translate(-54.293 -216.871)" fill="#2d293d"/><path d="M194.153,848.477A6.827,6.827,0,0,0,193,850.063h0l13.654,2.116a6.221,6.221,0,0,1-.827-3.262S196.793,845.891,194.153,848.477Z" transform="translate(-68.164 -218.688)" opacity="0.1"/><path d="M139.659,842.131l-.1,2.572c2,3.6,12.357,3.231,15.421,1.585a5.956,5.956,0,0,1-.63-.341c-2.276-1.373-2.1-4.551-2.1-4.551s-9.057-3.034-11.667-.448A6.707,6.707,0,0,0,139.659,842.131Z" transform="translate(-55.262 -216.871)" opacity="0.1"/><path d="M137.973,784.99a23.568,23.568,0,0,1,1.517,3.565l-.372,9.209c2.185,3.944,14.367,3.125,16.081,1.092s3.671-7.457,1.843-8.458-3.171-5.735-3.171-5.735,1.965.546,5.264-3.034,2.678-11.932,2.162-13.935.341-8.632.341-8.632.061-4.673,1.054-6.152S166,742.875,166,742.875s.106-2.92,1.8-4.369,2.974-7.366,2.974-7.366a7.631,7.631,0,0,0,1.358-4.969c-.235-2.928,2.215-5.993,2.215-5.993l4.453-12.44,4.1-9.307,1.889,5.56s.091,12.858-.478,15.52-1.517,9.755-1.517,9.755,2.154,4.756.956,8.685-1.183,12.448-1.183,12.448-1.73,17.576-.85,19.009.63,4.931.63,4.931-5.173,10.081-3.717,11.545.85,5.31.85,5.31-3.262-.129-1.919,1.328,2.063,8.792,2.063,8.792l14.041,2.177a29.711,29.711,0,0,0,3.383-5.833c2.033-4.24-.2-3.861-2.056-4.4s-.63-1.661,1.638-2.974,1.107-4.513,1.107-4.513-3.163-5.849-1.972-6.266,1.608-8.466,1.608-8.466,2.7-9.482,2.215-12.069,2.207-8.678,2.207-8.678l1.092-7.312a20.2,20.2,0,0,0,3.1-13.783l.44-11.318s4.127-21.763,5.052-32.868c.576-7.085.865-16.772.994-22.817.076-3.4.106-5.644.106-5.644l-50.194-7.191a41.427,41.427,0,0,1-1.206,7.449,110.78,110.78,0,0,1-3.034,10.734c-4.111,12.691-2.276,22.34-2.276,22.34l-.159,16.233s-4.855,10.68-4.058,14.451a30.828,30.828,0,0,1,.668,6.827s-10.8,23.272-10.013,30.168-3.952,17.606-3.952,17.606S136.888,782.843,137.973,784.99Z" transform="translate(-54.782 -170.865)" fill="#575988"/><path d="M174.312,748.655,159.05,746S167.4,755.224,174.312,748.655Z" transform="translate(-59.967 -194.199)" opacity="0.05"/><path d="M162.393,726.39s-.759,5.4,2.511,7.586C164.874,733.96,159,732.8,162.393,726.39Z" transform="translate(-60.519 -189.464)" opacity="0.1"/><path d="M164.85,703.67s12.418,11.052,17.113,10.362S164.85,703.67,164.85,703.67Z" transform="translate(-61.368 -183.978)" opacity="0.1"/><path d="M204,757s9.656,2.594,9.8,6.508S204,757,204,757Z" transform="translate(-70.82 -196.854)" opacity="0.1"/><path d="M197.887,821s13.654,3.095,9.694,4.7a66.119,66.119,0,0,1-10.445,2.754S192.691,828.525,197.887,821Z" transform="translate(-68.735 -212.307)" opacity="0.05"/><g transform="translate(82.799 485.306)" opacity="0.05"><path d="M214.185,830.382a2.731,2.731,0,0,0,1.335-1.942l.129.25s1.168,3.194-1.108,4.551c-.258.144-.5.3-.759.44-.4-.091-.842-.167-1.259-.288C210.673,832.824,211.91,831.7,214.185,830.382Z" transform="translate(-155.461 -699.409)"/><path d="M191.579,828.115c-.364-.364-.311-1.259,0-2.4a6.516,6.516,0,0,1,.652,3.414,2.655,2.655,0,0,0-.652-1.009Z" transform="translate(-150.559 -698.75)"/><path d="M197.337,752.48a15.869,15.869,0,0,1,.759,4.331,16.543,16.543,0,0,0-.956-2.989S197.223,753.3,197.337,752.48Z" transform="translate(-151.963 -681.069)"/><path d="M156.141,742.4a5.569,5.569,0,0,1-.083-1.282c.144.88.235,1.692.288,2.4C156.285,743.161,156.217,742.789,156.141,742.4Z" transform="translate(-142.043 -678.327)"/><path d="M195.645,806.342a7.73,7.73,0,0,1-.243-2.6,8.776,8.776,0,0,1,.546,3.292,3.207,3.207,0,0,0-.3-.69Z" transform="translate(-151.538 -693.446)"/><path d="M190.57,836a45.818,45.818,0,0,1,1.327,7.229l14.041,2.177a29.4,29.4,0,0,0,3.391-5.833c.182-.372.319-.705.44-1.009.827.417,1.13,1.312-.083,3.831a29.758,29.758,0,0,1-3.383,5.826l-14.071-2.162s-.759-7.388-2.116-8.837C189.485,836.5,189.956,836.174,190.57,836Z" transform="translate(-150.195 -701.235)"/><path d="M215.731,772.89s-.425,8.048-1.608,8.465h0c-.539-1.358-.888-2.632-.357-2.822,1.183-.425,1.616-8.466,1.616-8.466s2.7-9.474,2.215-12.069,2.2-8.67,2.2-8.67l1.1-7.32a20.2,20.2,0,0,0,3.1-13.783l.432-11.318s4.111-21.8,5.006-32.868c.569-7.085.857-16.772.994-22.817,0-1.092.046-2.063.061-2.883l.4.061s0,2.276-.106,5.636c-.129,6.068-.417,15.74-.994,22.825-.9,11.06-5,32.868-5,32.868l-.44,11.31a20.223,20.223,0,0,1-3.095,13.783l-1.107,7.32s-2.693,6.068-2.207,8.678S215.731,772.89,215.731,772.89Z" transform="translate(-155.914 -658.34)"/><path d="M155.345,840.574a13.654,13.654,0,0,0,2.443-5.454c1.388,1.35-.455,6.334-2.086,8.268s-13.9,2.852-16.081-1.085l.083-2.223C142.738,843.328,153.722,842.5,155.345,840.574Z" transform="translate(-138.076 -701.022)"/><path d="M137.626,823.971a23.565,23.565,0,0,1,1.517,3.565l-.068,1.631A25.479,25.479,0,0,0,138,826.785a7.031,7.031,0,0,1-.394-2.905Z" transform="translate(-137.584 -698.308)"/><path d="M159.667,821.907a22.81,22.81,0,0,1-1.047-2.814s1.965.539,5.257-3.072c2.4-2.632,2.723-7.752,2.526-11.12.516,2.01,1.13,10.324-2.162,13.935C162.071,821.2,160.486,821.785,159.667,821.907Z" transform="translate(-142.663 -693.726)"/><path d="M169.036,773.326a62.375,62.375,0,0,0-.5,6.91,9.857,9.857,0,0,0-.2-1.092c-.508-2.01.334-8.632.334-8.632s.068-4.673,1.054-6.152,3.307-10.036,3.307-10.036.114-2.913,1.805-4.369,2.974-7.366,2.974-7.366a7.677,7.677,0,0,0,1.358-4.969c-.235-2.928,2.215-5.993,2.215-5.993l4.453-12.44,4.1-9.307,1.889,5.568v1.775l-1.517-4.551-4.1,9.3-4.453,12.448s-2.45,3.034-2.215,5.993a7.631,7.631,0,0,1-1.358,4.969s-1.282,5.909-2.974,7.358-1.8,4.369-1.8,4.369-2.321,8.557-3.307,10.043S169.036,773.326,169.036,773.326Z" transform="translate(-144.97 -670.784)"/></g><path d="M167.234,506.734l.713,4.293-.121,1.9-.091,1.4,4.847.69.584-.986h0c1.077-1.783,3.307-5.416,4.013-5.962.925-.721,2.989-12.5,1.032-11.879a5.12,5.12,0,0,0-2.807,2.352S165.8,499.262,167.234,506.734Z" transform="translate(-61.908 -133.876)" fill="#ffcdd3"/><path d="M167.94,519.5l4.847.69.584-.986h0a4.3,4.3,0,0,0-5.31-1.092Z" transform="translate(-62.114 -139.061)" opacity="0.1"/><path d="M166.2,521.912l6.364,1.737.167-.956.463-2.556a4.422,4.422,0,0,0-6.182-1.085l-.364,1.3Z" transform="translate(-61.694 -139.208)" fill="#dce6f2"/><path d="M303.74,509.58l6.706,3.944s.281-.539.675-1.274c.705-1.343,1.752-3.36,2.048-4.089.448-1.115,3.36-2.443,3.36-2.443,7.441-6.577-.88-12.789-.88-12.789-4.172-9.277-9.679,2.716-9.679,2.716s-.948,6.395-.47,6.827.41,2.207.41,2.207a25.791,25.791,0,0,0-1.805,3.853C303.869,509.163,303.74,509.58,303.74,509.58Z" transform="translate(-94.902 -132.246)" fill="#ffcdd3"/><path d="M303.74,515.68l6.706,3.945s.281-.539.675-1.274c-.941-.842-4.263-3.793-5.393-3.671a8.142,8.142,0,0,1-1.623,0C303.869,515.263,303.74,515.68,303.74,515.68Z" transform="translate(-94.902 -138.347)" opacity="0.1"/><path d="M302.71,517.815,310.3,521.9l.212-1.654.152-1.138s-4.309-3.99-5.629-3.9a7.164,7.164,0,0,1-2.018-.083l-.137,1.381Z" transform="translate(-94.653 -138.457)" fill="#dce6f2"/><path d="M190.45,540.139s33.43,5.082,27.232,2.807c-4.316-1.593-5.947-4.438-6.19-7.532a17.614,17.614,0,0,1,1.517-7.722,33.848,33.848,0,0,1,3.239-5.947s-25.123-15.1-20.481-2.071a20.587,20.587,0,0,1,1.221,6.137,17.3,17.3,0,0,1-.9,6.129,18.357,18.357,0,0,1-5.644,8.2Z" transform="translate(-67.549 -138.274)" fill="#ffcdd3"/><path d="M197.318,519.673a20.587,20.587,0,0,1,1.221,6.137c2.336,2.116,4.991,2.086,8.4,2.215,2.617.106,5.484.85,7.586-.334a33.846,33.846,0,0,1,3.239-5.947S192.675,506.641,197.318,519.673Z" transform="translate(-69.068 -138.274)" opacity="0.1"/><circle cx="13.889" cy="13.889" r="13.889" transform="translate(124.934 362.89)" fill="#ffcdd3"/><path d="M190.45,545.328s33.43,5.082,27.232,2.807c-4.316-1.593-5.947-4.438-6.19-7.532-1.6-1.874-4.908-3.307-7.039-4.089a10.112,10.112,0,0,0-6.068-.334,8.345,8.345,0,0,0-2.276.948,18.357,18.357,0,0,1-5.659,8.2Z" transform="translate(-67.549 -143.463)" opacity="0.1"/><path d="M166.2,522.53l6.364,1.737.167-.956a5.666,5.666,0,0,0-6.068-2.344Z" transform="translate(-61.694 -139.826)" opacity="0.1"/><path d="M302.71,518.267l7.586,4.089.212-1.654a57.448,57.448,0,0,0-7.661-3.7Z" transform="translate(-94.653 -138.908)" opacity="0.1"/><path d="M168.65,656.809c12.9,2.556,31.328,5.94,34.294,5.158,2.465-.645,10.241-.265,17,.228.076-3.4.106-5.644.106-5.644l-50.194-7.191A41.427,41.427,0,0,1,168.65,656.809Z" transform="translate(-62.285 -170.865)" opacity="0.1"/><path d="M151.72,621.437s42.525,9,47.175,7.775,28.18,1.2,28.18,1.2c10.339,7.525,6.311-3.14,6.311-3.14s1.145-5.446,0-9.93a60.689,60.689,0,0,1-1.373-9.983s.508-6.994-.713-8.67-2.276-13.411-2.276-13.411-.857-7.972-.675-9.717-.091-6.668-.091-6.668l-1.206-8.223c8.792-.827,36.016-16.135,36.016-16.135,1.517-5.431,11.9-17.887,11.9-17.887a13.473,13.473,0,0,1,.941-3.118c.759-1.836-9.581-5.97-9.581-5.97s-8.2,9.262-9.9,11.765-7.517,7.07-7.517,7.07a5.7,5.7,0,0,0-2.579.235H246.2a20.838,20.838,0,0,0-5.31,2.8,10.164,10.164,0,0,0-7.221,2.4s-4.756-.88-5.6-.1-4.9-.19-4.9-.19-3.793-8.784-6.531-6.379-14.162,1.851-14.162,1.851c-1.434-2.078-5.075-3.664-7.35-4.5a10.051,10.051,0,0,0-6.068-.334,7.885,7.885,0,0,0-2.45,1.07l-7.161,6.493s-1.889-2.64-1.631-3.216-2.276-1.138-2.276-1.138-3.345-1.183-4.612-1.578-2.5.941-2.609,1.062a13.487,13.487,0,0,0,.759-5.105,5.864,5.864,0,0,1,1.555-4.149c-3.694-10.187-13.229-2.139-13.229-2.139s-1.267,5.439-.41,7.586-1.183,6.493-1,7.669-.584,3.133-.668,5.348a32.907,32.907,0,0,0,1.517,8.344c.6,1.881,6.068,6.311,6.068,6.311s.1,6.66,2.4,10.62.281,17.068.281,17.068-2.731,10.172-5.773,13.328S151.72,621.437,151.72,621.437Z" transform="translate(-58.197 -139.043)" fill="#656691"/><path d="M237.815,554.266s1.434-3.793,2.609-4.1a26.871,26.871,0,0,0,3.444-1.388l-.7-1.464s-4.43,1.039-5.173,2.276S237.815,554.266,237.815,554.266Z" transform="translate(-78.935 -146.226)" opacity="0.1"/><path d="M269.22,545.545c.19,1.176,10.529,2.625,10.529,2.625L274.7,542.7h-.129A20.838,20.838,0,0,0,269.22,545.545Z" transform="translate(-86.567 -145.113)" opacity="0.1"/><circle cx="0.933" cy="0.933" r="0.933" transform="translate(212.373 384.638)" fill="#575988"/><circle cx="0.933" cy="0.933" r="0.933" transform="translate(211.106 386.459)" fill="#575988"/><circle cx="0.933" cy="0.933" r="0.933" transform="translate(209.87 388.135)" fill="#575988"/><circle cx="0.933" cy="0.933" r="0.933" transform="translate(208.581 389.956)" fill="#575988"/><circle cx="0.759" cy="0.759" r="0.759" transform="translate(98.802 385.799)" fill="#575988"/><circle cx="0.759" cy="0.759" r="0.759" transform="translate(98.62 387.513)" fill="#575988"/><circle cx="0.759" cy="0.759" r="0.759" transform="translate(98.446 389.228)" fill="#575988"/><path d="M221.2,598.15c.114-.129-27.46,32.064-47.137,12.091C174.06,610.241,206.147,615.855,221.2,598.15Z" transform="translate(-63.591 -158.501)" opacity="0.1"/><path d="M249.588,621.68s-15.755-.174-17.576,4.286l-.182,4.711a3.034,3.034,0,0,0,2.928.114c1.623-.8,11.318-5.264,14.587-2.807Z" transform="translate(-77.539 -164.182)" opacity="0.1"/><path d="M249.447,621.66s-15.057-.167-16.8,4.089l-.174,4.491a2.882,2.882,0,0,0,2.8.106c1.517-.759,10.825-5.014,13.95-2.678Z" transform="translate(-77.694 -164.177)" fill="#656691"/><path d="M240.423,576.2a51.125,51.125,0,0,1-6.5,10.233,41.014,41.014,0,0,1-9.922,8.86S240.074,578.324,240.423,576.2Z" transform="translate(-75.649 -153.202)" opacity="0.1"/><path d="M250.185,552.36s-3.034,11.234-9.975,14.822Z" transform="translate(-79.563 -147.446)" opacity="0.1"/><path d="M255.662,554.069c.076-.2,1.987,9.057-9.262,13.707C246.4,567.776,251.156,566.358,255.662,554.069Z" transform="translate(-81.057 -147.857)" opacity="0.1"/><path d="M166.134,540.564c.174,0-5.591,3.376-7.184,4.976C158.988,545.54,162.819,540.2,166.134,540.564Z" transform="translate(-59.943 -144.593)" opacity="0.1"/><path d="M208.918,521.981a2.981,2.981,0,0,1-1.161,1.836,2.86,2.86,0,0,1-1.32.235c-4.24.106-8.655.121-12.5-1.661a4.718,4.718,0,0,1-1.858-1.335,7.651,7.651,0,0,1-.994-3.118,45.132,45.132,0,0,0-2.336-5.993,19.722,19.722,0,0,1-.963-10.62,7.107,7.107,0,0,1,1.176-3.034c1.183-1.555,3.254-2.124,4.786-3.345s2.564-3.133,4.339-4.028a8.008,8.008,0,0,1,5.249-.258,27.55,27.55,0,0,1,9.634,4.043c.979.66,2.056,1.411,3.224,1.236a4.49,4.49,0,0,0,2.473-1.745,12.9,12.9,0,0,1,.8,6.068,2.617,2.617,0,0,0,0,.91,2.769,2.769,0,0,0,.607.994c.994,1.252,1.578,3.194.5,4.377-.47.516-1.176.759-1.631,1.312-.819.941-.614,2.352-.645,3.6a1.9,1.9,0,0,1-.349,1.221,1.813,1.813,0,0,1-1.73.341,4.718,4.718,0,0,0-1.821-.243,3.034,3.034,0,0,0-1.631,1.153C210.716,516.315,209.866,519.023,208.918,521.981Z" transform="translate(-66.825 -132.473)" fill="#2d293d"/><g transform="translate(124.707 361.502)" opacity="0.1"><path d="M192.959,523.88a4.659,4.659,0,0,0,1.858,1.343c3.846,1.783,8.261,1.76,12.5,1.661a2.769,2.769,0,0,0,1.32-.243,2.944,2.944,0,0,0,1.161-1.828c.933-2.966,1.8-5.666,3.853-8.079a3.034,3.034,0,0,1,1.631-1.161,4.87,4.87,0,0,1,1.821.243,1.79,1.79,0,0,0,1.729-.341,1.866,1.866,0,0,0,.349-1.214c0-1.252-.174-2.663.645-3.611.455-.523,1.161-.759,1.631-1.3a2.746,2.746,0,0,0,.372-2.776c.7,1.206.963,2.731.053,3.725-.47.516-1.168.759-1.631,1.312-.819.941-.607,2.351-.637,3.6a1.859,1.859,0,0,1-.357,1.221,1.805,1.805,0,0,1-1.729.341,4.681,4.681,0,0,0-1.813-.243,3.034,3.034,0,0,0-1.639,1.161c-2.048,2.4-2.913,5.113-3.853,8.071a2.192,2.192,0,0,1-2.473,2.078c-4.24.1-8.655.114-12.509-1.669a4.748,4.748,0,0,1-1.858-1.335,3.641,3.641,0,0,1-.554-1.145,1.4,1.4,0,0,0,.129.19Z" transform="translate(-192.83 -497.892)"/><path d="M229.35,501.934a1.874,1.874,0,0,1-.394-.759,2.617,2.617,0,0,1,0-.91,12.934,12.934,0,0,0-.455-5.052l.076-.083a12.8,12.8,0,0,1,.812,6.068,4.116,4.116,0,0,0-.038.736Z" transform="translate(-201.442 -495.13)"/></g><path d="M212.568,542.939s-17.447,1.631-18.888-1.039" transform="translate(-68.328 -144.92)" opacity="0.1"/><path d="M170.724,532.1s-9.641-.357-11.894,3.171" transform="translate(-59.914 -142.551)" opacity="0.1"/></g></svg>