<svg xmlns="http://www.w3.org/2000/svg" xmlns:xlink="http://www.w3.org/1999/xlink" width="834.977" height="695.982" viewBox="0 0 834.977 695.982"><defs><linearGradient id="a" x1="0.5" y1="1" x2="0.5" gradientUnits="objectBoundingBox"><stop offset="0" stop-color="gray" stop-opacity="0.251"/><stop offset="0.54" stop-color="gray" stop-opacity="0.122"/><stop offset="1" stop-color="gray" stop-opacity="0.102"/></linearGradient></defs><g transform="translate(-0.004 0)"><ellipse cx="85.304" cy="8.409" rx="85.304" ry="8.409" transform="translate(508.149 679.164)" fill="#e74c3c" opacity="0.1"/><path d="M463.619,42.614c37.57-13.965,83.308-1.955,122.367,15.562C708.66,113.2,798.031,217.664,869.038,324.086c25.709,38.535,50.129,78.767,59.794,121.784,19.679,87.558-31.648,178.2-118.94,209.966-29.685,10.813-62.3,15.246-94.961,17.716-58.081,4.4-118.216,2.653-175.831-13.641-41.088-11.644-79.956-30.375-117.235-51.069C317.755,551.02,222.678,475.93,154.217,384.2c-30.026-40.232-55.428-85.587-56.16-132.007s29.519-93.064,79.291-100.958c20.577-3.26,42.344.133,63.579,3.626,31.265,5.149,62.955,10.563,93.863,8.318,31.931-2.337,73.46-14.813,79.282-45.3C420.235,85.158,426.1,56.562,463.619,42.614Z" transform="translate(-98.04 -32.434)" fill="#e74c3c" opacity="0.1"/><path d="M341.906,800.409s40.14-2.42,35.408,25.709c0,0,.94,4.99-3.568,7.228,0,0-.067-2.088-4.117-1.381a18.136,18.136,0,0,1-4.358.216,9.091,9.091,0,0,1-5.332-2.2h0s-11.287-4.658-15.67-23.106c0,0-3.252-4.017-3.119-5.057l6.77,2.894s-2.312,4.891-.491,8.95c0,0,.216-8.767,1.522-8.567.258.042,3.518,1.664,3.518,1.664s-3.984,8.509-.981,14.7c0,0-1.139-10.488,2.221-14.081l4.774,2.786s-4.658,8.792-1.5,15.961c0,0-.832-11,2.5-15.288l4.325,3.327s-4.375,8.667-1.705,14.622c0,0,.341-12.817,2.637-13.782,0,0,3.784,3.327,4.358,4.708,0,0-2.994,6.288-1.139,9.607,0,0,1.139-8.534,2.079-8.575,0,0,3.759,5.656,4.159,9.532,0,0-.166-5.764-3.252-10.072a11.354,11.354,0,0,1,5.772,2.986s-.591-4-6.7-4.35c0,0-3.111-4.284-3.951-4.55,0,0,6.08-.507,9.765,1.131,0,0-3.244-3.776-10.879-2.063l-4.267-3.477s8.01-1.1,11.395.116c0,0-3.9-3.327-12.543-.907l-4.641-2.778s6.82-1.472,10.888-.94c0,0-4.292-2.312-12.252.191l-3.327-1.489s4.99-.981,6.463-1.139,1.539-.557,1.539-.557a17.316,17.316,0,0,0-9.39,1.04S341.781,800.892,341.906,800.409Z" transform="translate(-138.942 -160.954)" fill="#e74c3c"/><ellipse cx="28.413" cy="4.799" rx="28.413" ry="4.799" transform="translate(202.199 670.048)" fill="#e74c3c" opacity="0.1"/><path d="M277.32,777.664s22.632-1.364,19.962,14.5a3.851,3.851,0,0,1-2,4.076s-.042-1.173-2.321-.773a10.089,10.089,0,0,1-2.454.116,5.04,5.04,0,0,1-3.011-1.239h0s-6.355-2.637-8.85-13.034c0,0-1.83-2.271-1.763-2.853l3.826,1.664s-1.306,2.761-.283,5.049c0,0,.125-4.949.832-4.832.15,0,1.988.957,1.988.957s-2.246,4.8-.549,8.318c0,0-.649-5.914,1.248-7.943l2.687,1.572s-2.62,4.99-.832,9c0,0-.457-6.2,1.406-8.617l2.437,1.9s-2.5,4.882-.956,8.243c0,0,.191-7.228,1.489-7.769a14.82,14.82,0,0,1,2.454,2.653s-1.664,3.543-.64,5.415c0,0,.64-4.808,1.173-4.832,0,0,2.121,3.186,2.337,5.373a11.644,11.644,0,0,0-1.83-5.681,6.347,6.347,0,0,1,3.252,1.663s-.324-2.254-3.776-2.454a14.7,14.7,0,0,0-2.221-2.562,13.909,13.909,0,0,1,5.506.632s-1.83-2.129-6.138-1.164l-2.4-1.963s4.516-.615,6.429.067c0,0-2.2-1.88-7.078-.507l-2.612-1.572a23.766,23.766,0,0,1,6.13-.524s-2.412-1.306-6.9.108l-1.871-.832s2.82-.557,3.643-.64.873-.316.873-.316a9.807,9.807,0,0,0-5.3.591S277.254,777.939,277.32,777.664Z" transform="translate(-128.129 -157.13)" fill="#e74c3c"/><ellipse cx="16.019" cy="2.711" rx="16.019" ry="2.711" transform="translate(148.759 637.768)" fill="#e74c3c" opacity="0.1"/><path d="M946.719,795.993s27.323-1.664,24.121,17.467a4.691,4.691,0,0,1-2.429,4.924s-.05-1.422-2.8-.94a12.318,12.318,0,0,1-2.969.141,6.114,6.114,0,0,1-3.626-1.5h0s-7.685-3.169-10.671-15.728c0,0-2.212-2.736-2.121-3.435l4.608,1.963s-1.572,3.327-.333,6.1c0,0,.15-5.972,1.031-5.822.183,0,2.4,1.148,2.4,1.148s-2.711,5.822-.665,9.981c0,0-.774-7.136,1.514-9.582l3.244,1.888s-3.169,5.989-1.015,10.871c0,0-.557-7.486,1.663-10.405l2.944,2.3s-2.978,5.9-1.164,9.981c0,0,.241-8.717,1.8-9.382,0,0,2.57,2.271,2.961,3.2,0,0-2.038,4.284-.774,6.546,0,0,.774-5.822,1.414-5.822,0,0,2.562,3.851,2.828,6.488a13.983,13.983,0,0,0-2.2-6.854,7.725,7.725,0,0,1,3.926,2.029s-.4-2.72-4.566-2.961c0,0-2.113-2.919-2.678-3.094,0,0,4.159-.349,6.654.765,0,0-2.212-2.562-7.411-1.4l-2.9-2.37s5.448-.749,7.76.075c0,0-2.662-2.271-8.542-.615l-3.161-1.888a28.789,28.789,0,0,1,7.411-.641s-2.919-1.572-8.317.133l-2.262-1.015s3.4-.674,4.4-.774,1.048-.383,1.048-.383a11.812,11.812,0,0,0-6.388.707S946.635,796.309,946.719,795.993Z" transform="translate(-240.747 -160.213)" fill="#e74c3c"/><ellipse cx="19.338" cy="3.269" rx="19.338" ry="3.269" transform="translate(705.448 656.607)" fill="#e74c3c" opacity="0.1"/><path d="M874.085,526.61a59.331,59.331,0,0,1-.907-8.866c0-3.568-4.849-6.729-4.849-6.729s-2.994-6.928-4.99-7.952-8.16-10.089-8.16-10.089a8.242,8.242,0,0,0-1.855-4.891,70.315,70.315,0,0,1-5.049-7.619c-.832-1.015-.416-1.73-1.663-7.644-.067-.308-.141-.607-.233-.89a1.168,1.168,0,0,0-.133-.383A9.981,9.981,0,0,0,848.6,461.21a4.157,4.157,0,0,0-1.181-1.83c-1.406-1.148-3.651-.674-5.1-1.763l1.539-6.8c.366-1.664.557-3.768-.9-4.666a7.553,7.553,0,0,0-1.713-.574c-2.5-.832-3.943-3.468-4.591-6.005a20.576,20.576,0,0,1-.5-7.486c.283-2.412.99-4.758,1.248-7.178a19.713,19.713,0,0,0-3.052-12.759,9.823,9.823,0,0,0-4.034-3.809c-1.539-.69-3.327-.832-4.766-1.663-3.094-1.971-2.936-6.654-5.406-9.341s-6.845-2.678-10.447-1.755-7.186,2.5-10.879,2.1c-2.379-.266-4.608-1.347-6.995-1.6a7.368,7.368,0,0,0-2.046.091V396.1a4.438,4.438,0,0,0-3.8,2.969,4.535,4.535,0,0,0-.117,1.214c0,.973.233,1.988.25,2.919a2.778,2.778,0,0,1-.674,2.054c-.474.507-1.173.774-1.663,1.3a2.08,2.08,0,0,0-.607,1.53c0,1.48,1.846,2.786,3.086,3.385h.05c-.333.333-.665.682-.973,1.04a21.908,21.908,0,0,0-5.506,14.547,22.208,22.208,0,0,0,13.507,20.278l-.175.541a31.033,31.033,0,0,1-1.223,3.144,6.23,6.23,0,0,0-5.224.582c-2.379,1.664-7.028,1.53-8.268,1.223s-14.14-1.938-15.179-1.53-3.094-1.422-4.433,1.023-1.963,3.768-3.327,4.383-3.718,2.545-3.4,2.953-3.41,2.853-3.41,2.853-3.2,3.327-5.057,3.768-5.781,2.961-5.781,2.961l-4.55,3.56s-3.4.516-2.37-1.83-1.863-5.3-1.863-5.3-5.781-11.719-5.781-14.14-4.749-12.742-4.749-12.742l-.582-.058-.266-.757c-.873-2.454-2-5.465-2.87-7.228-1.663-3.369-2.687-3.718-2.687-3.718S692.107,411.987,679.1,416.57s23.746,18.24,27.048,19.671c1.156.5,1.988,2.113,2.57,4a17.116,17.116,0,0,0-7.111,6.4s7.952,17.625,8.159,22.008,5.473,16.635,5.473,16.635,1.963,9.074,12.593,8.559c0,0,14.664,2.695,17.866,0s6.088-4.807,7.644-5.115a6.031,6.031,0,0,0,2.886-2.038s-4.849,30.567-7.228,33.22-23.4,36.971-15.853,43.109a150.721,150.721,0,0,0,18.889,12.476c.64.316,2.562-2.886,5.306-5.157v1.772c.05,12.21,1.664,30.775,3.893,34.933,3.327,6.113,1.963,17.932,1.963,17.932a14.14,14.14,0,0,0,5.581,1.339c.1.4.216.832.324,1.248,1.822,6.879,4.774,17.517,6.28,20.345,2.271,4.284,3.918,17.841,3.918,17.841s1.347,13.308.832,15.179c-.2.707.674,6.246,2.046,13.308h0c-.832,9.557-2.412,27.98-2.678,34.642h0v.482a2.026,2.026,0,0,1,0,.225v.408h0a6.227,6.227,0,0,0,.05,1.256,4.074,4.074,0,0,1-.141,1.9,33.112,33.112,0,0,1-2.237,5.34,25.433,25.433,0,0,0-1,2.578c-.832.366-1.846,1.256-2.412,3.427-1.031,3.976-2.578,14.971-2.578,14.971s-.624,6.729-1.855,8.259-2.5,11.1,6.3,12.327,12.593-4.658,12.593-4.658l-.308-26.682v-.05a4.044,4.044,0,0,0,.458-.724v-.067c.058-.125.125-.258.183-.408l.075-.2.133-.324a.477.477,0,0,1,0-.116,17.635,17.635,0,0,0,.749-7.943V737.75a3.164,3.164,0,0,1,.05-.549v-.1l.05-.324v-.141a.614.614,0,0,1,.067-.333.365.365,0,0,1,0-.083c.083-.383.183-.832.291-1.2v-.091l.125-.4h0c.125-.424.266-.832.416-1.281v-.083a1.166,1.166,0,0,1,.141-.391v-.05c.15-.408.308-.832.457-1.181l.042-.108.133-.333.042-.1.316-.74h0l2.437,7.527s1.347,5.606.624,6.928.832,6.829,1.855,6.928l-.957,6.928a105.973,105.973,0,0,0-.923,11.52c-.067.441-.133.832-.183,1.1-.665,3.552.932,9.058.932,9.058,8.151,9.64,17.866.749,17.866.749s1.131-5.1,0-6.113-.624-4.691-.624-4.691.516-9.074.615-15.7-5.415-12.476-5.415-12.476l-.308.275c-1.006-2.6-2.154-5.623-1.913-6.978.416-2.346-1.14-27.107-1.14-27.107a146.84,146.84,0,0,0,.366-19.962h0c.133-1.123.258-2.229.383-3.327.624-5.323,1.131-9.873,1.331-12.26h0v-.283c.05-.64.075-1.1.067-1.314,0-.832,0-1.78.083-2.82.191-2.861.64-6.047.64-6.047l2.163-13.15s1.663-6.421,4.034-9.981l.283-.449h0c.091-.158.183-.333.283-.516l.042-.075c.092-.175.191-.358.283-.549l.042-.075c.333-.657.69-1.414,1.065-2.246,0-.067.058-.125.083-.191l.283-.632a.654.654,0,0,1,.108-.25c.042-.083.175-.424.266-.632a2.4,2.4,0,0,0,.108-.258c.108-.249.225-.507.333-.773l.158-.383c.075-.191.158-.383.241-.574l.2-.507c.058-.125.108-.25.158-.374l.225-.574c0-.083.075-.175.108-.258.591-1.472,1.156-2.928,1.663-4.25h0c.158-.416.316-.832.458-1.2,5.29.324,8.883.615,8.883.615S830.5,613,829.969,605.161c-.349-5.357.649-12.094,1.306-15.8.075-.408.141-.774.208-1.106l.141.116c2.587,2.038,4.442-4.691,4.442-4.691s-.7-6.28-1.664-13.89l-.1-.757a39.075,39.075,0,0,0,4.516.69s.832-.075,1.971-.216A54.569,54.569,0,0,0,850.721,574l5.5-10.147a41.279,41.279,0,0,1,3.618-6.014c1.663-2.038,7.536-8.559,7.436-9.781s1.963-8.259,4.026-11.42S874.185,527.118,874.085,526.61Zm-22.923,7.744c-2.171.915-4.234,6.014-4.333,7.544s-2.379,8.251-4.749,9.066c-2.187.749-6.363,4.591-7.028,5.207-.682.058-1.456.15-2.262.283-.907-6.429-1.8-11.753-2.379-12.826-1.663-3.061,1.822-12.842,1.822-12.842s.341-9.881,2.5-12.227,1.664-8.259,1.664-8.259.516-2.445.724-3.56,3.069,0,3.094,0h0s5.573,3.053,6.4,7.635,6.92,12.534,6.92,12.534-.932,2.753,0,4.159S853.333,533.439,851.162,534.354Z" transform="translate(-195.337 -92.754)" fill="url(#a)"/><path d="M707,456.209a16.635,16.635,0,0,1,16.635-7.835v11.9h-7.228l-5.656-1.431Z" transform="translate(-200.498 -101.702)" fill="#4c4981"/><path d="M707,456.209a16.635,16.635,0,0,1,16.635-7.835v11.9h-7.228l-5.656-1.431Z" transform="translate(-200.498 -101.702)" opacity="0.1"/><path d="M719.136,446.9l-8.858,6.2s-.075-1.239-.3-2.936c-.441-3.211-1.431-8.026-3.568-8.958-3.252-1.431-39.458-15.055-26.616-19.638s32.546,10.438,32.546,10.438,1.015.349,2.637,3.7c.832,1.763,1.971,4.766,2.828,7.22C718.6,445.146,719.136,446.9,719.136,446.9Z" transform="translate(-195.459 -97.076)" fill="#ae6e79"/><path d="M714.2,431.984l1.006-.474,2.828,3.227-2.312,4.932-3.943-1.58.915-3.942Z" transform="translate(-119.758 -72.603)" fill="#4c4981"/><path d="M794.841,811s-2.545-.3-3.56,3.668-2.545,14.971-2.545,14.971-.607,6.712-1.83,8.243-2.437,11.087,6.2,12.3,12.41-4.649,12.41-4.649l-.308-26.674Z" transform="translate(-213.798 -162.743)" fill="#444053"/><path d="M830.183,812.44s5.44,5.822,5.34,12.426-.615,15.662-.615,15.662-.5,3.668.615,4.683,0,6.105,0,6.105-9.565,8.875-17.6-.749c0,0-1.564-5.5-.915-9.041s2.462-19.471,2.462-19.471Z" transform="translate(-218.981 -162.987)" fill="#444053"/><path d="M838.9,665.078s-5.49,15.354-7.835,18.914-3.959,9.981-3.959,9.981l-2.138,13.117a73.2,73.2,0,0,0-.715,8.85c.1,2.953-5.29,45.971-5.29,45.971L810.42,772.8s-3.76,7.627-3.152,10.813-.408,8.243-1.663,9.765c0,0-.2,9.981-.507,12.2s1.123,8.55,0,9.665-16.069.615-16.477-1.223,1.83-10.68,1.83-10.68l1.322-8.542s2.645-4.674,2.038-6.2,1.115-5.082,1.214-5.39,2.853-5.29,2.346-7.22,3.2-42.968,3.2-42.968l10.472-73.535Z" transform="translate(-214.223 -137.251)" fill="#ae6e79"/><path d="M838.9,665.081s-.832,2.312-1.971,5.348c-1.813,4.791-4.425,11.387-5.864,13.566-2.337,3.56-3.967,9.981-3.967,9.981L824.959,707.1a73.754,73.754,0,0,0-.707,8.85c0,1.165-.782,8.592-1.78,17.151-1.539,13.083-3.51,28.82-3.51,28.82l-8.542,10.888s-.433.832-.973,2.146c-1.073,2.5-2.587,6.546-2.179,8.634.607,3.152-.408,8.234-1.663,9.765,0,0-.208,9.981-.507,12.2s1.123,8.542,0,9.665-16.069.615-16.477-1.214,1.83-10.68,1.83-10.68l1.322-8.55s2.645-4.674,2.029-6.2,1.123-5.082,1.223-5.39,2.853-5.29,2.346-7.219c-.391-1.472,1.664-25.568,2.62-37,.324-3.593.532-5.93.532-5.93l9.008-63.263.732-5.1.732-5.173Z" transform="translate(-214.223 -137.254)" opacity="0.1"/><path d="M829.146,819.067c.091,1.123-14.348,2.753-16.41,1.53s0-16.377,0-16.377l.94-6.912c-1.006-.108-2.537-5.6-1.83-6.92s-.607-6.912-.607-6.912l-2.4-7.486-1.464-4.583c-2.379-5.248-5.822-20.22-7.96-31.4-1.347-7.02-2.2-12.551-2.013-13.258.507-1.83-.832-15.154-.832-15.154s-1.663-13.533-3.859-17.8c-1.489-2.828-4.392-13.449-6.188-20.3-.915-3.518-1.547-6.047-1.547-6.047s15.371-1.289,24.695-1.738c4.284-.208,7.294-.233,6.945.117s-.441,2.212-.424,4.907c.042,6.978,1.015,19.255,2.046,22.557,1.422,4.575,2.845,18.3,2.237,19.629s-.408,10.172-.408,10.172a45.749,45.749,0,0,1,1.8,11.037,149.2,149.2,0,0,1-.349,19.87s1.522,24.719,1.115,27.057,3.252,9.665,3.252,11.087S826.9,803.23,826.9,803.23,829.079,817.952,829.146,819.067Z" transform="translate(-213.618 -138.273)" fill="#ae6e79"/><path d="M840.014,484.21l-1.747,1.888-1.14,1.231-6.654,7.153-17.192,1.938-9.149-2.445-2.262-.607s0-4.591.408-10.1c.582-7.062,1.971-15.637,5.29-17.974a13.216,13.216,0,0,0,3.868-4.9,27.592,27.592,0,0,0,1.664-4.109c.067-.183.116-.358.175-.541a45.944,45.944,0,0,0,1.614-7.544s2.2-1.214,5.248-2.628c7.96-3.718,21.709-8.85,16.926,2.628a44.909,44.909,0,0,0-1.8,5.157c-.075.258-.141.516-.2.765-1.6,6.388-.541,10.264.649,12.4h0a7.768,7.768,0,0,0,.69,1.056,5.55,5.55,0,0,0,1.156,1.173l1.98,12.568.166,1.04Z" transform="translate(-216.46 -100.517)" fill="#ae6e79"/><path d="M839.343,448.943c-.907,2.179.441-1.78,0,0-3.626,2.578-12.168,9.923-16.968,9.923-3.244,0-4.217-.591-6.995-1.846a45.373,45.373,0,0,0,1.788-8.076S845.955,433.074,839.343,448.943Z" transform="translate(-218.733 -100.641)" opacity="0.1"/><path d="M844.029,429.814a22.191,22.191,0,0,1-19.854,22.05c-.765.075-1.539.125-2.321.125a22.174,22.174,0,1,1,22.174-22.174Z" transform="translate(-216.092 -94.878)" fill="#ae6e79"/><path d="M845.685,541.385l-3.161,8.243s-2.57.108-6.579.233c-13.533.433-43.351.981-44.682-2.5a8.841,8.841,0,0,1-.466-2.736c-.175-5.3,2.3-13.433,2.3-13.433s1.422-16.277,1.422-16.984-1.223-12.11-1.223-12.11l2.445-9.149,6.812-4.783s3.052,4.683,4.882,5.082,4.275,2.653,4.275,2.653,6,3.66,7.935,1.622,16.984-10.987,16.984-10.987l7.935,8.75Z" transform="translate(-214.596 -108.153)" opacity="0.1"/><path d="M845.69,542.905l-3.161,8.234s-2.57.116-6.579.241h-.391c-1.73.058-3.71.116-5.822.158-10.755.25-25.568.316-33.312-.832-2.911-.416-4.816-1.015-5.132-1.83a7.343,7.343,0,0,1-.366-1.514c-.05-.383-.083-.832-.1-1.223-.175-5.3,2.3-13.433,2.3-13.433s1.422-16.277,1.422-16.984-1.223-12.11-1.223-12.11l2.445-9.149,4.683-3.277,2.129-1.5a31.9,31.9,0,0,0,2.337,3.078,6.22,6.22,0,0,0,2.545,2c1.838.408,4.275,2.653,4.275,2.653s6,3.66,7.935,1.622c1.472-1.555,10.621-7.153,14.847-9.706,1.3-.79,2.138-1.281,2.138-1.281l1.065,1.181,6.87,7.569Z" transform="translate(-214.601 -108.409)" fill="#fff"/><path d="M725.8,451.4l-8.858,6.2s-.075-1.239-.3-2.936c4.375-1.846,7.037-5.93,7.8-7.236C725.257,449.642,725.8,451.4,725.8,451.4Z" transform="translate(-202.12 -101.573)" opacity="0.1"/><path d="M755.29,472.622l-1.93-.516s-3.161,3.327-4.99,3.768-5.689,2.944-5.689,2.944l-4.483,3.56s-3.327.516-2.337-1.83-1.83-5.29-1.83-5.29-5.7-11.694-5.7-14.14-4.708-12.709-4.708-12.709-5.905,11.495-16.685,7.835c0,0,7.835,17.591,8.035,21.966s5.39,16.577,5.39,16.577,1.938,9.058,12.41,8.55c0,0,14.447,2.687,17.6,0s6-4.8,7.486-5.107A6.174,6.174,0,0,0,760.7,496.2V484.109Z" transform="translate(-200.488 -101.738)" fill="#4c4981"/><path d="M743.3,491.33s2.545,9.465.915,10.48Z" transform="translate(-206.606 -108.959)" opacity="0.1"/><path d="M835.947,563.082c-13.533.433-43.351.973-44.682-2.5a8.842,8.842,0,0,1-.466-2.736l44.207,2.329Z" transform="translate(-214.598 -120.151)" opacity="0.1"/><path d="M838.3,665.078s-.832,2.312-1.971,5.348c-5.614-.341-13.05-.7-20.112-.749-2.5,0-4.941,0-7.253.083a54.642,54.642,0,0,0-11.852,1.314,31.435,31.435,0,0,1-10.563,1.364c-.915-3.518-1.547-6.047-1.547-6.047s15.371-1.289,24.695-1.738l.732-5.173Z" transform="translate(-213.622 -137.251)" opacity="0.1"/><path d="M848.17,610.973l-1.73,3.66s-.241,1.09-.549,2.82c-.649,3.726-1.664,10.447-1.281,15.8.507,7.835-1.123,19.729-1.123,19.729s-37.429-3.152-48.408,0-16.385,0-16.385,0,1.331-11.794-1.93-17.9c-2.221-4.159-3.784-22.723-3.834-34.933,0-5.631.283-9.9.99-10.763,2.237-2.745,11.794-30.209,11.794-30.209l2.179.116,5.822.308,33.1,1.747,5.2.275.549,1.663Z" transform="translate(-211.591 -120.375)" fill="#444053"/><path d="M880.108,603.839l.308,3.26s-16.394-5.34-15.562-11.9,0-5.822,0-5.822l13.175,1.115Z" transform="translate(-227.052 -125.451)" fill="#4c4981"/><path d="M880.108,603.839l.308,3.26s-16.394-5.34-15.562-11.9,0-5.822,0-5.822l13.175,1.115Z" transform="translate(-227.052 -125.451)" opacity="0.1"/><path d="M755.947,493.955a14.606,14.606,0,0,0,5.772,3,3.76,3.76,0,0,1-1.664-.832c-1.173-.832-2.287-1.738-3.418-2.62-.915-.715-2.054-1.9-3.177-2.2A17.52,17.52,0,0,0,755.947,493.955Z" transform="translate(-208.315 -108.956)" opacity="0.1"/><path d="M755.837,498.818a7.343,7.343,0,0,1,1.264,2,12.118,12.118,0,0,1-.091,6.3l-2.628-6.338c-.457-1.081-.915-2.163-1.464-3.194-.241-.441-1.755-2.279-1.58-2.662C751.8,493.844,755.346,498.211,755.837,498.818Z" transform="translate(-207.956 -109.535)" opacity="0.1"/><path d="M842.79,541.387a8.467,8.467,0,0,0,4.783-2.237c-2.7.341-5.265,1.406-7.927,1.963a11.777,11.777,0,0,1-7.386-.682C835.321,541.928,839.529,541.978,842.79,541.387Z" transform="translate(-221.573 -117.005)" opacity="0.1"/><path d="M833.048,517.823a1.855,1.855,0,0,1-1.372-.341q-3.044-1.747-6.005-3.643a39.884,39.884,0,0,1-5.88-4.059C823.824,513.423,827.583,516.5,833.048,517.823Z" transform="translate(-219.475 -112.063)" opacity="0.1"/><path d="M841.391,544.984a12.662,12.662,0,0,0,3.177-.258,4.258,4.258,0,0,0,2.612-1.713,1.5,1.5,0,0,0-1.106.175,18.665,18.665,0,0,1-10.214,1.223C837.515,545.117,839.636,544.975,841.391,544.984Z" transform="translate(-222.179 -117.648)" opacity="0.1"/><path d="M814.113,601.992a33.364,33.364,0,0,1-6.5,1.273,39.249,39.249,0,0,1-5.14-.1l-8.318-.524L790,602.374c-.491,0-2.5,0-1.505-.99.5-.482,3.277-.175,3.992-.2q2.071-.067,4.159-.075c2.753,0,5.514,0,8.268.166C808,601.426,811.036,601.659,814.113,601.992Z" transform="translate(-214.164 -127.43)" opacity="0.1"/><path d="M803.905,606.964c-1.414-.058-3.236.782-4.691.965a31.222,31.222,0,0,1-4.907.191,27.364,27.364,0,0,1-9.457-1.93C791.2,606.514,797.559,606.706,803.905,606.964Z" transform="translate(-213.597 -128.284)" opacity="0.1"/><path d="M785.754,612.306a13.6,13.6,0,0,1,1.813.5c3.51,1,7.245.116,10.813-.765a6.345,6.345,0,0,1-4.1,2.279,19.013,19.013,0,0,1-7.985.291c-.832-.166-2.919-.466-3.327-1.331C782.286,612.007,784.972,612.181,785.754,612.306Z" transform="translate(-213.261 -129.269)" opacity="0.1"/><path d="M808.942,619.88a27.132,27.132,0,0,1,3.111.832c3.951.982,8.051-.366,12.019-1.273a55.948,55.948,0,0,1,14.547-1.347,14.406,14.406,0,0,0-3.119,1.023c-1.123.341-2.262.657-3.4.94-2.237.549-4.508,1-6.8,1.323a69.861,69.861,0,0,1-13.948.607c-2.129-.116-5.822.1-7.644-.973a8.426,8.426,0,0,1,5.232-1.131Z" transform="translate(-216.77 -130.28)" opacity="0.1"/><path d="M805.252,468.473s.2,9.365-1.323,13.641c-.482,1.331-1.231,3.784-2.046,6.538-.89,3.053-1.863,6.471-2.612,9.149s-1.248,4.475-1.248,4.475-3.435,27.98-4.325,41.313a3.255,3.255,0,0,1-.05.7c-.05.749-.133,1.53-.258,2.337-1.98,13.241-13.4,33.661-17.234,35.291a11.413,11.413,0,0,0-3.227,2.221c0-5.631.283-9.9.99-10.763,2.237-2.745,11.794-30.209,11.794-30.209l2.179.117c-.05-.383-.083-.832-.1-1.223-.175-5.3,2.3-13.433,2.3-13.433s1.422-16.277,1.422-16.984-1.223-12.11-1.223-12.11l2.445-9.149,4.683-3.277c.582-7.062,1.971-15.637,5.29-17.974a13.217,13.217,0,0,0,3.868-4.9c.657.091-.541-.491-.541-.491Z" transform="translate(-211.591 -104.317)" opacity="0.1"/><path d="M801.9,463.054a6.055,6.055,0,0,0-5.148.582c-2.346,1.664-6.92,1.522-8.143,1.223s-13.932-1.938-14.971-1.53-3.052-1.422-4.375,1.023-1.93,3.759-3.252,4.367-3.668,2.545-3.327,2.953-3.327,2.845-3.327,2.845l7.419,24.121s-4.783,30.509-7.12,33.153S736.569,568.711,744,574.816a147.809,147.809,0,0,0,18.615,12.476c.832.408,3.76-5.082,7.827-6.812s16.685-24.62,17.467-37.637,4.375-42,4.375-42,4.375-15.87,5.9-20.145,1.323-13.641,1.323-13.641Z" transform="translate(-206.454 -104.147)" fill="#4c4981"/><path d="M859.014,596.384l-1.73,3.66s-.241,1.09-.549,2.82a1.556,1.556,0,0,1-.832-.374c-2.545-2.038-17.467-17.392-18.207-31.024-.524-10.056-.274-18.723-.108-22.582.05-1.214.1-1.946.1-2.1h0s11.595-14.04,10.272-19.014-4.375-31.606-4.375-31.606l-.449-3.493-.773-5.905-1.846-14.289,1.913.449a5.548,5.548,0,0,0,1.156,1.173l1.98,12.568,6.87,7.569,1.123,46.079-3.161,8.234s-2.57.116-6.579.241h-.391Z" transform="translate(-222.435 -105.786)" opacity="0.1"/><path d="M865.644,520.2s-2.845-1.123-3.044,0-.715,3.552-.715,3.552.507,5.905-1.663,8.243-2.5,12.2-2.5,12.2-3.427,9.765-1.8,12.817c.591,1.106,1.505,6.654,2.42,13.308.582,4.159,1.156,8.725,1.663,12.9.923,7.586,1.614,13.865,1.614,13.865s-1.838,6.712-4.383,4.674-17.467-17.392-18.2-31.024c-.5-9.573-.3-17.891-.133-21.991.067-1.738.133-2.72.133-2.72s11.595-14.04,10.272-19.022-4.375-31.606-4.375-31.606l-.532-4.117-.574-4.425-.133-.973-1.838-14.14h0c.324.075,11.736,2.653,13.241,4.159s10.813,3.66,10.813,3.66a8.134,8.134,0,0,1,5.772,5.922c.091.283.158.582.225.89,1.223,5.905.832,6.612,1.664,7.635S865.644,520.2,865.644,520.2Z" transform="translate(-222.66 -105.663)" fill="#4c4981"/><path d="M862.328,603.15c-4.159-.832-10.33-2.753-10.189-6.995.125-3.967,4.9-5.4,8.517-5.905C861.239,594.392,861.813,598.975,862.328,603.15Z" transform="translate(-224.918 -125.602)" opacity="0.1"/><path d="M875.352,600.856c-.166.358-.832.665-1.78.94a47.979,47.979,0,0,1-6.762,1.106s-14.14-1.123-13.94-7.536c.15-4.6,6.537-5.822,10.122-6.1a23.3,23.3,0,0,1,2.387-.1S875.959,599.542,875.352,600.856Z" transform="translate(-225.041 -125.421)" fill="#ae6e79"/><path d="M877.245,600.856c-.166.358-.832.665-1.78.94-3.685-4.932-8.825-11.262-11.345-11.819l.765-.707a23.3,23.3,0,0,1,2.387-.1S877.852,599.542,877.245,600.856Z" transform="translate(-226.934 -125.421)" opacity="0.1"/><path d="M873.81,497.69l4.159.615a72.267,72.267,0,0,0,4.991,7.627,8.318,8.318,0,0,1,1.83,4.882s6.105,9.049,8.035,10.064,4.882,7.935,4.882,7.935,4.783,3.152,4.783,6.712a59.789,59.789,0,0,0,.915,8.85c.108.507-.707,6.82-2.745,9.981s-4.076,10.131-3.967,11.378-5.7,7.735-7.319,9.765a41.347,41.347,0,0,0-3.56,6.005l-5.39,10.172s-11.395-16.785-15.562-17.7c0,0,4.674-4.475,7.012-5.29s4.583-7.486,4.683-9.049,2.138-6.612,4.267-7.486,3.26-1.83,2.346-3.26,0-4.159,0-4.159-6.005-7.935-6.82-12.476-6.3-7.627-6.3-7.627l-3.152-7.735Z" transform="translate(-227.058 -110.029)" fill="#4c4981"/><path d="M893.041,542.711a13.2,13.2,0,0,1,8.209-3.111c-1.93.333-3.959.757-5.373,2.1a12.673,12.673,0,0,0-1.489,1.9c-.482.69-4.408,5.681-4.991,4.891C888.425,547.335,892.251,543.385,893.041,542.711Z" transform="translate(-231.161 -117.081)" opacity="0.1"/><path d="M882.73,534.276a3.518,3.518,0,0,0,2.9-2.054,11.523,11.523,0,0,0,.906-3.61,53.861,53.861,0,0,1,1.256-6.18,2.861,2.861,0,0,0-.175-2.5,8.436,8.436,0,0,0-.9-1.846c-.749.832-.965,2.77-1.273,3.884-.383,1.381-.732,2.77-1.065,4.159C884.211,526.8,882.83,534.276,882.73,534.276Z" transform="translate(-230.065 -113.461)" opacity="0.1"/><path d="M866.235,474.632a8.568,8.568,0,0,1-1.406,1.447c-1.664,1.322-3.868,2.437-4.076,4.525a4.866,4.866,0,0,1-.25,2c-.532.915-1.838.832-2.878.657a4.99,4.99,0,0,1-2.437-.9c-1.09-.932-1.189-2.6-2.021-3.768a5.132,5.132,0,0,0-4.159-1.838c-1.555-.05-3.1.3-4.658.366a12.8,12.8,0,0,1-2.986-.2,9.465,9.465,0,0,1-.965-.2,12.414,12.414,0,0,1-2.03-.69,8.937,8.937,0,0,1-.99-.466,13.139,13.139,0,0,1-2.87-2,7.134,7.134,0,0,1-2.662-5.4c.075-1.273.649-2.445.832-3.7.624-3.593-1.763-6.987-4.35-9.557-1.031-1.023-2.129-2.013-3.161-3.053a15.213,15.213,0,0,1-3.718-5.307,15.8,15.8,0,0,1-.665-6.654,45.9,45.9,0,0,0,.191-6.837c-.765-8.085-7.669-14.281-14.572-17.65l-.308-.158A22.166,22.166,0,1,1,835.918,447.7c-.075.258-.141.516-.2.765-1.6,6.388-.541,10.264.649,12.4h0c.324.075,11.736,2.653,13.241,4.159s10.813,3.66,10.813,3.66a8.134,8.134,0,0,1,5.814,5.947Z" transform="translate(-217.172 -94.881)" opacity="0.1"/><path d="M804.218,407.4c.458-.524,1.148-.79,1.614-1.3,1.439-1.564,0-4.117.524-6.18.566-2.287,3.377-3.285,5.722-3.044s4.541,1.322,6.887,1.589c3.643.408,7.17-1.173,10.721-2.1s7.843-.973,10.289,1.747,2.279,7.353,5.323,9.324c1.406.907,3.177,1.006,4.7,1.663a9.656,9.656,0,0,1,3.976,3.8,19.911,19.911,0,0,1,3.011,12.734c-.258,2.412-.957,4.758-1.239,7.17a20.877,20.877,0,0,0,.5,7.486c.641,2.5,2.03,5.19,4.516,5.989a7.618,7.618,0,0,1,1.663.574c1.439.9,1.248,3.011.882,4.658l-1.481,6.829c1.422,1.081,3.635.615,4.991,1.755a4.16,4.16,0,0,1,1.164,1.83,9.981,9.981,0,0,1-2.986,10.929c-1.664,1.322-3.868,2.437-4.076,4.516a4.689,4.689,0,0,1-.25,2c-.524.915-1.838.832-2.878.657a4.99,4.99,0,0,1-2.429-.9c-1.1-.932-1.189-2.6-2.021-3.768a5.148,5.148,0,0,0-4.159-1.838c-1.564-.05-3.1.3-4.666.374a13.79,13.79,0,0,1-9.806-3.543,7.159,7.159,0,0,1-2.67-5.406c.075-1.264.649-2.445.832-3.7.615-3.585-1.763-6.987-4.35-9.557s-5.623-4.941-6.887-8.359c-1.58-4.234-.05-8.958-.474-13.449-.765-8.093-7.66-14.281-14.572-17.658C805.05,411.446,802.43,409.441,804.218,407.4Z" transform="translate(-216.754 -92.887)" fill="#444053"/><path d="M858.6,477.474c-1.1-.94-1.189-2.6-2.021-3.768a5.166,5.166,0,0,0-4.159-1.846c-1.564-.05-3.111.3-4.666.374a13.748,13.748,0,0,1-9.84-3.552,7.133,7.133,0,0,1-2.662-5.4c.075-1.273.649-2.454.832-3.7.624-3.593-1.763-6.995-4.35-9.565s-5.614-4.941-6.887-8.359c-1.572-4.225,0-8.95-.466-13.449-.773-8.093-7.669-14.281-14.572-17.658-1.614-.79-4.234-2.795-2.445-4.832.449-.524,1.14-.79,1.605-1.3,1.439-1.555,0-4.117.532-6.172a3.394,3.394,0,0,1,.524-1.14,4.436,4.436,0,0,0-3.751,2.969c-.507,2.063.915,4.616-.524,6.18-.466.507-1.156.773-1.614,1.289-1.788,2.038.832,4.051,2.445,4.832,6.912,3.377,13.807,9.573,14.572,17.658.424,4.5-1.106,9.224.474,13.458,1.264,3.41,4.3,5.822,6.887,8.359s4.99,5.964,4.35,9.557a31.874,31.874,0,0,0-.832,3.7,7.142,7.142,0,0,0,2.67,5.4,13.716,13.716,0,0,0,9.831,3.552c1.564-.075,3.1-.416,4.666-.374a5.174,5.174,0,0,1,4.159,1.846c.832,1.173.923,2.836,2.021,3.768a4.99,4.99,0,0,0,2.429.89c1.04.191,2.354.258,2.878-.649a2.246,2.246,0,0,0,.233-1.2A4.782,4.782,0,0,1,858.6,477.474Z" transform="translate(-216.741 -93.106)" opacity="0.1"/><path d="M695.762,366.546H638.23V309.855H695.8Zm-.832-85.479H639.062c0-88.1,83.74-82.95,83.74-138.686,0-30.7-25.127-55.295-55.827-55.295s-55.819,26.516-55.819,56.168H555.33A111.454,111.454,0,0,1,666.975,31.61c61.666,0,111.646,49.2,111.646,110.772,0,69.692-83.732,77.627-83.732,138.686Z" transform="translate(-174.979 -31.61)" fill="#e74c3c"/><path d="M371.864,396.5H357.026V381.847h14.838Zm-.225-22.041H357.251c0-22.707,21.584-21.384,21.584-35.765a14.323,14.323,0,0,0-14.389-14.264A14.7,14.7,0,0,0,350.089,338.9H335.7a28.785,28.785,0,1,1,57.569-.225c-.046,17.966-21.629,20.012-21.629,35.749Z" transform="translate(-138.026 -78.451)" fill="#e74c3c" opacity="0.1"/><path d="M506.931,518.919H492.093V504.306h14.838Zm-.216-22.033H492.325c0-22.715,21.584-21.384,21.584-35.765a14.314,14.314,0,0,0-14.389-14.256,14.7,14.7,0,0,0-14.431,14.489H470.7a28.785,28.785,0,1,1,57.569-.225C528.29,479.1,506.715,481.15,506.715,496.886Z" transform="translate(-160.74 -99.053)" fill="#e74c3c" opacity="0.1"/><path d="M591.093,307.034H580.339V296.462h10.755Zm-.158-15.978h-10.43c0-16.452,15.645-15.5,15.645-25.909a10.38,10.38,0,0,0-10.43-10.33,10.646,10.646,0,0,0-10.43,10.5H564.86a20.86,20.86,0,1,1,41.72-.166C606.564,278.164,590.935,279.653,590.935,291.056Z" transform="translate(-176.583 -67.407)" fill="#e74c3c" opacity="0.1"/><path d="M814.233,330.551h-6.08v-5.989h6.08Zm-.091-9.024h-5.93c0-9.3,8.841-8.758,8.841-14.647a5.822,5.822,0,0,0-5.889-5.822,6.022,6.022,0,0,0-5.9,5.93h-5.9a11.794,11.794,0,0,1,23.58-.091C822.983,314.207,814.142,315.081,814.142,321.527Z" transform="translate(-216.04 -76.003)" fill="#e74c3c" opacity="0.1"/><path d="M926,658.021h-6.08v-5.989H926ZM925.909,649h-5.9c0-9.307,8.85-8.758,8.85-14.647a5.864,5.864,0,0,0-5.9-5.822,6.014,6.014,0,0,0-5.9,5.93h-5.9a11.794,11.794,0,0,1,23.58-.091c.033,7.344-8.808,8.184-8.808,14.63Z" transform="translate(-234.85 -131.101)" fill="#e74c3c" opacity="0.1"/></g></svg>