<svg xmlns="http://www.w3.org/2000/svg" xmlns:xlink="http://www.w3.org/1999/xlink" width="477.125" height="341.174" viewBox="0 0 477.125 341.174"><defs><linearGradient id="a" x1="0.5" y1="1" x2="0.5" gradientUnits="objectBoundingBox"><stop offset="0" stop-color="gray" stop-opacity="0.251"/><stop offset="0.54" stop-color="gray" stop-opacity="0.122"/><stop offset="1" stop-color="gray" stop-opacity="0.102"/></linearGradient><linearGradient id="b" x1="0.5" y1="1" x2="0.5" xlink:href="#a"/></defs><g transform="translate(0.619)"><path d="M570.642,282.114c-11.056,22.807-33.505,38.058-56.77,48.115-31.321,13.544-65.812,18.916-99.83,16.645q-8.942-.6-17.83-1.9a224.884,224.884,0,0,1-59.616-17.36q-8.214-3.7-16.1-8.077a205.91,205.91,0,0,1-25.158-16.453q-3.008-2.3-5.934-4.71c-1.352-1.115-2.692-2.255-4.053-3.362a51.144,51.144,0,0,0-9.121-6.213,32.58,32.58,0,0,0-3.054-1.348c-10.436-3.97-22.47-2.472-33.335.624-8.264,2.355-16.32,5.58-24.576,7.881a81.561,81.561,0,0,1-11.2,2.38,59.592,59.592,0,0,1-25.158-2.21l-.695-.216q-1.748-.549-3.466-1.2l-.695-.266q-1.664-.641-3.258-1.377l-.695-.316q-1.664-.774-3.258-1.635c-.383-.2-.762-.416-1.136-.62A68.108,68.108,0,0,1,149.416,277.8c-.137-.137-.266-.279-.416-.416-.662-.716-1.311-1.444-1.939-2.189-.233-.275-.466-.549-.695-.832q-1.119-1.365-2.16-2.792c-.1-.137-.2-.279-.3-.416a60.162,60.162,0,0,1-7.016-12.687c-.058-.137-.112-.279-.162-.416q-.832-2.143-1.519-4.357c-.187-.616-.366-1.248-.524-1.864-.054-.183-.1-.37-.15-.553-2.3-9.042-2.559-18.442-2.559-27.788v-3.266c.067-15.117.3-30.493,2.53-45.4a1.893,1.893,0,0,1,.046-.308,141.8,141.8,0,0,1,3.042-14.905,109.956,109.956,0,0,1,5.122-15.1c5.131-12.067,12.592-23.048,20.876-33.227,20.868-25.612,48.236-47.112,80.268-55.16,34.517-8.668,72.878-.362,100.72,21.8,8.489,6.758,16.116,14.759,25.649,19.94,8.322,4.511,18.063,6.379,26.977,2.83,7.365-2.934,12.159-4.39,20.431-3.945a171.254,171.254,0,0,1,50.083,10.49c.649.237,1.3.483,1.943.728,41.907,16.033,77.93,47.886,96.655,88.819q.745,1.623,1.444,3.271C578.923,226.134,582.959,256.7,570.642,282.114Z" transform="translate(-101.688 -52.746)" fill="#e74c3c" opacity="0.1"/><ellipse cx="36.734" cy="5.9" rx="36.734" ry="5.9" transform="translate(13.141 297.365)" fill="#e74c3c" opacity="0.1"/><ellipse cx="65.134" cy="6.325" rx="65.134" ry="6.325" transform="translate(314.286 328.524)" fill="#e74c3c" opacity="0.1"/><rect width="395.444" height="224.006" rx="16.452" transform="translate(48.144 44.835)" fill="url(#a)"/><rect width="394.233" height="220.111" rx="16.452" transform="translate(48.773 47.985)" fill="#fff"/><rect width="394.233" height="220.111" rx="16.452" transform="translate(48.773 47.985)" fill="#fff"/><rect width="394.233" height="220.111" rx="16.452" transform="translate(48.773 47.985)" fill="#fff" opacity="0.04"/><path d="M582.729,196.648H192.5a2,2,0,0,0-2,2v8.46H584.713v-8.46A2,2,0,0,0,582.729,196.648Z" transform="translate(-141.724 -151.189)" fill="#5a5773"/><g transform="translate(53.941 47.985)"><circle cx="2.705" cy="2.705" r="2.705" fill="#fff"/><circle cx="2.705" cy="2.705" r="2.705" transform="translate(7.282)" fill="#fff"/><circle cx="2.705" cy="2.705" r="2.705" transform="translate(14.564)" fill="#fff"/></g><rect width="105.797" height="8.98" transform="translate(81.242 75.594)" fill="#e74c3c" opacity="0.2"/><rect width="329.295" height="138.133" transform="translate(81.242 111.6)" fill="#5a5773" opacity="0.1"/><path d="M761.374,361.4h-5.638V350.45a22.519,22.519,0,1,0-45.036-.3V361.4h-5.626a9.412,9.412,0,0,0-9.383,9.383v45.032a9.412,9.412,0,0,0,9.383,9.383h56.3a9.408,9.408,0,0,0,9.379-9.383V370.785a9.408,9.408,0,0,0-9.379-9.383Zm-24.863,29.273V406.8a3.366,3.366,0,0,1-3.121,3.379,3.292,3.292,0,0,1-3.445-3.287V390.667a7.49,7.49,0,1,1,6.566,0ZM749.178,361.4H717.266V350.146a15.95,15.95,0,1,1,31.9,0Z" transform="translate(-487.327 -240.793)" opacity="0.1"/><path d="M761.374,358.767h-5.638V347.815a22.519,22.519,0,1,0-45.036-.3v11.256h-5.626a9.412,9.412,0,0,0-9.383,9.383v45.032a9.412,9.412,0,0,0,9.383,9.383h56.3a9.408,9.408,0,0,0,9.379-9.383V368.151A9.408,9.408,0,0,0,761.374,358.767Zm-24.863,29.273v16.129a3.366,3.366,0,0,1-3.121,3.379,3.291,3.291,0,0,1-3.445-3.287V388.033a7.49,7.49,0,1,1,6.566,0Zm12.666-29.273H717.266V347.511a15.95,15.95,0,0,1,31.9,0Z" transform="translate(-487.327 -238.991)" fill="#e74c3c"/><rect width="33.331" height="7.869" transform="translate(377.206 98.305)" fill="#5a5773" opacity="0.1"/><path d="M1196.827,614.09a11.833,11.833,0,0,0-1.115-3.167l-4.993-7.457h.029s-.786-3.745,0-5.584-2.8-6.362-2.8-6.362a2.684,2.684,0,0,1,.7-2.534c1.14-1.4-.7-5.493-.7-5.493s-.874-8.551-.961-9.858-.791-8.547-.791-8.547l-1.665-15.35-2.963-40.683-.054-.761c.366-.179.562-.291.562-.291l-.591-22.495.512-.462c4.469-4.045,14.776-13.407,14.672-13.611s-1.249-15.633-1.382-19.495a23.232,23.232,0,0,0-1.773-7.981c-.258-.512-1-3.886-1.311-5.314-.083-.391-.137-.637-.137-.637s-3.021-5.759-2.759-8.376.786-4.577-5.655-5.493c0,0-5.409-.807-8.63-3.008a24.548,24.548,0,0,0-6.183-3.1s-1.806-3.329-3.062-2.2a17.463,17.463,0,0,1-1.186-3.708l-.038-.233a12.264,12.264,0,0,0,4.844-6.932c.042-.158.075-.32.112-.479a1.354,1.354,0,0,0,.387.071c1.094,0,1.768-1.219,2.792-1.606.416-.162.928-.187,1.249-.516a1.22,1.22,0,0,0,.275-.92,1.942,1.942,0,0,0,0-.341q0-.06,0-.121v.042c-.279-1.515-1.452-2.859-1.323-4.4.125-1.448,1.4-2.721,1.294-4.132a2.239,2.239,0,0,0-.029-.333v.05a3.559,3.559,0,0,0-.832-1.473,4.726,4.726,0,0,0-1.714-1.44c-.578-.254-1.248-.312-1.789-.616-1.59-.865-1.585-3.121-2.53-4.66a4.124,4.124,0,0,0-3.857-1.91c-1.182.117-2.251.745-3.42.949a8.944,8.944,0,0,1-4.74-.832,13.046,13.046,0,0,0-4.677-1.248,3.972,3.972,0,0,0-3.878,2.368c-.262.832-.133,1.727-.333,2.572a5.6,5.6,0,0,1-3.017,3.3c-.832.462-1.823.99-2.08,1.864v-.067a1.277,1.277,0,0,0-.042.491,5.247,5.247,0,0,0,.528,1.739,4.8,4.8,0,0,1-.025,3.354c-.308.791-.832,1.486-1.132,2.272a4.462,4.462,0,0,0-.275,1.14v-.067a4.508,4.508,0,0,0,0,.533,3.746,3.746,0,0,0,.416,1.748,3.137,3.137,0,0,0,1.868,1.569c.832.191,1.353-.624,2.23-.416a3.515,3.515,0,0,1,.462.146c.029.187.058.374.091.558a12.23,12.23,0,0,0,4.219,7.145,2.691,2.691,0,0,0,.046.3h0a27.986,27.986,0,0,1,.345,5.018s-1.311-1.918-3.108,1.785c0,0-4.69,2.7-6.308,3.013s-7.365,2.309-7.365,2.309a5.067,5.067,0,0,1-2.979.961c-1.793,0-3.283,3.924-3.067,6.059s-.129,3.708-1.8,3.795-.757,3.47-.745,3.529l-.154.728c-.324,1.49-1.032,4.685-1.281,5.185a23.287,23.287,0,0,0-1.777,7.981c-.129,3.862-1.248,19.233-1.377,19.495-.088.171,6.974,6.625,11.938,11.135l.72.649-2.284,21.338a5.7,5.7,0,0,0,2.347,4.161c0,.25,0,.5-.025.766-.1,2.5-.3,5.518-.7,6.308-.7,1.4-.524,8.9-.524,8.9s-.7,15.263-1.577,16.923a11.546,11.546,0,0,0-.791,5.826c.262.682-.878,19.012-.878,19.012l-.874,8.2s.262,7.848-.528,8.023-1.228,5.584-1.228,5.584-2.8,3.836-1.577,5.231-.179,2.01-.308,2.355-2.672,1.664-.832,6.541a1.356,1.356,0,0,0,.058.141c-1.723,2.393-7.182,10.112-6.849,11.285a3.093,3.093,0,0,0,1.457,1.748c1.286.77,3.491,1.128,7,0,5.825-1.877,5.409-3.229,5.409-3.229a2.472,2.472,0,0,1,2.455-2.355,6.9,6.9,0,0,0,4.207-2.4l-.283-1.053-.387-1.457c.046-.416.341-1.144,1.665-1.548,2.018-.612,1.49-4.448,1.49-4.448s-.175-4.011.7-4.536.529-7.153.529-7.153a49.149,49.149,0,0,1,2.364-8.027c1.4-3.229,3.071-22.412,3.071-22.412s1.136-9.421,2.189-12.125,2.018-10.29,2.018-10.29,6.488-12.562,6.57-15.355c0,0,.832-2.617,1.665.262s3.171,9.77,3.171,9.77l2.276,8.46,2.718,12.646,1.756,10.644s-.266,4.011.416,5.409,1.664,4.619,1.14,5.231,1.049,3.491,1.49,4.1,0,13.519,0,13.519,2.014,10.99,4.906,12.9a3.525,3.525,0,0,0,.641.333c-.042,1.19-.083,2.784-.029,3.616a1.394,1.394,0,0,0,.091.545c.263.349,3.242,2.7,3.858,2.7s2.8,1.527,2.892,2.268,6.4,3.878,7.3,3.97,5.231.87,5.825-.35A2.014,2.014,0,0,0,1196.827,614.09Zm-15.508-157.174.449.387s.462,3.6.791,4.677a9.035,9.035,0,0,1-.067,3.175,7.305,7.305,0,0,0,.462,2.289c.391.787-.791,2.5-.791,2.5h-1.053l-.329-13.474Zm-31.3-40.23v-.079a.255.255,0,0,0-.012.079Zm-16.166,51.868a1.52,1.52,0,0,1-.067-1.111,3.326,3.326,0,0,0,.221-.616,9.549,9.549,0,0,0,.241-1.664.148.148,0,0,0,0-.021,8.8,8.8,0,0,1-.062-3.154c.312-1.024.787-4.677.787-4.677l.3-.254.695-.6a4.93,4.93,0,0,1,.05-.6c.146,3.162.262,6.658.075,6.833-.349.345-1.623,3.745-1.315,3.878a15.9,15.9,0,0,1-.27,3.237A6.622,6.622,0,0,1,1133.849,468.555Z" transform="translate(-774.948 -277.336)" fill="url(#b)"/><path d="M1237.3,475.474v5.177l-10.619,5.339s-10.544-6.379-7.944-8.917c1.665-1.606,1.344-6.017.895-9.05h0c-.262-1.764-.566-3.058-.566-3.058s18.942-5.41,16.079-1.3a6.46,6.46,0,0,0-.712,4.91A22.3,22.3,0,0,0,1237.3,475.474Z" transform="translate(-844.859 -332.799)" fill="#c37098"/><path d="M1147.528,593.831l-1.369,16.861s-2.052-1.86-4.706-4.282c-4.923-4.49-11.913-10.91-11.83-11.081.129-.262,1.249-15.558,1.369-19.4a23.221,23.221,0,0,1,1.756-7.939,49.328,49.328,0,0,0,1.248-5.164c.1-.462.162-.761.162-.761l2.3-.924s9.571,10.678,9.571,10.873-.653,8.4-.653,8.4l-.678.591-.3.254s-.458,3.583-.782,4.656a8.358,8.358,0,0,0,.063,3.138h0a9.654,9.654,0,0,1-.237,1.664,3.459,3.459,0,0,1-.221.612,1.527,1.527,0,0,0,.067,1.107A6.693,6.693,0,0,0,1144,593.8Z" transform="translate(-784.178 -400.535)" fill="#3f3d56"/><path d="M1331.164,595.356c.1.2-10.107,9.521-14.531,13.545l-2.006,1.818-1.357-16.861h3.516s1.174-1.694.782-2.476a7.237,7.237,0,0,1-.453-2.276,9.074,9.074,0,0,0,.062-3.158c-.324-1.078-.782-4.656-.782-4.656l-.445-.383-.528-.462s-.653-8.2-.653-8.4,9.57-10.873,9.57-10.873l2.28.911s.05.245.133.637c.308,1.419,1.044,4.777,1.3,5.289a23.223,23.223,0,0,1,1.756,7.939C1329.915,579.8,1331.03,595.094,1331.164,595.356Z" transform="translate(-909.812 -400.562)" fill="#3f3d56"/><path d="M1327.121,1091.682c-.612,1.215-4.906.416-5.792.35s-7.145-3.217-7.232-3.953-2.255-2.255-2.863-2.255-3.558-2.347-3.82-2.692a1.333,1.333,0,0,1-.087-.541c-.091-1.427.087-5.1.087-5.1l12.588.695,6.117,9.2a11.867,11.867,0,0,1,1.107,3.15A2.082,2.082,0,0,1,1327.121,1091.682Z" transform="translate(-905.728 -753.771)" fill="#3f3d56"/><path d="M1327.121,1091.682c-.612,1.215-4.906.416-5.792.35s-7.145-3.217-7.232-3.953-2.255-2.255-2.863-2.255-3.558-2.347-3.82-2.692a1.333,1.333,0,0,1-.087-.541c-.091-1.427.087-5.1.087-5.1l12.588.695,6.117,9.2a11.867,11.867,0,0,1,1.107,3.15A2.082,2.082,0,0,1,1327.121,1091.682Z" transform="translate(-905.728 -753.771)" opacity="0.1"/><path d="M1327.174,1102.729c-.612,1.215-4.906.416-5.792.349s-7.145-3.217-7.232-3.953-2.255-2.255-2.863-2.255-3.558-2.347-3.82-2.692a1.327,1.327,0,0,1-.087-.541l4.078,2.58a17.209,17.209,0,0,1,3.3,2.651c.695.986,6.171,3.038,6.625,3.079.337.033,3.932-.657,5.9-.366A2.082,2.082,0,0,1,1327.174,1102.729Z" transform="translate(-905.781 -764.818)" opacity="0.1"/><path d="M1137.675,1085.07a6.808,6.808,0,0,1-4.161,2.384,2.451,2.451,0,0,0-2.43,2.343s.416,1.348-5.339,3.217c-3.474,1.119-5.659.766-6.932,0a3.1,3.1,0,0,1-1.444-1.74c-.391-1.386,7.29-11.934,7.29-11.934l6.991-.416,4.993,2.255.766,2.859Z" transform="translate(-775.786 -754.753)" fill="#3f3d56"/><path d="M1137.675,1085.07a6.808,6.808,0,0,1-4.161,2.384,2.451,2.451,0,0,0-2.43,2.343s.416,1.348-5.339,3.217c-3.474,1.119-5.659.766-6.932,0a3.1,3.1,0,0,1-1.444-1.74c-.391-1.386,7.29-11.934,7.29-11.934l6.991-.416,4.993,2.255.766,2.859Z" transform="translate(-775.786 -754.753)" opacity="0.1"/><path d="M1140.833,1096.108a6.811,6.811,0,0,1-4.161,2.385,2.451,2.451,0,0,0-2.43,2.343s.416,1.348-5.339,3.217c-3.475,1.119-5.659.766-6.932,0,3.275-.341,10.511-2.409,11.235-3.125.869-.869,1.956-3.258,2.692-3.3a28.951,28.951,0,0,0,4.673-2.567Z" transform="translate(-778.944 -765.791)" fill="none"/><path d="M1140.833,1096.108a6.811,6.811,0,0,1-4.161,2.385,2.451,2.451,0,0,0-2.43,2.343s.416,1.348-5.339,3.217c-3.475,1.119-5.659.766-6.932,0,3.275-.341,10.511-2.409,11.235-3.125.869-.869,1.956-3.258,2.692-3.3a28.951,28.951,0,0,0,4.673-2.567Z" transform="translate(-778.944 -765.791)" opacity="0.1"/><path d="M1204.358,853.231c-.782,1.823,0,5.555,0,5.555s-11.651.608-14.5-1.3-4.86-12.849-4.86-12.849.416-12.845,0-13.453-2-3.47-1.477-4.078-.416-3.82-1.128-5.21-.416-5.38-.416-5.38l-1.739-10.594-2.688-12.583-2.285-8.422s-2.343-6.857-3.137-9.72-1.635-.262-1.635-.262c-.083,2.779-6.508,15.28-6.508,15.28s-.957,7.552-2,10.24-2.172,12.067-2.172,12.067-1.665,19.1-3.038,22.308a49.221,49.221,0,0,0-2.318,7.985s.349,6.6-.52,7.12-.729,4.515-.729,4.515.52,3.816-1.477,4.427-1.664,1.91-1.664,1.91-11.11,1.823-12.933-3.042.695-6.159.832-6.508,1.523-.953.308-2.347,1.56-5.206,1.56-5.206.437-5.38,1.215-5.555.524-7.985.524-7.985l.866-8.16s1.132-18.23.87-18.925a11.561,11.561,0,0,1,.782-5.826c.87-1.664,1.56-16.844,1.56-16.844s-.175-7.461.52-8.851c.416-.786.591-3.812.691-6.279.075-1.885.091-3.445.091-3.445l9.721-3.645,12.483-3.99,10.5,5.035,15.367,2.95.191,2.651,2.934,40.492,1.665,15.275s.695,7.2.782,8.505.953,9.812.953,9.812,1.823,4.078.695,5.468a2.635,2.635,0,0,0-.695,2.5S1205.14,851.409,1204.358,853.231Z" transform="translate(-788.87 -532.593)" fill="#3f3d56"/><path d="M1236.775,463.663a6.457,6.457,0,0,0-.711,4.91,12.209,12.209,0,0,1-14.8-.553h0c-.262-1.764-.566-3.058-.566-3.058S1239.638,459.56,1236.775,463.663Z" transform="translate(-846.482 -332.801)" opacity="0.1"/><path d="M1232.8,423.784a12.134,12.134,0,1,1-3.554-8.638A12.192,12.192,0,0,1,1232.8,423.784Z" transform="translate(-838.084 -298.232)" fill="#c37098"/><path d="M1193.167,461.1l-3.995,71.134-21.7-4.556-4.3-28.516,4.257-38.282,3.2.412,5.651.72,5.6.345,6.067-.674Z" transform="translate(-795.908 -315.291)" opacity="0.1"/><path d="M1193.167,462.759l-3.995,71.134-21.7-4.556-4.3-28.516,4.257-38.278,3.2.408,5.651.72,5.6.345,6.067-.674Z" transform="translate(-795.908 -316.426)" fill="#e74c3c"/><path d="M1237.175,522.015l7.815.262-2.2,3.075s.154,6.213,1.2,7.994.736,29.294.736,29.294l-2.08,3.949-3.558-4.427.046-36.327Z" transform="translate(-857.755 -373.772)" fill="#3f3d56"/><path d="M1237.175,522.015l7.815.262-2.2,3.075s.154,6.213,1.2,7.994.736,29.294.736,29.294l-2.08,3.949-3.558-4.427.046-36.327Z" transform="translate(-857.755 -373.772)" opacity="0.1"/><path d="M1224.6,443.72l-7.29,8.073,4.165,4.34,6.9-6.729Z" transform="translate(-832.944 -303.549)" opacity="0.1"/><path d="M1224.6,442.073l-7.29,8.073,4.165,4.34,6.9-6.729Z" transform="translate(-832.944 -302.423)" fill="#e74c3c"/><path d="M1190.073,452.059l-7.382-7.378-.695,3.862,3.387,8.464Z" transform="translate(-808.785 -304.207)" opacity="0.1"/><path d="M1190.9,450.412l-7.378-7.378-.7,3.861,3.387,8.464Z" transform="translate(-809.353 -303.081)" fill="#e74c3c"/><path d="M1217.767,764.851a36.024,36.024,0,0,1-11.235,3.25c-7.161.911-11.847-8.2-11.847-8.2l-2.734,3.558c-.87,3.778-14.106,4.731-19.487,3.3a8.611,8.611,0,0,1-3.088-1.461c.075-1.885.091-3.445.091-3.445l9.72-3.645,12.483-3.991,10.5,5.035,15.367,2.95Z" transform="translate(-811.375 -532.62)" opacity="0.1"/><path d="M1228.674,515.5l-3.99,71.13-21.7-4.556-4.307-28.512,4.253-38.282,3.2.416a38.965,38.965,0,0,1-.47,4.161c-.521,2.434,2.692,19.707,2.692,19.707s6.1,19.37,8.851,16.578,6.658-17.535,6.658-17.535c2.651-5.468.046-20.806-.15-21.114a6.186,6.186,0,0,1-.25-1.394Z" transform="translate(-831.416 -369.168)" opacity="0.1"/><path d="M1316.446,672.716l.183,6.97-2.006,1.818-1.353-16.873h3Z" transform="translate(-909.812 -471.336)" opacity="0.1"/><path d="M1173.449,649.522h0a9.679,9.679,0,0,1-.237,1.665c0-.154,0-.241-.033-.254C1173.054,650.9,1173.2,650.263,1173.449,649.522Z" transform="translate(-813.945 -461)" opacity="0.1"/><path d="M1173.148,661.666l-1.369,16.861s-2.052-1.86-4.706-4.282l.316-2.988s1.12-7.34,1.527-10.96a6.707,6.707,0,0,0,.716,1.369Z" transform="translate(-809.798 -468.371)" opacity="0.1"/><path d="M1168.646,494.474s-1.3-1.91-3.079,1.777c0,0-4.644,2.692-6.242,3s-7.282,2.3-7.282,2.3a5.027,5.027,0,0,1-2.95.953c-1.781,0-3.258,3.907-3.042,6.034s-.129,3.691-1.777,3.778-.741,3.512-.741,3.512l10.981,12.587s.7,11.589.35,11.938-1.606,3.745-1.3,3.862-1.665,12.933-1.665,12.933l-2.646,24.871s0,4.161,5.385,5.6,18.629.487,19.482-3.291l2.734-3.562s4.685,9.117,11.847,8.206a34.439,34.439,0,0,0,11.722-3.516l-.782-29.806-.52-21.484,11.181-18.371s-3-5.73-2.734-8.322.778-4.556-5.6-5.468c0,0-5.38-.8-8.551-3a24.441,24.441,0,0,0-6.116-3.079s-1.789-3.329-3.034-2.189a40.881,40.881,0,0,1,1.144,5.409,17.918,17.918,0,0,0,.391,4.211c.2.329,2.8,15.646.15,21.113,0,0-3.891,14.743-6.658,17.535s-8.851-16.578-8.851-16.578-3.212-17.277-2.692-19.707S1168.646,494.474,1168.646,494.474Z" transform="translate(-793.525 -354.262)" fill="#3f3d56"/><circle cx="1.91" cy="1.91" r="1.91" transform="translate(382.499 193.295)" fill="#3f3d56"/><circle cx="1.91" cy="1.91" r="1.91" transform="translate(382.499 202.3)" fill="#3f3d56"/><circle cx="1.91" cy="1.91" r="1.91" transform="translate(382.499 193.295)" opacity="0.1"/><circle cx="1.91" cy="1.91" r="1.91" transform="translate(382.499 202.3)" opacity="0.1"/><path d="M1307.3,1059.495s7.84.607,8.618,1.215S1307.3,1059.495,1307.3,1059.495Z" transform="translate(-905.73 -741.461)" stroke="#e74c3c" stroke-miterlimit="10" stroke-width="1.317" opacity="0.1"/><path d="M1159.551,1039.987s1.664,2.08.957,3.037S1159.551,1039.987,1159.551,1039.987Z" transform="translate(-804.653 -728.116)" stroke="#e74c3c" stroke-miterlimit="10" stroke-width="1.317" opacity="0.1"/><path d="M1165.874,1061.3s3.037-2,4.253-.67S1165.874,1061.3,1165.874,1061.3Z" transform="translate(-808.978 -741.926)" stroke="#e74c3c" stroke-miterlimit="10" stroke-width="1.317" opacity="0.1"/><path d="M1232.821,423.793a12.126,12.126,0,0,1-.391,3.083,1.385,1.385,0,0,1-.807-1.357c.054-.5.383-.949.312-1.44-.1-.757-1.02-1.065-1.5-1.664a3.872,3.872,0,0,1-.416-2.713c.05-.936-.187-2.081-1.065-2.4-.262-.1-.549-.1-.8-.212-.691-.291-.9-1.148-1.365-1.739-.924-1.19-2.759-1.165-4.161-.6a19.767,19.767,0,0,1-1.872.782,2.447,2.447,0,0,1-1.96-.146c-.275-.175-.495-.416-.778-.591-.94-.566-2.172,0-2.988.728a10.333,10.333,0,0,1-2.5,2.151c-.462.208-1.032.333-1.249.782a1.638,1.638,0,0,0-.133.778,23.259,23.259,0,0,1-.146,4.848c-.216,1.019-.932,2.176-1.968,2.051a1.942,1.942,0,0,1-.379-.1,12.192,12.192,0,1,1,24.176-2.255Z" transform="translate(-838.101 -298.241)" opacity="0.1"/><path d="M1197.581,406.913c.312.071.607.233.928.275,1.036.125,1.752-1.032,1.968-2.052a22.438,22.438,0,0,0,.15-4.848,1.588,1.588,0,0,1,.129-.778c.237-.449.807-.574,1.248-.782a10.777,10.777,0,0,0,2.5-2.151c.833-.745,2.043-1.294,2.984-.728.279.166.5.416.778.591a2.5,2.5,0,0,0,1.964.146c.645-.191,1.248-.529,1.868-.782,1.39-.566,3.229-.587,4.161.595.462.6.674,1.448,1.365,1.739.254.108.541.121.8.216.878.329,1.1,1.465,1.065,2.4a4.031,4.031,0,0,0,.416,2.713c.483.591,1.4.9,1.5,1.664.067.491-.258.949-.312,1.44a1.381,1.381,0,0,0,1.3,1.473c1.082,0,1.752-1.211,2.763-1.6a3.289,3.289,0,0,0,1.249-.516,1.379,1.379,0,0,0,.258-1.128c-.2-1.594-1.481-2.979-1.344-4.577.129-1.531,1.548-2.867,1.248-4.373a3.546,3.546,0,0,0-.832-1.485,4.815,4.815,0,0,0-1.7-1.436,17.494,17.494,0,0,1-1.777-.612c-1.573-.861-1.569-3.108-2.5-4.64a4.074,4.074,0,0,0-3.8-1.889c-1.169.117-2.23.737-3.387.945a8.781,8.781,0,0,1-4.694-.832,12.835,12.835,0,0,0-4.631-1.248,3.95,3.95,0,0,0-3.845,2.355c-.258.832-.129,1.723-.329,2.559a5.586,5.586,0,0,1-2.987,3.279c-.912.508-2.006,1.09-2.114,2.126a4.384,4.384,0,0,0,.52,1.885,4.8,4.8,0,0,1-.025,3.329c-.3.786-.811,1.477-1.119,2.26a4.059,4.059,0,0,0,.108,3.329,3.1,3.1,0,0,0,1.9,1.56C1196.191,407.533,1196.707,406.722,1197.581,406.913Z" transform="translate(-827.573 -279.805)" fill="#3f3d56"/><g transform="translate(365.481 114.716)" opacity="0.1"><path d="M1200.474,442.391c-.216,1.019-.936,2.176-1.972,2.052-.32-.042-.612-.2-.928-.275-.87-.191-1.386.624-2.206.416a3.112,3.112,0,0,1-1.905-1.56,3.606,3.606,0,0,1-.387-1.361,3.8,3.8,0,0,0,.387,2.143,3.112,3.112,0,0,0,1.905,1.56c.832.191,1.336-.624,2.206-.416a9.4,9.4,0,0,0,.928.27c1.036.129,1.756-1.028,1.972-2.047a12.02,12.02,0,0,0,.2-2.734A10.252,10.252,0,0,1,1200.474,442.391Z" transform="translate(-1193.052 -432.682)"/><path d="M1196.761,419.58a4.788,4.788,0,0,0-.275-2.01,10.624,10.624,0,0,1-.479-1.315,1.984,1.984,0,0,0-.042.212,4.456,4.456,0,0,0,.52,1.885A4.774,4.774,0,0,1,1196.761,419.58Z" transform="translate(-1195.039 -416.138)"/><path d="M1296.4,419.838c-.2,1.182-1.153,2.293-1.248,3.537a2.991,2.991,0,0,0,0,.641C1295.356,422.564,1296.642,421.278,1296.4,419.838Z" transform="translate(-1262.884 -418.589)"/><path d="M1287.325,447.632a.979.979,0,0,1-.237.466c-.308.329-.832.354-1.248.516-1.011.387-1.665,1.61-2.763,1.6a1.393,1.393,0,0,1-1.248-.965,2.111,2.111,0,0,0-.058.275,1.381,1.381,0,0,0,1.3,1.469c1.086,0,1.752-1.211,2.763-1.594.416-.162.924-.187,1.248-.516a1.376,1.376,0,0,0,.258-1.128C1287.337,447.7,1287.329,447.669,1287.325,447.632Z" transform="translate(-1253.742 -437.602)"/><path d="M1278.575,439.978c-.1-.757-1.02-1.065-1.5-1.664a2.281,2.281,0,0,1-.458-1.365,3.071,3.071,0,0,0,.458,2.147c.478.583,1.206.832,1.44,1.431A1.335,1.335,0,0,0,1278.575,439.978Z" transform="translate(-1250.21 -430.294)"/><path d="M1235.806,421.21c.033-.936-.192-2.081-1.069-2.4-.258-.1-.545-.108-.8-.212-.691-.291-.907-1.148-1.365-1.739-.928-1.186-2.763-1.165-4.161-.6-.624.254-1.219.591-1.868.782a2.447,2.447,0,0,1-1.96-.146c-.275-.175-.5-.416-.778-.591-.944-.566-2.176,0-2.988.728a10.335,10.335,0,0,1-2.5,2.151c-.466.208-1.032.333-1.273.782a1.634,1.634,0,0,0-.129.778v.487a1.182,1.182,0,0,1,.12-.483c.242-.449.807-.574,1.273-.782a10.775,10.775,0,0,0,2.5-2.151c.832-.745,2.043-1.294,2.988-.728.279.166.5.416.778.587a2.43,2.43,0,0,0,1.96.146,19.194,19.194,0,0,0,1.868-.778c1.394-.566,3.229-.591,4.161.6.458.591.674,1.448,1.365,1.739.254.108.541.121.8.216a2,2,0,0,1,1.057,1.856Z" transform="translate(-1209.375 -415.883)"/></g><g transform="translate(371.417 121.131)" opacity="0.1"><path d="M1211.842,439.459a3.191,3.191,0,0,1,2.405-2.983,9.987,9.987,0,0,1,5.609.254c3.949,1.307-.5,6.009-.5,6.009s-2.958,2.913-5.718.878a4.324,4.324,0,0,1-1.61-2.5A6.366,6.366,0,0,1,1211.842,439.459Z" transform="translate(-1211.841 -436.19)"/><path d="M1259.67,439.46a3.191,3.191,0,0,0-2.409-2.984,9.987,9.987,0,0,0-5.605.254c-3.949,1.307.5,6.009.5,6.009s2.954,2.913,5.717.878a4.324,4.324,0,0,0,1.611-2.5A6.382,6.382,0,0,0,1259.67,439.46Z" transform="translate(-1237.96 -436.191)"/><path d="M1199.331,383.863v.2h7.211v-.233Z" transform="translate(-1192.06 -383.706)"/><path d="M1241.708,440.8h.229v-.662a1.9,1.9,0,0,1,1.948,0v.591h.416v-.387h-.2s.083-.8-1.273-.674c0,0-1.09-.1-1.065.587h-.25Z" transform="translate(-1232.136 -438.562)"/></g><path d="M1211.842,438.607a3.191,3.191,0,0,1,2.4-2.984,10.04,10.04,0,0,1,5.609.254c3.949,1.311-.5,6.009-.5,6.009s-2.959,2.913-5.718.878a4.3,4.3,0,0,1-1.61-2.5A6.33,6.33,0,0,1,1211.842,438.607Z" transform="translate(-840.424 -314.478)" fill="#e74c3c"/><path d="M1259.67,438.607a3.191,3.191,0,0,0-2.409-2.984,10.024,10.024,0,0,0-5.605.254c-3.949,1.311.5,6.009.5,6.009s2.954,2.913,5.717.878a4.3,4.3,0,0,0,1.611-2.5A6.328,6.328,0,0,0,1259.67,438.607Z" transform="translate(-866.543 -314.478)" fill="#e74c3c"/><path d="M1199.331,383.033v.2h7.211V383Z" transform="translate(-820.644 -262.008)" fill="#e74c3c"/><path d="M1241.708,439.975h.229v-.662a1.906,1.906,0,0,1,1.948,0v.6h.416v-.391h-.2s.083-.8-1.273-.674c0,0-1.09-.1-1.065.587h-.25Z" transform="translate(-860.72 -316.866)" fill="#e74c3c"/><rect width="2.364" height="53.221" transform="translate(48.693 190.241)" fill="#535461"/><path d="M175.282,815.145l-.15,2.4-.208,3.383-.087,1.411-.208,3.387-.092,1.411-.208,3.383-2.384,38.478a6.516,6.516,0,0,1-6.5,6.117H153.049a6.512,6.512,0,0,1-6.5-6.116l-2.4-38.478-.208-3.383-.087-1.411-.2-3.4-.087-1.411-.208-3.383-.15-2.4a3.375,3.375,0,0,1,3.371-3.583h25.337a3.37,3.37,0,0,1,3.366,3.591Z" transform="translate(-109.369 -571.845)" fill="#3f3d56"/><path d="M139.936,777.767l-.208,3.383H108.365l-.208-3.383Z" transform="translate(-74.173 -532.071)" fill="#9d9cb5"/><path d="M140.28,792.942l-.208,3.387H109.3l-.212-3.387Z" transform="translate(-74.813 -542.451)" fill="#9d9cb5"/><path d="M140.629,808.129l-.208,3.383H110.253l-.212-3.383Z" transform="translate(-75.462 -552.841)" fill="#9d9cb5"/><path d="M66.481,695.312c13.765,9.958,19.5,25.537,19.5,25.537s-16.59-.57-30.376-10.527-19.5-25.537-19.5-25.537S52.712,685.354,66.481,695.312Z" transform="translate(-36.105 -485.122)" fill="#e74c3c"/><path d="M36.171,684.784s17.219,9.571,22.741,17.477,27.114,18.592,27.114,18.592" transform="translate(-36.15 -485.122)" fill="none" stroke="#535461" stroke-miterlimit="10" stroke-width="2.634"/><path d="M124.611,642.251a33.366,33.366,0,0,1,10.615,13.9,33.373,33.373,0,0,1-16.524-5.73,33.371,33.371,0,0,1-10.611-13.9A33.111,33.111,0,0,1,124.611,642.251Z" transform="translate(-85.351 -452.106)" fill="#e74c3c"/><path d="M108.091,636.456s9.371,5.2,12.375,9.508,14.759,10.12,14.759,10.12" transform="translate(-85.351 -452.061)" fill="none" stroke="#535461" stroke-miterlimit="10" stroke-width="2.634"/><path d="M205.877,670.3c-8.609,9.458-10.428,21.817-10.428,21.817s12.134-2.975,20.739-12.433,10.428-21.821,10.428-21.821S214.482,660.836,205.877,670.3Z" transform="translate(-145.112 -466.704)" fill="#e74c3c"/><path d="M226.616,657.86s-11.21,9.7-14.06,16.378-17.106,17.893-17.106,17.893" transform="translate(-145.112 -466.704)" fill="none" stroke="#535461" stroke-miterlimit="10" stroke-width="2.634"/></g></svg>